<svg width="34" height="34" viewBox="0 0 34 34" fill="none" xmlns="http://www.w3.org/2000/svg">
<path fill-rule="evenodd" clip-rule="evenodd" d="M4.70945 16.7849C4.69399 16.8551 4.68602 16.9272 4.68602 17.0001C4.68602 17.2653 4.79138 17.5197 4.97892 17.7072L12.05 24.7783C12.4405 25.1688 13.0737 25.1688 13.4642 24.7783C13.8547 24.3878 13.8547 23.7546 13.4642 23.3641L8.09795 17.9978L28.2718 17.9978C28.8241 17.9978 29.2718 17.5501 29.2718 16.9978C29.2718 16.4456 28.8241 15.9978 28.2718 15.9978H8.10252L13.4642 10.6362C13.8547 10.2456 13.8547 9.61248 13.4642 9.22195C13.0737 8.83143 12.4405 8.83143 12.05 9.22195L5.01387 16.2581C4.86297 16.3954 4.75426 16.5783 4.70945 16.7849Z" fill="#171A1C" style="fill:#171A1C;fill:color(display-p3 0.0902 0.1020 0.1098);fill-opacity:1;"/>
</svg>
