<svg width="20" height="20" viewBox="0 0 20 20" fill="none" xmlns="http://www.w3.org/2000/svg">
<g clip-path="url(#clip0_11979_2376)">
<path d="M19.0006 14.4926C19.0007 14.4926 19.0006 14.4938 19.0001 14.4964C19.0002 14.4938 19.0005 14.4926 19.0006 14.4926ZM18.8164 14.2667C18.9607 14.398 18.9928 14.4766 18.9992 14.5C18.9928 14.5234 18.9607 14.602 18.8164 14.7333C18.6111 14.92 18.2581 15.1341 17.7372 15.3344C16.7021 15.7326 15.2043 16 13.5 16C11.7957 16 10.2979 15.7326 9.26278 15.3344C8.74187 15.1341 8.38893 14.92 8.18357 14.7333C8.03928 14.602 8.00716 14.5234 8.00079 14.5C8.00716 14.4766 8.03928 14.398 8.18357 14.2667C8.38893 14.08 8.74187 13.8659 9.26278 13.6656C10.2979 13.2674 11.7957 13 13.5 13C15.2043 13 16.7021 13.2674 17.7372 13.6656C18.2581 13.8659 18.6111 14.08 18.8164 14.2667ZM7.99939 14.4926C7.99949 14.4926 7.99976 14.4938 7.9999 14.4964C7.99937 14.4938 7.99929 14.4926 7.99939 14.4926ZM7.99939 14.5074C7.99929 14.5074 7.99937 14.5061 7.9999 14.5036C7.99976 14.5062 7.99949 14.5074 7.99939 14.5074ZM19.0001 14.5036C19.0006 14.5062 19.0007 14.5074 19.0006 14.5074C19.0005 14.5074 19.0002 14.5062 19.0001 14.5036Z" fill="url(#paint0_linear_11979_2376)" stroke="#EFA918" stroke-width="2"/>
<path d="M19.0006 11.4926C19.0007 11.4926 19.0006 11.4938 19.0001 11.4964C19.0002 11.4938 19.0005 11.4926 19.0006 11.4926ZM18.8164 11.2667C18.9607 11.398 18.9928 11.4766 18.9992 11.5C18.9928 11.5234 18.9607 11.602 18.8164 11.7333C18.6111 11.92 18.2581 12.1341 17.7372 12.3344C16.7021 12.7326 15.2043 13 13.5 13C11.7957 13 10.2979 12.7326 9.26278 12.3344C8.74187 12.1341 8.38893 11.92 8.18357 11.7333C8.03928 11.602 8.00716 11.5234 8.00079 11.5C8.00716 11.4766 8.03928 11.398 8.18357 11.2667C8.38893 11.08 8.74187 10.8659 9.26278 10.6656C10.2979 10.2674 11.7957 10 13.5 10C15.2043 10 16.7021 10.2674 17.7372 10.6656C18.2581 10.8659 18.6111 11.08 18.8164 11.2667ZM7.99939 11.4926C7.99949 11.4926 7.99976 11.4938 7.9999 11.4964C7.99937 11.4938 7.99929 11.4926 7.99939 11.4926ZM7.99939 11.5074C7.99929 11.5074 7.99937 11.5061 7.9999 11.5036C7.99976 11.5062 7.99949 11.5074 7.99939 11.5074ZM19.0001 11.5036C19.0006 11.5062 19.0007 11.5074 19.0006 11.5074C19.0005 11.5074 19.0002 11.5062 19.0001 11.5036Z" fill="url(#paint1_linear_11979_2376)" stroke="#EFA918" stroke-width="2"/>
<path d="M19.0006 8.49258C19.0007 8.49258 19.0006 8.49385 19.0001 8.49637C19.0002 8.49384 19.0005 8.49258 19.0006 8.49258ZM18.8164 8.26674C18.9607 8.39795 18.9928 8.47659 18.9992 8.5C18.9928 8.52341 18.9607 8.60205 18.8164 8.73326C18.6111 8.92 18.2581 9.13407 17.7372 9.33442C16.7021 9.73256 15.2043 10 13.5 10C11.7957 10 10.2979 9.73256 9.26278 9.33442C8.74187 9.13407 8.38893 8.92 8.18357 8.73326C8.03928 8.60205 8.00716 8.52341 8.00079 8.5C8.00716 8.47659 8.03928 8.39795 8.18357 8.26674C8.38893 8.08 8.74187 7.86593 9.26278 7.66558C10.2979 7.26744 11.7957 7 13.5 7C15.2043 7 16.7021 7.26744 17.7372 7.66558C18.2581 7.86593 18.6111 8.08 18.8164 8.26674ZM7.99939 8.49258C7.99949 8.49258 7.99976 8.49384 7.9999 8.49637C7.99937 8.49385 7.99929 8.49258 7.99939 8.49258ZM7.99939 8.50742C7.99929 8.50742 7.99937 8.50615 7.9999 8.50363C7.99976 8.50616 7.99949 8.50742 7.99939 8.50742ZM19.0001 8.50363C19.0006 8.50615 19.0007 8.50742 19.0006 8.50742C19.0005 8.50742 19.0002 8.50616 19.0001 8.50363Z" fill="url(#paint2_linear_11979_2376)" stroke="#EFA918" stroke-width="2"/>
<path d="M19.0006 5.49258C19.0007 5.49258 19.0006 5.49385 19.0001 5.49637C19.0002 5.49384 19.0005 5.49258 19.0006 5.49258ZM18.8164 5.26674C18.9607 5.39795 18.9928 5.47659 18.9992 5.5C18.9928 5.52341 18.9607 5.60205 18.8164 5.73326C18.6111 5.92 18.2581 6.13407 17.7372 6.33442C16.7021 6.73256 15.2043 7 13.5 7C11.7957 7 10.2979 6.73256 9.26278 6.33442C8.74187 6.13407 8.38893 5.92 8.18357 5.73326C8.03928 5.60205 8.00716 5.52341 8.00079 5.5C8.00716 5.47659 8.03928 5.39795 8.18357 5.26674C8.38893 5.08 8.74187 4.86593 9.26278 4.66558C10.2979 4.26744 11.7957 4 13.5 4C15.2043 4 16.7021 4.26744 17.7372 4.66558C18.2581 4.86593 18.6111 5.08 18.8164 5.26674ZM7.99939 5.49258C7.99949 5.49258 7.99976 5.49384 7.9999 5.49637C7.99937 5.49385 7.99929 5.49258 7.99939 5.49258ZM7.99939 5.50742C7.99929 5.50742 7.99937 5.50615 7.9999 5.50363C7.99976 5.50616 7.99949 5.50742 7.99939 5.50742ZM19.0001 5.50363C19.0006 5.50615 19.0007 5.50742 19.0006 5.50742C19.0005 5.50742 19.0002 5.50616 19.0001 5.50363Z" fill="url(#paint3_linear_11979_2376)" stroke="#EFA918" stroke-width="2"/>
<path d="M19.0006 2.49258C19.0007 2.49258 19.0006 2.49385 19.0001 2.49637C19.0002 2.49384 19.0005 2.49258 19.0006 2.49258ZM18.8164 2.26674C18.9607 2.39795 18.9928 2.47659 18.9992 2.5C18.9928 2.52341 18.9607 2.60205 18.8164 2.73326C18.6111 2.92 18.2581 3.13407 17.7372 3.33442C16.7021 3.73256 15.2043 4 13.5 4C11.7957 4 10.2979 3.73256 9.26278 3.33442C8.74187 3.13407 8.38893 2.92 8.18357 2.73326C8.03928 2.60205 8.00716 2.52341 8.00079 2.5C8.00716 2.47659 8.03928 2.39795 8.18357 2.26674C8.38893 2.08 8.74187 1.86593 9.26278 1.66558C10.2979 1.26744 11.7957 1 13.5 1C15.2043 1 16.7021 1.26744 17.7372 1.66558C18.2581 1.86593 18.6111 2.08 18.8164 2.26674ZM7.99939 2.49258C7.99949 2.49258 7.99976 2.49384 7.9999 2.49637C7.99937 2.49385 7.99929 2.49258 7.99939 2.49258ZM7.99939 2.50742C7.99929 2.50742 7.99937 2.50615 7.9999 2.50363C7.99976 2.50616 7.99949 2.50742 7.99939 2.50742ZM19.0001 2.50363C19.0006 2.50615 19.0007 2.50742 19.0006 2.50742C19.0005 2.50742 19.0002 2.50616 19.0001 2.50363Z" fill="url(#paint4_linear_11979_2376)" stroke="#EFA918" stroke-width="2"/>
<circle cx="7" cy="13" r="6" stroke="#CAECDC" stroke-width="2"/>
<circle cx="6.5" cy="13.5" r="5.5" fill="url(#paint5_linear_11979_2376)" stroke="#EFA918" stroke-width="2"/>
</g>
<defs>
<linearGradient id="paint0_linear_11979_2376" x1="13.5" y1="12" x2="13.5" y2="17" gradientUnits="userSpaceOnUse">
<stop stop-color="#EEA313"/>
<stop offset="1" stop-color="#FFE24D"/>
</linearGradient>
<linearGradient id="paint1_linear_11979_2376" x1="13.5" y1="9" x2="13.5" y2="14" gradientUnits="userSpaceOnUse">
<stop stop-color="#EEA313"/>
<stop offset="1" stop-color="#FFE24D"/>
</linearGradient>
<linearGradient id="paint2_linear_11979_2376" x1="13.5" y1="6" x2="13.5" y2="11" gradientUnits="userSpaceOnUse">
<stop stop-color="#EEA313"/>
<stop offset="1" stop-color="#FFE24D"/>
</linearGradient>
<linearGradient id="paint3_linear_11979_2376" x1="13.5" y1="3" x2="13.5" y2="8" gradientUnits="userSpaceOnUse">
<stop stop-color="#EEA313"/>
<stop offset="1" stop-color="#FFE24D"/>
</linearGradient>
<linearGradient id="paint4_linear_11979_2376" x1="13.5" y1="0" x2="13.5" y2="5" gradientUnits="userSpaceOnUse">
<stop stop-color="#EEA313"/>
<stop offset="1" stop-color="#FFE24D"/>
</linearGradient>
<linearGradient id="paint5_linear_11979_2376" x1="6.5" y1="7" x2="6.5" y2="20" gradientUnits="userSpaceOnUse">
<stop stop-color="#EEA313"/>
<stop offset="1" stop-color="#FFE24D"/>
</linearGradient>
<clipPath id="clip0_11979_2376">
<rect width="20" height="20" fill="white"/>
</clipPath>
</defs>
</svg>
