<svg width="38" height="32" viewBox="0 0 38 32" fill="none" xmlns="http://www.w3.org/2000/svg">
<path d="M32.7237 9.11211C34.1308 8.76126 35.3977 7.9901 36.3557 6.90129C35.0689 6.25179 33.6132 6.01468 32.1868 6.22226C30.7683 6.57339 29.4971 7.36374 28.5547 8.48045C29.8466 9.11377 31.3021 9.3343 32.7237 9.11211Z" fill="#253435"/>
<path d="M10.7422 22.3293L11.3107 22.0134C11.3156 22.0509 11.3091 22.0889 11.2923 22.1227C11.2754 22.1564 11.2488 22.1844 11.2159 22.2029L10.7422 22.5346C10.7588 22.5029 10.7675 22.4677 10.7675 22.4319C10.7675 22.3961 10.7588 22.3609 10.7422 22.3293Z" fill="#98544C"/>
<path d="M10.7736 20.9074L11.3263 20.5916V22.0128L10.7578 22.3444L10.7736 20.9074Z" fill="#925149"/>
<path d="M10.23 20.3551L10.7827 20.0235C10.8163 20.0041 10.8544 19.9939 10.8932 19.9939C10.932 19.9939 10.9702 20.0041 11.0038 20.0235L10.4511 20.3551C10.4175 20.3357 10.3793 20.3255 10.3405 20.3255C10.3017 20.3255 10.2636 20.3357 10.23 20.3551Z" fill="#98544C"/>
<path d="M10.4556 20.3719L11.0083 20.0403C11.0982 20.0999 11.1734 20.1793 11.2282 20.2723C11.2829 20.3653 11.3157 20.4696 11.3241 20.5772L10.7714 20.9088C10.7667 20.8003 10.7355 20.6946 10.6804 20.601C10.6254 20.5074 10.5481 20.4287 10.4556 20.3719Z" fill="#98544C"/>
<path d="M10.4497 20.3702C10.5423 20.427 10.6195 20.5057 10.6745 20.5993C10.7296 20.6929 10.7609 20.7986 10.7655 20.9071V22.3284C10.7655 22.5337 10.6234 22.6126 10.4655 22.5179C10.3755 22.4582 10.3003 22.3789 10.2456 22.2859C10.1909 22.1928 10.1581 22.0886 10.1496 21.981V20.5439C10.1338 20.3544 10.276 20.2755 10.4497 20.3702Z" fill="#FB8B7E"/>
<path d="M13.3431 23.8297L13.9116 23.498C13.9116 23.6086 13.9116 23.6717 13.8169 23.7033L13.2642 24.035C13.2785 24.0026 13.2859 23.9677 13.2859 23.9323C13.2859 23.897 13.2785 23.862 13.2642 23.8297H13.3431Z" fill="#98544C"/>
<path d="M13.3581 22.4082L13.9108 22.0765V23.5136L13.3423 23.8294L13.3581 22.4082Z" fill="#925149"/>
<path d="M12.8203 21.8397L13.373 21.5239C13.4066 21.5045 13.4448 21.4943 13.4836 21.4943C13.5224 21.4943 13.5605 21.5045 13.5941 21.5239L13.0414 21.8555C13.0084 21.8344 12.97 21.8232 12.9309 21.8232C12.8917 21.8232 12.8533 21.8344 12.8203 21.8555V21.8397Z" fill="#98544C"/>
<path d="M13.0391 21.8728L13.5918 21.5411C13.6826 21.5999 13.7584 21.679 13.8132 21.7722C13.8681 21.8654 13.9004 21.9702 13.9076 22.0781L13.3549 22.4097C13.3502 22.3012 13.319 22.1955 13.2639 22.1018C13.2089 22.0082 13.1316 21.9296 13.0391 21.8728Z" fill="#98544C"/>
<path d="M13.0434 21.8724C13.136 21.9292 13.2132 22.0079 13.2683 22.1015C13.3234 22.1951 13.3546 22.3008 13.3593 22.4094V23.8306C13.3593 24.0359 13.2171 24.1148 13.0592 24.0043C12.9666 23.9475 12.8894 23.8689 12.8344 23.7752C12.7793 23.6816 12.748 23.5759 12.7434 23.4674V22.0461C12.7276 21.8409 12.8697 21.7619 13.0434 21.8724Z" fill="#FB8B7E"/>
<path d="M12.9776 21.3336L13.5303 21.0178C13.5351 21.0553 13.5287 21.0933 13.5118 21.127C13.495 21.1608 13.4684 21.1888 13.4355 21.2073L12.8828 21.5389C12.9145 21.5153 12.9397 21.4842 12.9563 21.4483C12.9728 21.4125 12.9801 21.3731 12.9776 21.3336Z" fill="#98544C"/>
<path d="M12.9767 19.9134L13.5294 19.5818V21.0188L12.9609 21.3504L12.9767 19.9134Z" fill="#925149"/>
<path d="M12.4453 19.36L13.0138 19.0284C13.0474 19.009 13.0855 18.9988 13.1243 18.9988C13.1632 18.9988 13.2013 19.009 13.2349 19.0284L12.6664 19.36C12.6328 19.3406 12.5947 19.3304 12.5559 19.3304C12.517 19.3304 12.4789 19.3406 12.4453 19.36Z" fill="#98544C"/>
<path d="M12.6641 19.3765L13.2326 19.0449C13.3204 19.1054 13.3932 19.1853 13.4452 19.2784C13.4972 19.3715 13.5271 19.4753 13.5326 19.5818L12.9799 19.9134C12.9752 19.8049 12.944 19.6992 12.8889 19.6056C12.8339 19.512 12.7566 19.4333 12.6641 19.3765Z" fill="#98544C"/>
<path d="M12.6692 19.3768C12.7618 19.4336 12.839 19.5123 12.8941 19.6059C12.9491 19.6995 12.9804 19.8052 12.985 19.9137V21.335C12.985 21.5403 12.8429 21.6192 12.6692 21.5245C12.5792 21.4649 12.504 21.3855 12.4493 21.2925C12.3946 21.1995 12.3618 21.0952 12.3534 20.9876V19.5348C12.3218 19.361 12.4955 19.2821 12.6692 19.3768Z" fill="#FB8B7E"/>
<path d="M15.5713 22.8343L16.124 22.5027C16.124 22.6132 16.124 22.6764 16.0293 22.708L15.4766 23.0396C15.5072 23.0151 15.5317 22.9838 15.5482 22.9481C15.5646 22.9125 15.5725 22.8735 15.5713 22.8343Z" fill="#98544C"/>
<path d="M15.5703 21.4137L16.123 21.082V22.5191L15.5703 22.8349V21.4137Z" fill="#925149"/>
<path d="M15.0381 20.8451L15.6066 20.5292C15.6402 20.5098 15.6783 20.4996 15.7171 20.4996C15.7559 20.4996 15.7941 20.5098 15.8277 20.5292L15.2592 20.8609C15.227 20.8377 15.1883 20.8253 15.1486 20.8253C15.109 20.8253 15.0703 20.8377 15.0381 20.8609V20.8451Z" fill="#98544C"/>
<path d="M15.2578 20.8765L15.8263 20.5449C15.915 20.6045 15.9885 20.6842 16.0406 20.7775C16.0927 20.8708 16.1221 20.975 16.1263 21.0818L15.5736 21.4135C15.569 21.3049 15.5378 21.1992 15.4827 21.1056C15.4276 21.012 15.3504 20.9333 15.2578 20.8765Z" fill="#98544C"/>
<path d="M15.2587 20.8769C15.3513 20.9336 15.4285 21.0123 15.4836 21.1059C15.5386 21.1995 15.5699 21.3053 15.5745 21.4138V22.835C15.5745 23.0403 15.4324 23.1192 15.2587 23.0087C15.1661 22.9519 15.0889 22.8733 15.0338 22.7796C14.9788 22.686 14.9475 22.5803 14.9429 22.4718V21.1137C14.9587 20.8453 15.085 20.7663 15.2587 20.8769Z" fill="#FB8B7E"/>
<path d="M10.1362 16.8806L11.9365 15.8383C12.1902 15.7229 12.47 15.6768 12.7473 15.7045C13.0247 15.7322 13.2898 15.8329 13.5156 15.9962L11.7154 17.0385C11.4895 16.8751 11.2245 16.7745 10.9471 16.7467C10.6697 16.719 10.39 16.7652 10.1362 16.8806Z" fill="#987A71"/>
<path d="M11.75 17.0553L13.5502 15.9973L14.7662 16.7079L12.9659 17.7502L11.75 17.0553Z" fill="#896E66"/>
<path d="M12.9614 17.7499L14.7617 16.7076C15.4239 17.135 15.9762 17.7121 16.374 18.3925C16.7718 19.0728 17.0039 19.8373 17.0514 20.6239C17.08 20.9032 17.0336 21.185 16.917 21.4404C16.8004 21.6957 16.6179 21.9154 16.3882 22.0768L14.6037 23.119C14.8306 22.9558 15.01 22.7353 15.1237 22.4801C15.2375 22.2248 15.2815 21.944 15.2512 21.6662C15.2147 20.8806 14.9906 20.1151 14.5978 19.4338C14.2049 18.7524 13.6547 18.1751 12.993 17.7499H12.9614Z" fill="#987A71"/>
<path d="M12.9665 17.7488C13.6281 18.174 14.1784 18.7514 14.5713 19.4327C14.9641 20.114 15.1882 20.8795 15.2247 21.6651C15.2247 23.1022 14.214 23.6864 12.9507 22.96L11.7348 22.2494C11.0749 21.8223 10.526 21.2445 10.1334 20.5636C9.74075 19.8827 9.51563 19.1182 9.47656 18.3331C9.47656 16.8961 10.503 16.3276 11.7505 17.0382L12.9665 17.7488Z" fill="#FCCBBC"/>
<path d="M1.86611 16.0758L3.08206 15.3652C3.09506 15.4818 3.07535 15.5997 3.02515 15.7056C2.97494 15.8116 2.89623 15.9015 2.79781 15.9653L1.59766 16.6759C1.6907 16.6079 1.76439 16.5167 1.81146 16.4115C1.85854 16.3063 1.87737 16.1906 1.86611 16.0758Z" fill="#161F20"/>
<path d="M1.86719 13.8491L3.08314 13.1543V15.3809L1.86719 16.0757V13.8491Z" fill="#151E1F"/>
<path d="M0.289062 12.1755L1.48922 11.4807C1.57178 11.457 1.65933 11.457 1.74188 11.4807C1.88835 11.4804 2.03147 11.5245 2.15247 11.607L0.952308 12.3018C0.821536 12.2281 0.675774 12.1849 0.525938 12.1755C0.449008 12.1502 0.365992 12.1502 0.289062 12.1755Z" fill="#161F20"/>
<path d="M0.945312 12.2394L2.14547 11.5446C2.33533 11.6466 2.49783 11.7928 2.61922 11.9709C2.8991 12.2978 3.06046 12.7095 3.07717 13.1395L1.86122 13.8501C1.85003 13.4171 1.6944 13.0002 1.41906 12.6658C1.28488 12.4993 1.12495 12.3553 0.945312 12.2394Z" fill="#161F20"/>
<path d="M0.947491 12.2377C1.12712 12.3536 1.28706 12.4976 1.42124 12.664C1.69657 12.9985 1.85221 13.4153 1.8634 13.8484V16.075C1.8634 16.6593 1.43703 16.912 0.931702 16.6119C0.66464 16.4389 0.441452 16.2062 0.279758 15.9321C0.118063 15.6581 0.0222903 15.3502 0 15.0328V12.7746C0 12.3482 0.20529 12.1113 0.505329 12.1113C0.660561 12.1183 0.811991 12.1616 0.947491 12.2377Z" fill="#253435"/>
<path d="M1.42041 8.85918L2.63636 8.14856L2.62057 11.9701L1.42041 12.6649V8.85918Z" fill="#969696"/>
<path d="M3.25381 4.84831L4.46976 4.1377C3.83777 4.58529 3.33542 5.1921 3.01371 5.89655C2.69199 6.60099 2.56235 7.37801 2.63794 8.14875L1.43778 8.85936C1.35717 8.08977 1.4829 7.31259 1.80206 6.60767C2.12121 5.90274 2.62229 5.29549 3.25381 4.84831Z" fill="#969696"/>
<path d="M2.61719 3.7434L3.83313 3.03279C4.64777 2.6553 5.54827 2.50167 6.44199 2.58771C7.3357 2.67375 8.19035 2.99635 8.91801 3.52232L7.70207 4.23294C6.97652 3.70234 6.12149 3.37689 5.22677 3.29075C4.33204 3.20461 3.43063 3.36096 2.61719 3.7434Z" fill="#C7C7C7"/>
<path d="M7.71094 4.24756L8.92689 3.55273L11.8641 5.24243L10.664 5.95305L7.71094 4.24756Z" fill="#C7C7C7"/>
<path d="M10.6642 5.95439L11.8644 5.24377V6.27022L10.6484 6.98084L10.6642 5.95439Z" fill="#283132"/>
<path d="M10.7409 5.95249V6.97894L7.70893 5.32082C4.26637 3.33109 1.39231 4.94182 1.39231 8.9055V12.7113C1.25813 12.5448 1.09819 12.4009 0.91856 12.2849C0.787789 12.2112 0.642023 12.168 0.492188 12.1586V8.33701C0.492188 3.80484 3.72945 2.02039 7.66155 4.24699L10.7409 5.95249Z" fill="#FDFDFD"/>
<path d="M24.6027 26.2133L26.5293 25.092C26.4957 25.1149 26.4682 25.1455 26.4489 25.1812C26.4297 25.2169 26.4193 25.2568 26.4188 25.2973L24.4922 26.4185C24.4958 26.3768 24.5091 26.3366 24.531 26.3009C24.553 26.2653 24.5829 26.2353 24.6185 26.2133H24.6027Z" fill="#7D8788"/>
<path d="M26.8138 29.5931L28.7246 28.4877C28.7286 28.5395 28.7191 28.5915 28.697 28.6386C28.6748 28.6857 28.6408 28.7262 28.5983 28.7561L26.6875 29.8615C26.73 29.8316 26.764 29.7911 26.7862 29.744C26.8083 29.697 26.8179 29.6449 26.8138 29.5931Z" fill="#172020"/>
<path d="M24.6016 26.2138L26.5281 25.0926C26.5737 25.0662 26.6255 25.0524 26.6782 25.0524C26.7308 25.0524 26.7826 25.0662 26.8282 25.0926L24.949 26.2453C24.9046 26.2155 24.8524 26.1995 24.799 26.1995C24.7455 26.1995 24.6933 26.2155 24.6489 26.2453L24.6016 26.2138Z" fill="#172020"/>
<path d="M26.8145 27.841L28.7252 26.7198V28.4885L26.8145 29.5939V27.841Z" fill="#172021"/>
<path d="M24.8882 26.2447L26.8148 25.1235L28.3149 25.9921L26.3884 27.1133L24.8882 26.2447Z" fill="#141C1D"/>
<path d="M26.4058 27.1145L28.3165 25.9933C28.4335 26.0701 28.5313 26.1726 28.6025 26.293C28.6737 26.4135 28.7163 26.5486 28.7271 26.6881L26.8163 27.7935C26.8032 27.6568 26.7595 27.5248 26.6884 27.4072C26.6173 27.2897 26.5207 27.1897 26.4058 27.1145Z" fill="#172020"/>
<path d="M26.4025 27.1138C26.5174 27.1889 26.614 27.289 26.6851 27.4065C26.7562 27.5241 26.7999 27.6561 26.813 27.7928V29.593C26.813 29.8615 26.6235 29.972 26.3867 29.8299L24.9496 29.0088C24.827 28.9344 24.725 28.8303 24.6532 28.7061C24.5815 28.5819 24.5422 28.4416 24.5391 28.2981V26.4189C24.5391 26.1979 24.7443 26.1189 24.9654 26.2452L26.4025 27.1138Z" fill="#253435"/>
<path d="M26.8302 20.3867L28.741 19.2655L28.7252 26.6875L26.8145 27.7929L26.8302 20.3867Z" fill="#C7C7C7"/>
<path d="M26.8302 20.3708V27.7929C26.817 27.6562 26.7733 27.5241 26.7022 27.4066C26.6312 27.289 26.5346 27.189 26.4196 27.1138L24.8404 26.2453C24.6194 26.119 24.4456 26.2453 24.4141 26.419V19.0286L26.8302 20.3708Z" fill="#969696"/>
<path d="M24.4922 19.0284L26.4188 17.923L28.7401 19.2653L26.8293 20.3865L24.4922 19.0284Z" fill="#707979"/>
<path d="M6.36835 22.3144L8.29492 21.209C8.25932 21.231 8.22935 21.261 8.20742 21.2967C8.18548 21.3323 8.17218 21.3726 8.16859 21.4143L6.25781 22.5355C6.25948 22.4929 6.2702 22.4511 6.28926 22.413C6.30832 22.3749 6.33528 22.3413 6.36835 22.3144Z" fill="#7D8788"/>
<path d="M8.57148 25.7091L10.498 24.5879C10.5021 24.6397 10.4925 24.6918 10.4704 24.7388C10.4482 24.7859 10.4142 24.8264 10.3717 24.8564L8.46094 25.9776C8.49852 25.9441 8.528 25.9026 8.54715 25.8561C8.5663 25.8096 8.57462 25.7593 8.57148 25.7091Z" fill="#172020"/>
<path d="M6.36719 22.3149L8.29376 21.2095C8.33476 21.1787 8.38463 21.1621 8.43588 21.1621C8.48714 21.1621 8.53701 21.1787 8.57801 21.2095L6.66722 22.3149C6.62039 22.2925 6.56913 22.2808 6.51721 22.2808C6.46529 22.2808 6.41402 22.2925 6.36719 22.3149Z" fill="#172020"/>
<path d="M8.57031 23.9394L10.4969 22.834L10.4811 24.5868L8.57031 25.708V23.9394Z" fill="#172021"/>
<path d="M6.66406 22.3456L8.57484 21.2402L10.075 22.1088L8.16426 23.2142L6.66406 22.3456Z" fill="#141C1D"/>
<path d="M8.57031 23.9083L10.4969 22.7871L8.5861 23.9083H8.57031Z" fill="#172020"/>
<path d="M8.16406 23.2128L10.0748 22.1074C10.1944 22.179 10.2953 22.2778 10.3694 22.3959C10.4435 22.5139 10.4887 22.6477 10.5012 22.7865L8.57465 23.9077C8.56755 23.7673 8.52648 23.6307 8.45496 23.5097C8.38345 23.3886 8.28362 23.2868 8.16406 23.2128Z" fill="#172020"/>
<path d="M8.16875 23.2149C8.28831 23.2889 8.38814 23.3907 8.45965 23.5117C8.53117 23.6328 8.57224 23.7693 8.57934 23.9097V25.6784C8.58804 25.7293 8.58094 25.7817 8.55898 25.8284C8.53703 25.8751 8.50128 25.914 8.45655 25.9398C8.41182 25.9656 8.36025 25.9771 8.30879 25.9727C8.25734 25.9683 8.20846 25.9483 8.16875 25.9153L6.66855 25.0467C6.54543 24.9676 6.44267 24.8607 6.3686 24.7345C6.29452 24.6083 6.25122 24.4664 6.24219 24.3203V22.5833C6.24219 22.3464 6.44748 22.2674 6.65277 22.3937L8.16875 23.2149Z" fill="#253435"/>
<path d="M8.6019 16.4863L10.5127 15.3809L10.4969 22.7871L8.57031 23.9083L8.6019 16.4863Z" fill="#C7C7C7"/>
<path d="M8.61042 16.4863V23.9083C8.60332 23.7679 8.56225 23.6314 8.49074 23.5103C8.41922 23.3893 8.3194 23.2875 8.19984 23.2135L6.69964 22.345C6.49435 22.2186 6.30485 22.345 6.28906 22.5345V15.144L8.61042 16.4863Z" fill="#FDFDFD"/>
<path d="M6.27344 15.1437L8.18421 14.0225L10.5214 15.3805L8.61059 16.4859L6.27344 15.1437Z" fill="#707979"/>
<path d="M19.4894 28.3144L21.416 27.209C21.3804 27.231 21.3504 27.261 21.3285 27.2967C21.3066 27.3323 21.2933 27.3726 21.2897 27.4143L19.3789 28.5355C19.3806 28.4929 19.3913 28.4511 19.4104 28.413C19.4294 28.3749 19.4564 28.3413 19.4894 28.3144Z" fill="#7D8788"/>
<path d="M21.6965 31.709L23.6231 30.5878C23.6271 30.6396 23.6175 30.6916 23.5954 30.7387C23.5732 30.7858 23.5392 30.8263 23.4967 30.8562L21.5859 31.9774C21.6268 31.9467 21.6586 31.9056 21.6781 31.8584C21.6975 31.8111 21.7039 31.7595 21.6965 31.709Z" fill="#172020"/>
<path d="M19.4907 28.3133L21.4173 27.2079C21.4616 27.1781 21.5139 27.1621 21.5673 27.1621C21.6208 27.1621 21.673 27.1781 21.7173 27.2079L19.7908 28.3133C19.7439 28.2909 19.6927 28.2793 19.6407 28.2793C19.5888 28.2793 19.5376 28.2909 19.4907 28.3133Z" fill="#172020"/>
<path d="M21.7111 29.9409L23.6219 28.8354V30.5883L21.6953 31.7095L21.7111 29.9409Z" fill="#172021"/>
<path d="M19.7891 28.3456L21.6998 27.2402L23.2158 28.1088L21.2893 29.2142L19.7891 28.3456Z" fill="#141C1D"/>
<path d="M21.7891 29.9083L23.6998 28.7871L21.7891 29.9399V29.9083Z" fill="#172020"/>
<path d="M21.2891 29.2148L23.2156 28.1094C23.3306 28.1845 23.4272 28.2846 23.4983 28.4021C23.5693 28.5197 23.6131 28.6517 23.6262 28.7884L21.7944 29.9096C21.783 29.7684 21.7385 29.6319 21.6644 29.5112C21.5903 29.3904 21.4887 29.2889 21.368 29.2148H21.2891Z" fill="#172020"/>
<path d="M21.2895 29.2157C21.4103 29.2898 21.5118 29.3914 21.5859 29.5121C21.66 29.6328 21.7045 29.7694 21.7159 29.9106V31.7108C21.7159 31.9635 21.5422 32.074 21.3053 31.9477L19.7262 31.0791C19.6031 31 19.5003 30.8931 19.4262 30.7669C19.3521 30.6406 19.3088 30.4988 19.2998 30.3527V28.5367C19.2998 28.2998 19.5051 28.2367 19.7104 28.3472L21.2895 29.2157Z" fill="#253435"/>
<path d="M21.7269 22.4864L23.6377 21.381L23.6219 28.7872L21.6953 29.9084L21.7269 22.4864Z" fill="#C7C7C7"/>
<path d="M21.795 22.4876V29.9097C21.7836 29.7685 21.7391 29.632 21.665 29.5112C21.5909 29.3905 21.4894 29.2889 21.3686 29.2148L19.7895 28.3463C19.5842 28.2358 19.4105 28.3463 19.3789 28.5358V21.1138L21.795 22.4876Z" fill="#FDFDFD"/>
<path d="M19.395 21.1457L21.3216 20.0245L23.6429 21.3826L21.7322 22.488L19.395 21.1457Z" fill="#707979"/>
<path d="M6.52344 6.25321L12.0821 3.0949C12.3491 2.96309 12.6479 2.90946 12.9441 2.9402C13.2403 2.97093 13.5217 3.08478 13.756 3.2686L8.19734 6.42691C7.96152 6.24561 7.67929 6.1346 7.38315 6.10667C7.08701 6.07873 6.789 6.135 6.52344 6.269V6.25321Z" fill="#C7C7C7"/>
<path d="M23.1696 24.3517L28.744 21.1934C28.7848 21.4772 28.7476 21.7668 28.6363 22.0311C28.5251 22.2954 28.3439 22.5244 28.1123 22.6936L22.5537 25.8519C22.8073 25.6824 23.0064 25.443 23.1269 25.1628C23.2474 24.8825 23.2842 24.5734 23.2327 24.2727L23.1696 24.3517Z" fill="#C7C7C7"/>
<path d="M23.1799 17.7978L28.7543 14.5605L28.7385 21.114L23.1641 24.3513L23.1799 17.7978Z" fill="#C7C7C7"/>
<path d="M7.92969 6.27043L13.5041 3.04895L26.4058 10.4868L20.8472 13.724L7.92969 6.27043Z" fill="#C7C7C7"/>
<path d="M20.8447 13.7228L26.4033 10.5645C27.0893 11.0096 27.6601 11.6109 28.0691 12.319C28.4781 13.0271 28.7136 13.822 28.7563 14.6387L23.1977 17.797C23.1512 16.9812 22.9141 16.1877 22.5055 15.4802C22.0969 14.7726 21.5281 14.1707 20.8447 13.7228Z" fill="#C7C7C7"/>
<path d="M23.6842 17.7981V24.3516C23.6842 25.836 22.6261 26.4361 21.3312 25.6939L17.3044 23.3725L13.2459 21.1143L8.39794 18.3192C7.69262 17.8718 7.10597 17.2604 6.68802 16.5372C6.27006 15.8141 6.0332 15.0005 5.99762 14.166V7.61253C5.97685 7.35167 6.01583 7.08949 6.1116 6.84596C6.20738 6.60242 6.35742 6.38392 6.55032 6.20709C6.81623 6.0202 7.13333 5.91992 7.45834 5.91992C7.78335 5.91992 8.10044 6.0202 8.36635 6.20709L13.2302 9.01798L21.268 13.6607C22.2424 14.2742 22.9821 15.1975 23.3683 16.2821C23.5626 16.7647 23.6695 17.278 23.6842 17.7981Z" fill="#FDFDFD"/>
<path d="M23.3716 16.281C23.0084 17.4338 21.9187 17.8602 20.6238 17.039L16.1548 14.465C15.3167 13.9221 14.6192 13.1882 14.1196 12.3235C13.62 11.4588 13.3325 10.488 13.2808 9.49066V9.08008L21.3187 13.7228C22.2644 14.328 22.9855 15.2267 23.3716 16.281Z" fill="#253435"/>
<path d="M22.6567 24.0359C22.6567 25.1098 22.104 25.7256 21.3144 25.6941L17.2876 23.3727C16.4799 22.4809 16.0056 21.3371 15.9453 20.1354C15.9453 19.0932 16.4664 18.5563 17.2244 18.5563C17.5925 18.5743 17.9505 18.6828 18.2667 18.8721L20.3512 20.0723C21.0139 20.5116 21.5666 21.0977 21.9665 21.7851C22.3663 22.4724 22.6025 23.2426 22.6567 24.0359Z" fill="#253435"/>
<path d="M11.1452 11.4953C11.1452 13.0744 10.1029 13.5955 8.80802 12.8533L6.72353 11.6374C6.48236 11.4839 6.25514 11.3095 6.04449 11.1162V7.61052C6.02372 7.34966 6.06271 7.08749 6.15848 6.84395C6.25425 6.60041 6.4043 6.38192 6.5972 6.20508H6.70774L8.79223 7.40524C9.48389 7.84808 10.0588 8.45092 10.4683 9.16281C10.8779 9.8747 11.11 10.6747 11.1452 11.4953Z" fill="#253435"/>
<path d="M13.2513 20.8301V21.1144L8.40325 18.3193C7.69793 17.8718 7.11128 17.2605 6.69333 16.5373C6.27537 15.8141 6.03851 15.0006 6.00293 14.1661V13.3607L10.3298 15.8558C11.1768 16.3934 11.8835 17.125 12.3916 17.99C12.8996 18.855 13.1943 19.8286 13.2513 20.8301Z" fill="#253435"/>
<path d="M28.1571 9.4121L27.3359 8.93835V7.42236L28.1571 7.89611V9.4121Z" fill="#FAE0A9"/>
<path d="M28.1102 7.89558L27.2891 7.42184C27.4944 7.24814 27.6838 7.05864 27.8733 6.86914L28.6945 7.35867L28.1102 7.89558Z" fill="#978866"/>
<path d="M28.7386 7.35795L27.9175 6.9C28.2541 6.56549 28.5655 6.20657 28.8492 5.82617L29.6703 6.31571C29.3786 6.68958 29.0676 7.04801 28.7386 7.38953V7.35795Z" fill="#B09E77"/>
<path d="M29.6883 6.28614L28.8672 5.7966C29.0785 5.50762 29.2735 5.20711 29.4515 4.89648L30.2726 5.37022C30.0969 5.68727 29.9018 5.99316 29.6883 6.28614Z" fill="#CAB588"/>
<path d="M30.2567 5.32129L29.4355 4.84754C29.6101 4.5537 29.7632 4.24761 29.8935 3.93164L30.7147 4.40538C30.5843 4.72134 30.4313 5.02745 30.2567 5.32129Z" fill="#E3CB99"/>
<path d="M30.7196 4.45322L29.8984 3.97948C30.4488 2.73009 30.6455 1.35352 30.4669 0L31.2881 0.473752C31.4767 1.82731 31.2797 3.20661 30.7196 4.45322Z" fill="#FCE2AA"/>
<path d="M31.2682 0.474609C31.5338 0.775121 31.7374 1.12509 31.8675 1.50447C31.9976 1.88385 32.0515 2.28517 32.0262 2.68543C31.9504 4.03619 31.556 5.34984 30.8754 6.51903C30.1947 7.68822 29.2471 8.67976 28.1099 9.41263V7.83347C29.2195 6.97741 30.092 5.85209 30.6447 4.56423C31.1975 3.27637 31.4121 1.86866 31.2682 0.474609Z" fill="#928362"/>
<path d="M37.0784 14.5293C37.0862 14.3925 37.0862 14.2554 37.0784 14.1187C37.0784 13.9292 36.9836 13.6765 36.9363 13.487C36.898 13.3195 36.8452 13.1557 36.7783 12.9975L36.5099 12.4606C36.3355 12.156 36.1233 11.8748 35.8782 11.6236C35.7361 11.4815 35.5308 11.292 35.3729 11.1656L34.9149 10.8656L34.4254 10.6129L30.2406 8.16526L29.8458 7.92839H29.7669L29.2616 7.69151L28.772 7.5336H28.4404H27.9193H27.5877C27.4038 7.51745 27.2188 7.51745 27.035 7.5336C26.8266 7.55893 26.6206 7.60118 26.4191 7.65993L26.119 7.77047C25.9295 7.77047 25.7085 7.94417 25.5348 8.02313L25.1715 8.24421L24.9189 8.40213L24.6504 8.62321L24.4451 8.79691L24.2241 9.00221L23.8766 9.41278L23.7187 9.61808L23.3713 9.90233C23.2835 10.0448 23.2044 10.1925 23.1344 10.3445L23.0239 10.5814C22.8976 10.8972 22.8502 11.0709 22.7712 11.3236C22.7252 11.5058 22.6883 11.6903 22.6607 11.8763C22.6529 11.9814 22.6529 12.087 22.6607 12.1921C22.6528 12.313 22.6528 12.4344 22.6607 12.5553C22.6528 12.6604 22.6528 12.766 22.6607 12.8711C22.6529 13.0079 22.6529 13.145 22.6607 13.2817C22.6607 13.3765 22.6607 13.5028 22.6607 13.5975C22.6935 13.763 22.7356 13.9264 22.787 14.0871C22.9489 14.5991 23.2061 15.076 23.545 15.4925C23.6968 15.6816 23.866 15.8561 24.0503 16.0137L24.3188 16.2347C24.4599 16.3437 24.6076 16.4439 24.761 16.5348L25.1715 16.7716L29.3721 19.2193L29.7669 19.4562L30.3986 19.7563L30.8407 19.8984L31.3618 20.0089C31.5827 20.0244 31.8043 20.0244 32.0251 20.0089H32.5778L33.1937 19.8826L33.7937 19.6615L34.078 19.5352L34.4886 19.2983C34.6713 19.1848 34.8454 19.0581 35.0097 18.9193L35.2466 18.714L35.6098 18.3192C35.6098 18.3192 36.0046 18.0823 36.0046 17.956L36.1467 17.7507C36.1467 17.7507 36.2414 17.6086 36.273 17.5296L36.3993 17.3244L36.6204 16.8664L36.7152 16.6137C36.7152 16.6137 36.7941 16.4084 36.8731 16.1084C36.975 15.7052 37.0333 15.2923 37.0468 14.8767C37.0784 14.7977 37.0942 14.624 37.0784 14.5293Z" fill="#FDFDFD"/>
<path d="M30.239 8.16349L29.8442 7.92661C29.453 7.74439 29.0205 7.66885 28.5906 7.70768C28.1608 7.7465 27.7488 7.89831 27.3965 8.1477C26.3639 8.80114 25.5007 9.68988 24.8776 10.7411C24.2546 11.7924 23.8893 12.9763 23.8119 14.1959C23.7567 14.6418 23.8229 15.0943 24.0036 15.5056C24.1843 15.917 24.4726 16.272 24.8383 16.533L25.2489 16.7699C24.8841 16.5072 24.5954 16.1526 24.4123 15.742C24.2292 15.3314 24.1582 14.8797 24.2067 14.4327C24.2854 13.2135 24.6511 12.0301 25.2741 10.979C25.897 9.92794 26.7596 9.03897 27.7913 8.38457C28.1436 8.13519 28.5556 7.98338 28.9854 7.94455C29.4153 7.90573 29.8478 7.98126 30.239 8.16349Z" fill="#FDFDFD"/>
<g style="mix-blend-mode:multiply" opacity="0.3">
<path d="M28.4246 16.8822C28.4992 15.6616 28.8613 14.476 29.4816 13.4221C30.1018 12.3682 30.9626 11.476 31.9935 10.8182C32.3455 10.5743 32.7553 10.4269 33.182 10.3909C33.6088 10.3549 34.0375 10.4314 34.4254 10.6129L30.2406 8.16526L29.8458 7.92839H29.7669L29.2616 7.69151L28.772 7.5336H28.4404H27.9193H27.5876C27.4038 7.51745 27.2188 7.51745 27.0349 7.5336C26.8266 7.55893 26.6206 7.60118 26.4191 7.65993L26.119 7.77047C25.9295 7.77047 25.7085 7.94417 25.5348 8.02313L25.1715 8.24421L24.9189 8.40213L24.6504 8.62321L24.4451 8.79691L24.2241 9.00221L23.8766 9.41278L23.7187 9.61808L23.3713 9.90233C23.2835 10.0448 23.2044 10.1925 23.1344 10.3445L23.0239 10.5814C22.8976 10.8972 22.8502 11.0709 22.7712 11.3236C22.7252 11.5058 22.6883 11.6903 22.6607 11.8763C22.6529 11.9814 22.6529 12.087 22.6607 12.1921C22.6528 12.313 22.6528 12.4344 22.6607 12.5553C22.6528 12.6604 22.6528 12.766 22.6607 12.8711C22.6529 13.0079 22.6529 13.145 22.6607 13.2817C22.6607 13.3765 22.6607 13.5028 22.6607 13.5975C22.6935 13.763 22.7356 13.9264 22.787 14.0871C22.9489 14.5991 23.2061 15.076 23.545 15.4925C23.6968 15.6816 23.866 15.8561 24.0503 16.0137L24.3188 16.2347C24.4599 16.3437 24.6076 16.4439 24.761 16.5348L25.1715 16.7717L29.3721 19.2193C29.0208 18.9491 28.7479 18.5901 28.5813 18.1793C28.4148 17.7685 28.3607 17.3208 28.4246 16.8822Z" fill="#FDFDFD"/>
</g>
<path d="M37.0773 14.5296C37.0851 14.3928 37.0851 14.2557 37.0773 14.119C37.0773 13.9295 36.9826 13.6768 36.9352 13.4873C36.897 13.3198 36.8441 13.156 36.7773 12.9978L36.5088 12.4609C36.3345 12.1563 36.1222 11.8751 35.8771 11.6239C35.735 11.4818 35.5297 11.2923 35.3718 11.166L34.9139 10.8659C34.524 10.6814 34.0922 10.6033 33.6624 10.6393C33.2326 10.6754 32.8199 10.8244 32.4662 11.0712C31.4332 11.7281 30.57 12.6198 29.9471 13.6736C29.3242 14.7274 28.959 15.9135 28.8815 17.1352C28.848 17.5278 28.8997 17.923 29.0333 18.2937C29.1669 18.6644 29.379 19.0018 29.6553 19.2828H29.7342L29.8606 19.3776L30.4922 19.6776L30.9344 19.8197L31.4555 19.9303C31.6763 19.9458 31.8979 19.9458 32.1188 19.9303H32.6715L33.2873 19.8039L33.8874 19.5828L34.1717 19.4565L34.5822 19.2196C34.7649 19.1062 34.9391 18.9795 35.1034 18.8406L35.3402 18.6354L35.7034 18.2406C35.7034 18.2406 36.0035 18.0827 36.0035 17.9563L36.1456 17.751C36.1456 17.751 36.2403 17.6089 36.2719 17.53L36.3983 17.3247L36.6193 16.8667L36.7141 16.614C36.7141 16.614 36.7931 16.4088 36.872 16.1087C36.9739 15.7056 37.0322 15.2926 37.0457 14.877C37.0773 14.798 37.0931 14.6243 37.0773 14.5296Z" fill="#253435"/>
<path d="M29.6886 19.3291H29.6097C29.3335 19.0481 29.1213 18.7106 28.9877 18.3399C28.8542 17.9692 28.8024 17.574 28.8359 17.1814C28.9134 15.9597 29.2786 14.7736 29.9015 13.7198C30.5245 12.666 31.3876 11.7744 32.4206 11.1175C32.7743 10.8706 33.187 10.7216 33.6168 10.6856C34.0466 10.6495 34.4784 10.7277 34.8683 10.9122L34.4261 10.6121C34.0362 10.4276 33.6045 10.3495 33.1746 10.3855C32.7448 10.4216 32.3321 10.5706 31.9784 10.8174C30.9475 11.4751 30.0868 12.3674 29.4665 13.4213C28.8463 14.4751 28.4841 15.6608 28.4095 16.8814C28.3543 17.3273 28.4206 17.7798 28.6012 18.1911C28.7819 18.6025 29.0703 18.9575 29.436 19.2185L29.8308 19.4554L29.6886 19.3606V19.3291Z" fill="#FDFDFD"/>
<path d="M20.8643 13.5327C22.2721 13.1997 23.5447 12.4449 24.5121 11.3693C23.2219 10.7304 21.7695 10.4938 20.3432 10.6903C18.9353 11.0233 17.6627 11.778 16.6953 12.8537C17.9831 13.5003 19.4379 13.7372 20.8643 13.5327Z" fill="white"/>
<path d="M22.3611 9.87089L21.4609 9.33398C21.8173 9.51009 22.2065 9.60951 22.6037 9.62584C23.0008 9.64216 23.3969 9.57501 23.7665 9.42873L24.6666 9.96565C24.2954 10.1045 23.9002 10.1677 23.5043 10.1514C23.1083 10.1352 22.7196 10.0398 22.3611 9.87089Z" fill="#978866"/>
<path d="M21.6336 11.906L20.7334 11.3691H20.5913L21.4914 11.8903L21.6336 11.985V11.906Z" fill="#B09E77"/>
<path d="M21.4917 11.8122L20.5916 11.2911C20.3821 11.1392 20.2004 10.9522 20.0547 10.7384L20.9548 11.2595C21.1005 11.4734 21.2822 11.6604 21.4917 11.8122Z" fill="#CAB588"/>
<path d="M20.9591 11.2591L20.059 10.738C19.8725 10.4632 19.7337 10.1589 19.6484 9.83789L20.5486 10.359C20.6338 10.68 20.7726 10.9843 20.9591 11.2591Z" fill="#E3CB99"/>
<path d="M20.5483 10.3601L19.6481 9.83895C19.5516 9.45126 19.4986 9.05401 19.4902 8.65458C19.5264 7.60033 19.7733 6.56401 20.2166 5.60681L21.1168 6.12794C20.689 7.08761 20.4632 8.12504 20.4535 9.1757C20.4483 9.57504 20.4961 9.9733 20.5956 10.3601H20.5483Z" fill="#FCE2AA"/>
<path d="M21.0637 6.12797L20.2109 5.60684L20.3531 5.29102L21.2532 5.81213L21.1111 6.12797H21.0637Z" fill="#E3CB99"/>
<path d="M21.2038 5.81055C21.2038 6.079 20.4616 11.1481 24.6622 9.96373V11.5429C22.3092 12.901 20.3984 11.8113 20.3984 9.11099C20.4242 7.96544 20.6991 6.83922 21.2038 5.81055Z" fill="#928362"/>
</svg>
