<svg width="20" height="20" viewBox="0 0 20 20" fill="none" xmlns="http://www.w3.org/2000/svg">
<path opacity="0.2" d="M2 5C2 4.44772 2.44772 4 3 4H17.0644C17.5909 4 18.0272 4.40818 18.0622 4.93348L18.9289 17.9335C18.9674 18.5107 18.5096 19 17.9311 19H3C2.44772 19 2 18.5523 2 18V5Z" fill="black"/>
<path d="M1.93366 4.92875C1.97104 4.40545 2.40648 4 2.93112 4H16.926C17.5064 4 17.9648 4.49238 17.9235 5.07125L17.0663 17.0712C17.029 17.5946 16.5935 18 16.0689 18H2.07398C1.49363 18 1.03517 17.5076 1.07652 16.9288L1.93366 4.92875Z" fill="white"/>
<rect x="1" y="3" width="18" height="4" rx="1" fill="#F28275"/>
<path d="M6 3C6 1.89543 5.55228 1 5 1C4.44772 1 4 1.89543 4 3C4 4.10457 4.44772 5 5 5" stroke="#80796D"/>
<path d="M11 3C11 1.89543 10.5523 1 10 1C9.44772 1 9 1.89543 9 3C9 4.10457 9.44772 5 10 5" stroke="#80796D"/>
<path d="M16 3C16 1.89543 15.5523 1 15 1C14.4477 1 14 1.89543 14 3C14 4.10457 14.4477 5 15 5" stroke="#80796D"/>
</svg>
