<svg width="37" height="32" viewBox="0 0 37 32" fill="none" xmlns="http://www.w3.org/2000/svg">
<path d="M24.8472 29.5027L23.8607 28.9478L21.8877 30.0884L22.8434 30.6741L24.8472 29.5027Z" fill="#C96F1C"/>
<path d="M22.8437 30.8286L21.888 30.2737H21.7339L22.6896 30.8594H22.8437V30.8286Z" fill="#C96F1C"/>
<path d="M22.6895 30.8287L21.7338 30.2429C21.6118 30.352 21.5133 30.4847 21.4444 30.6332C21.3754 30.7816 21.3375 30.9425 21.333 31.1061L22.2887 31.661C22.3181 31.3445 22.4604 31.0491 22.6895 30.8287Z" fill="#FF8D23"/>
<path d="M22.2891 31.6916L21.3335 31.1367C21.3277 31.1932 21.3394 31.2501 21.367 31.2997C21.3945 31.3493 21.4366 31.3892 21.4876 31.4142L22.4741 31.9999C22.4229 31.9648 22.38 31.9191 22.348 31.8659C22.3161 31.8127 22.296 31.7533 22.2891 31.6916Z" fill="#FF8D23"/>
<path d="M24.8165 23.2755L23.8608 22.7206V28.9479L24.8473 29.5028L24.8165 23.2755Z" fill="#FF8D23"/>
<path d="M25.4947 22.9056L24.5082 22.3507L23.8608 22.7206L24.8165 23.2756L25.4947 22.9056Z" fill="#8E4E1E"/>
<path d="M24.8171 23.3059V29.4716L22.8132 30.6122C22.6527 30.7174 22.519 30.8585 22.4227 31.0244C22.3264 31.1903 22.2701 31.3764 22.2583 31.5679C22.2583 31.9379 22.5358 32.0612 22.844 31.907L25.0637 30.6122C25.1875 30.5461 25.2933 30.4509 25.3719 30.3348V30.119C25.3997 29.9661 25.3997 29.8094 25.3719 29.6565C25.412 29.547 25.412 29.4269 25.3719 29.3174V22.8435L24.8171 23.3059Z" fill="#FFCA00"/>
<path d="M20.5308 27.3758L19.5443 26.79L17.5713 27.9307L18.527 28.5164L20.5308 27.3758Z" fill="#C96F1C"/>
<path d="M18.5283 28.5164L17.5727 27.9615H17.3877L18.3742 28.5164H18.5283Z" fill="#C96F1C"/>
<path d="M18.374 28.6394L17.3875 28.0845C17.1625 28.3045 17.0301 28.6024 17.0176 28.9168L17.9732 29.4717C18.0027 29.1552 18.145 28.8598 18.374 28.6394Z" fill="#FF8D23"/>
<path d="M18.0659 29.5336L17.1102 28.9786C17.106 29.0391 17.1181 29.0996 17.1452 29.1539C17.1723 29.2081 17.2134 29.254 17.2643 29.2869L18.22 29.8418C18.1389 29.7568 18.0852 29.6495 18.0659 29.5336Z" fill="#FF8D23"/>
<path d="M20.5012 21.1481L19.5146 20.5624L19.5455 26.7897L20.532 27.3754L20.5012 21.1481Z" fill="#FF8D23"/>
<path d="M21.1794 20.7475L20.1929 20.1926L19.5146 20.5626L20.5012 21.1483L21.1794 20.7475Z" fill="#8E4E1E"/>
<path d="M20.5011 21.1481V27.3137L18.4973 28.4544C18.3368 28.5595 18.2031 28.7007 18.1068 28.8666C18.0105 29.0325 17.9542 29.2186 17.9424 29.41C17.9424 29.78 18.189 29.9341 18.4973 29.7491L20.7477 28.4544C20.8651 28.3795 20.9692 28.2858 21.056 28.1769V27.9611C21.0838 27.8083 21.0838 27.6516 21.056 27.4987C21.0961 27.3892 21.0961 27.2691 21.056 27.1596V20.6857L20.5011 21.1481Z" fill="#FFCA00"/>
<path d="M36.5011 3.2678L30.8595 0L12.2393 10.7282L17.8808 14.0269L36.5011 3.2678Z" fill="#624330"/>
<path d="M10.0502 18.8668L4.40869 15.5682C4.40869 15.8765 4.40869 16.1848 4.40869 16.4622L10.0502 19.7609C10.0502 19.4526 10.0502 19.1751 10.0502 18.8668Z" fill="#6E4C37"/>
<path d="M10.081 19.7609L4.43945 16.4623C4.46059 17.7242 4.78885 18.9619 5.39583 20.0684C6.0028 21.175 6.87024 22.1169 7.92306 22.8129L13.5646 26.0807C12.5085 25.3956 11.638 24.4602 11.0303 23.3577C10.4225 22.2552 10.0965 21.0197 10.081 19.7609Z" fill="#5E412F"/>
<path d="M15.2909 7.15234L9.64928 3.85369C9.11378 3.61128 8.52365 3.51495 7.93885 3.57451C7.35406 3.63407 6.79546 3.84741 6.31982 4.19281L11.9614 7.4606C12.4399 7.12016 12.9999 6.91234 13.5846 6.8582C14.1694 6.80406 14.758 6.90555 15.2909 7.15234Z" fill="#5E412F"/>
<path d="M11.8999 7.46054L6.25831 4.19275C5.77962 4.48345 5.3259 4.8134 4.90186 5.17923L10.5434 8.47788C10.9592 8.09281 11.4138 7.75187 11.8999 7.46054Z" fill="#5E412F"/>
<path d="M10.6053 8.47785L4.96374 5.1792C2.98712 7.02931 1.79545 9.56713 1.63428 12.2697C1.6486 12.4338 1.6486 12.5989 1.63428 12.763L7.27586 16.0616C7.27586 15.9075 7.27586 15.7225 7.27586 15.5375C7.43227 12.8426 8.62539 10.3128 10.6053 8.47785Z" fill="#6E4C37"/>
<path d="M7.30613 16.0615L1.66455 12.7628C1.67376 13.2573 1.80182 13.7424 2.03791 14.177C2.274 14.6116 2.61118 14.983 3.021 15.2599L8.81673 18.4969C8.40691 18.22 8.06973 17.8486 7.83364 17.414C7.59755 16.9794 7.46949 16.4943 7.46028 15.9998L7.30613 16.0615Z" fill="#5E412F"/>
<path d="M11.8996 7.46055C10.5682 8.34047 9.45816 9.51617 8.65602 10.8958C7.85388 12.2755 7.38137 13.8219 7.27539 15.4143C7.27539 17.6031 8.41602 18.8054 10.0499 18.7437C10.2349 26.2966 16.2156 29.0712 23.3061 24.9094C27.0565 22.5761 30.2051 19.3929 32.4973 15.6172C34.7895 11.8415 36.1609 7.57933 36.5006 3.17542L18.0036 13.9036L16.678 9.1253C16.1848 6.93649 14.2734 6.16576 11.8996 7.46055Z" fill="#8F6347"/>
<path d="M34.6199 6.16577C34.3127 9.49265 33.2295 12.7011 31.4573 15.5334C29.6851 18.3657 27.2734 20.7428 24.4158 22.4739C18.7742 25.7725 14.1808 23.8304 14.1191 18.1272L34.6199 6.16577Z" fill="#BD8C6D"/>
<path d="M6.22731 14.6434V15.6916L0 17.1714V16.1232L6.22731 14.6434Z" fill="#AC5F24"/>
<path d="M6.22731 14.6435L0 16.1233L2.49709 12.5164L6.22731 14.6435Z" fill="#FFCA00"/>
<path d="M11.6223 2.34299L10.6974 1.78809L9.71094 3.51447L10.605 4.03855L11.6223 2.34299Z" fill="#AC4139"/>
<path d="M14.0883 0.924813L13.1943 0.400737C13.0104 0.282564 12.7964 0.219727 12.5777 0.219727C12.3591 0.219727 12.1451 0.282564 11.9612 0.400737C11.4398 0.711822 11.0133 1.15956 10.728 1.69552L11.6221 2.2196C11.9074 1.68364 12.3338 1.2359 12.8552 0.924813C13.0391 0.806639 13.2531 0.743802 13.4717 0.743802C13.6904 0.743802 13.9044 0.806639 14.0883 0.924813Z" fill="#A33E36"/>
<path d="M7.12107 4.3776L6.22705 3.85352V5.54907L7.12107 6.07315V4.3776Z" fill="#943831"/>
<path d="M10.1116 1.26398L9.21758 0.739902C9.02544 0.628966 8.80747 0.570557 8.5856 0.570557C8.36373 0.570557 8.14576 0.628966 7.95361 0.739902L8.87847 1.26398C9.06593 1.15575 9.27857 1.09877 9.49503 1.09877C9.71149 1.09877 9.92412 1.15575 10.1116 1.26398Z" fill="#A33E36"/>
<path d="M7.12131 6.07308L6.22729 5.54899L5.20996 4.96326L6.13481 5.48734L7.12131 6.07308Z" fill="#7B2F29"/>
<path d="M8.81676 1.38736L7.8919 0.863281C7.37914 1.20221 6.95488 1.65889 6.65456 2.19518C6.35423 2.73147 6.18657 3.33181 6.16553 3.94611L7.05953 4.47018C7.08141 3.85256 7.25272 3.24944 7.55876 2.71253C7.86481 2.17561 8.29648 1.7209 8.81676 1.38736Z" fill="#A33E36"/>
<path d="M6.135 5.51839L5.24096 4.99432C5.05703 4.87614 4.84302 4.81335 4.6244 4.81335C4.40578 4.81335 4.19178 4.87614 4.00785 4.99432C3.48643 5.3054 3.05998 5.75314 2.77469 6.2891C2.06564 7.46058 2.09646 8.72458 2.77469 9.12535L3.66873 9.64942C2.99051 9.24865 2.99051 7.9847 3.66873 6.81322C3.95403 6.27726 4.38043 5.82948 4.90185 5.51839C5.08577 5.40022 5.29978 5.33743 5.5184 5.33743C5.73702 5.33743 5.95108 5.40022 6.135 5.51839Z" fill="#A33E36"/>
<path d="M8.81729 1.38736C8.297 1.7209 7.86533 2.17561 7.55929 2.71253C7.25325 3.24945 7.08193 3.85256 7.06005 4.47019V6.16575L6.07357 5.61087C5.88964 5.49269 5.67564 5.42986 5.45701 5.42986C5.23839 5.42986 5.02439 5.49269 4.84046 5.61087C4.31904 5.92195 3.89259 6.36969 3.6073 6.90565C2.92908 8.07712 2.92908 9.34108 3.6073 9.74185L4.74793 10.3892C5.93905 9.10872 7.30982 8.00798 8.81729 7.12142C10.0692 6.36041 11.4653 5.86706 12.9175 5.67249L14.0273 3.73034C14.7055 2.52804 14.7055 1.26404 14.0273 0.894098C13.8433 0.775925 13.6293 0.713135 13.4107 0.713135C13.1921 0.713135 12.978 0.775925 12.7941 0.894098C12.2727 1.20518 11.8463 1.65297 11.561 2.18893L10.5745 3.9153V2.21974C10.6053 1.26406 9.83462 0.832453 8.81729 1.38736Z" fill="#E7584C"/>
<path d="M12.054 11.4064C11.8074 11.4064 11.4375 11.4064 11.1908 11.9304C10.9442 12.4545 10.9442 12.7936 11.1908 12.9478C11.4375 13.1019 11.8074 12.9478 12.054 12.4237C12.3006 11.8996 12.3006 11.5605 12.054 11.4064Z" fill="#120803"/>
</svg>
