<svg width="47" height="47" viewBox="0 0 47 47" fill="none" xmlns="http://www.w3.org/2000/svg">
<path d="M11.2778 26.2089C14.6946 26.2089 18.1096 26.2089 21.5265 26.2089C21.8231 26.2089 22.3074 26.452 22.3235 25.8301C22.336 25.2779 21.95 25.2743 21.5354 25.2403C18.4813 24.9812 15.8401 23.9161 14.0852 21.2517C12.9236 19.4861 12.5216 17.4989 12.6055 15.4134C12.6341 14.686 12.9951 14.1946 13.7636 14.0677C14.9012 13.8515 16.0695 13.8515 17.2072 14.0677C17.9613 14.2321 18.3062 14.0785 18.5689 13.3529C19.3219 11.2548 20.5494 9.35888 22.1555 7.81307C22.9507 7.04107 23.5512 6.99818 24.4179 7.68977C26.2443 9.148 27.4845 11.0458 28.3494 13.1796C28.5782 13.7407 28.8123 13.8765 29.3805 13.7907C30.6457 13.6134 31.9316 13.6484 33.1852 13.8944C33.9804 14.0409 34.4075 14.5234 34.6148 15.2829C35.41 18.2959 34.1359 21.3088 31.3409 23.053C29.6964 24.0616 27.888 24.7747 25.9977 25.1599C25.6688 25.2296 25.1041 24.9902 25.1649 25.7443C25.2346 26.5342 25.8029 26.2089 26.1531 26.2107C32.5579 26.2298 38.9639 26.2351 45.371 26.2268C46.756 26.2268 46.8007 26.4234 46.4432 27.7619C46.0858 29.0682 45.8464 30.4138 45.3442 31.6701C41.8434 40.4141 35.4511 45.6198 26.0834 46.8225C16.0653 48.1092 6.16146 42.2887 2.1138 33.0158C1.25955 31.0587 0.643376 29.0062 0.278507 26.9023C0.149839 26.166 0.457211 26.2036 0.943288 26.2036C4.38871 26.2107 7.83354 26.2125 11.2778 26.2089ZM24.8414 30.3799C24.8414 32.8263 24.8414 35.0459 24.8414 37.2672C24.858 37.4124 24.9035 37.5528 24.9755 37.68C25.8797 39.6457 26.8054 41.5954 27.6864 43.5772C27.8794 44.0115 28.0957 44.192 28.5585 44.0508C30.0913 43.5938 31.5853 43.0154 33.0261 42.3209C33.4729 42.1011 33.4925 41.8688 33.2888 41.4399C32.7438 40.2908 32.2863 39.1024 31.7412 37.9552C31.4374 37.3172 31.332 36.5505 30.8191 36.052C28.8891 34.1791 26.9216 32.3546 24.8414 30.3799ZM22.504 30.6033C22.1734 30.857 22.0018 30.9607 21.8607 31.1001C20.2976 32.619 18.7375 34.141 17.1804 35.666C17.0038 35.8228 16.8599 36.0129 16.7569 36.2253C15.9634 38.1321 15.2003 40.0496 14.4015 41.9439C14.2228 42.3674 14.2979 42.5854 14.716 42.7659C16.1731 43.4193 17.6977 43.9101 19.2623 44.2295C19.6197 44.2974 19.8306 44.2188 19.9628 43.8899C20.7795 41.8616 21.6015 39.8369 22.4057 37.814C22.4788 37.5886 22.5109 37.352 22.5004 37.1153C22.5004 35.0262 22.4968 32.9246 22.4968 30.6086L22.504 30.6033ZM41.5628 34.0987C41.545 33.8146 41.2733 33.8217 41.0499 33.7913C40.3494 33.6931 39.64 33.643 38.9466 33.5108C37.5652 33.2481 36.1052 33.3321 34.8149 32.6816C33.6587 32.099 32.5543 31.4128 31.4196 30.7891C30.0543 30.0403 28.6639 29.3362 27.3219 28.5499C26.9162 28.3123 26.7375 28.5696 26.5356 28.7286C26.5004 28.7663 26.4749 28.8118 26.4611 28.8614C26.4474 28.911 26.4457 28.9631 26.4564 29.0135C26.4671 29.0638 26.4898 29.1108 26.5226 29.1505C26.5553 29.1902 26.5972 29.2215 26.6446 29.2415C28.0742 30.0028 28.9892 31.3717 30.2347 32.3528C31.0854 33.0229 31.684 34.0219 32.7545 34.3954C34.8811 35.1352 37.0219 35.825 39.1592 36.5398C39.3501 36.6125 39.554 36.6441 39.7579 36.6328C39.9992 36.6059 41.5503 34.4222 41.5557 34.1041L41.5628 34.0987ZM5.29832 34.5544C5.93629 35.3729 6.53316 36.1288 7.11753 36.8937C7.38559 37.2511 7.67151 37.1027 7.98603 36.9866C9.866 36.2843 11.7388 35.573 13.6367 34.91C14.5314 34.6317 15.3456 34.1412 16.0099 33.4804C17.0553 32.3921 18.1883 31.386 19.2265 30.2941C19.7216 29.7759 20.3703 29.3845 20.7277 28.7072C20.2898 28.5553 20.0003 28.759 19.6894 28.9431C18.0918 29.892 16.4602 30.7873 14.8894 31.7773C13.4204 32.7048 11.8943 33.3982 10.1519 33.6448C8.56146 33.8646 6.95312 34.0701 5.29832 34.5544ZM15.0127 28.6464C11.2224 28.6464 7.43205 28.6464 3.64173 28.6464C3.12348 28.6464 2.97694 28.7358 3.1217 29.2987C3.32721 30.1065 3.71678 30.8409 3.94195 31.6308C4.09206 32.1669 4.37441 32.2456 4.85692 32.1526C6.27047 31.8738 7.68581 31.5415 9.11545 31.3967C11.4082 31.1644 13.2525 30.0386 15.0127 28.6464ZM32.4811 28.6321C33.5265 29.481 35.8764 30.7105 36.6038 30.8213C37.9512 31.0268 39.3004 31.2377 40.6514 31.4217C43.089 31.7523 43.0782 31.7416 43.7144 29.3041C43.8502 28.7858 43.861 28.6036 43.198 28.6125C39.6739 28.6554 36.1624 28.6321 32.4757 28.6321H32.4811ZM32.0254 17.0164C32.1147 16.6429 31.8967 16.5821 31.5911 16.5446C30.7333 16.4544 29.866 16.5408 29.0428 16.7983C27.077 17.3684 25.29 19.8256 25.2578 21.9254C25.2578 22.3811 25.4365 22.2828 25.7493 22.2202C27.2053 21.9436 28.5905 21.3759 29.8219 20.5511C31.0496 19.6898 31.9986 18.6336 32.02 17.0217L32.0254 17.0164ZM23.4118 18.3173C24.0176 17.0503 24.7021 16.0656 25.6903 15.3133C25.9673 15.1006 26.2586 14.9023 26.062 14.4448C25.5009 13.1385 24.8629 11.8858 23.9175 10.7992C23.5923 10.4239 23.4047 10.4668 23.1205 10.826C22.1669 12.0352 21.42 13.3939 20.9099 14.8469C20.8349 15.0613 20.6258 15.3222 20.8724 15.4992C21.8875 16.2301 22.5987 17.2415 23.4118 18.3173ZM16.16 16.7805C15.3076 16.6447 15.5059 17.2594 15.6078 17.7312C16.1439 20.2616 17.9095 21.8414 20.6508 22.2756C21.0493 22.3382 21.6033 22.5669 21.8374 22.2935C22.1305 21.9504 21.7034 21.4858 21.5872 21.0747C21.5423 20.9339 21.4886 20.796 21.4264 20.6619C20.4435 18.3566 18.803 16.9342 16.16 16.7805ZM13.6581 37.4923C12.1715 37.9579 10.7106 38.5019 9.28164 39.1221C10.1341 40.0156 11.0687 40.6697 12.0784 41.313C12.5912 40.0621 13.0898 38.8558 13.6528 37.4923H13.6581ZM22.2359 44.603C23.2492 44.603 24.1624 44.6173 25.0738 44.5905C25.2525 44.5905 25.676 44.6441 25.5062 44.2491C25.0059 43.084 24.4572 41.9403 23.8461 40.6125C23.2599 42.0689 22.7649 43.2984 22.2377 44.603H22.2359ZM33.8839 37.2278L35.3511 40.5017C35.444 40.709 35.5691 40.759 35.7585 40.6054C36.5198 39.9888 37.3436 39.4384 38.0173 38.5788L33.8839 37.2278Z" fill="url(#paint0_linear_11979_2585)"/>
<path d="M3.19498 17.1557C3.58098 17.9188 2.96981 18.5532 2.88225 19.2573C2.74107 20.41 2.50161 21.5483 2.52484 22.717C2.52484 23.1459 2.39617 23.271 1.92082 23.3103C-0.0270604 23.4694 -0.0449309 23.4998 0.0158287 21.6412C0.106968 18.8409 0.909351 16.2301 2.04055 13.6746C3.34867 10.7063 5.26974 8.20265 7.61792 6.03675C9.64051 4.17574 11.991 2.70632 14.5499 1.70317C16.7998 0.809645 19.1569 0.375393 21.5783 0.0769561C23.2135 -0.123193 24.7575 0.119845 26.339 0.210984C28.0778 0.311059 29.7076 0.89721 31.3427 1.42439C34.2789 2.36795 36.7628 4.10496 39.0896 6.03318C40.2136 6.9678 41.1322 8.17763 42.0614 9.31777C43.1566 10.7122 44.0738 12.2376 44.792 13.8587C45.6113 15.6075 46.1953 17.457 46.529 19.3592C46.7135 20.303 46.8329 21.2583 46.8865 22.2184C46.9007 22.6616 46.8025 22.9208 46.2949 22.8135C46.2355 22.8073 46.1756 22.8073 46.1162 22.8135C44.3667 22.8564 44.4954 22.8368 44.2309 21.1409C43.9927 19.4054 43.5734 17.6996 42.98 16.0514C41.9299 13.2612 40.2698 10.7408 38.121 8.67443C37.8905 8.44926 37.4794 8.24018 37.3579 8.06862C36.8325 7.33236 36.107 6.86058 35.4065 6.37987C34.538 5.79014 33.6016 5.30764 32.6866 4.78403C32.5579 4.71076 32.4167 4.49989 32.238 4.72506C32.2259 4.75217 32.2186 4.78121 32.2166 4.81084C32.2166 4.79476 32.2434 4.76795 32.238 4.76259C31.5232 3.98165 30.4385 3.86907 29.57 3.37227C29.3818 3.27982 29.1878 3.19982 28.9892 3.1328C23.0097 1.52804 17.3805 2.32327 12.1106 5.56319C10.4325 6.59252 8.99573 7.906 7.62864 9.31598C6.28836 10.6974 5.44666 12.3986 4.46915 14.0052C3.96699 14.8326 3.43266 15.7082 3.52916 16.7715C3.54703 16.9627 3.34688 17.0592 3.19498 17.1557Z" fill="#F8D518"/>
<defs>
<linearGradient id="paint0_linear_11979_2585" x1="5.46719" y1="44.5127" x2="41.8721" y2="-1.84111" gradientUnits="userSpaceOnUse">
<stop stop-color="#FFE03D"/>
<stop offset="0.11" stop-color="#FFCB05"/>
<stop offset="0.55" stop-color="#A6CE39"/>
<stop offset="0.85" stop-color="#6AA744"/>
<stop offset="1" stop-color="#248341"/>
</linearGradient>
</defs>
</svg>
