<svg width="32" height="32" viewBox="0 0 32 32" fill="none" xmlns="http://www.w3.org/2000/svg">
<path d="M1.38941 22.2257L3.93623 20.7366V22.2118L1.37549 23.7009L1.38941 22.2257Z" fill="#A15951"/>
<path d="M4.04762 25.538L6.60836 24.0488C6.61583 24.1003 6.60792 24.1529 6.58564 24.1999C6.56336 24.247 6.52769 24.2864 6.48311 24.3133L3.92236 25.8024C3.96573 25.7743 4.00042 25.7347 4.02254 25.688C4.04466 25.6413 4.05334 25.5893 4.04762 25.538Z" fill="#5F4543"/>
<path d="M1.38965 22.2257L3.93648 20.7366L6.27455 22.0865L3.7138 23.5757L1.38965 22.2257Z" fill="#4F3A37"/>
<path d="M3.74139 23.5896L4.04757 25.538C4.04757 25.8024 3.86665 25.9137 3.63006 25.7746L1.80692 24.7169C1.68248 24.6394 1.57839 24.5333 1.50333 24.4074C1.42828 24.2815 1.38444 24.1395 1.37549 23.9932V22.2257L3.69964 23.6174L3.74139 23.5896Z" fill="#8A6461"/>
<path d="M3.7417 23.5895L6.30245 22.1003L6.60862 24.0487L4.04787 25.5379L3.7417 23.5895Z" fill="#5D4441"/>
<path d="M3.71387 23.5756L6.27461 22.0864L6.30245 22.1003L3.7417 23.5895L3.71387 23.5756Z" fill="#4F3A37"/>
<path d="M1.44531 15.6428L3.99214 14.1537C4.40486 14.1798 4.80119 14.3248 5.13334 14.5712L2.5726 16.0603C2.07158 15.7681 1.58448 15.5593 1.44531 15.6428Z" fill="#A95D55"/>
<path d="M3.7417 17.0624L6.28853 15.5732L6.27461 22.0864L3.71387 23.5756L3.7417 17.0624Z" fill="#A15951"/>
<path d="M2.57284 16.0604C3.15736 16.3944 3.74188 16.8397 3.74188 17.0624V23.5756L1.41772 22.1839V23.6591V15.6707C1.40381 15.4898 1.98833 15.7264 2.57284 16.0604Z" fill="#F4877B"/>
<path d="M2.57227 16.0604L5.13301 14.5295C5.71753 14.8636 6.28813 15.3089 6.28813 15.5316L3.7413 17.0207C3.7413 16.798 3.15678 16.3527 2.57227 16.0187V16.0604Z" fill="#A95D55"/>
<path d="M11.8552 28.3909L14.4021 26.9017V28.3909L11.8413 29.8661L11.8552 28.3909Z" fill="#A15951"/>
<path d="M14.5137 31.7031L17.0744 30.214C17.0829 30.2675 17.0756 30.3224 17.0534 30.3719C17.0311 30.4213 16.9949 30.4632 16.9492 30.4923L14.4023 31.9675C14.4432 31.9377 14.4751 31.8974 14.4947 31.8508C14.5143 31.8042 14.5209 31.7531 14.5137 31.7031Z" fill="#5F4543"/>
<path d="M11.8555 28.3909L14.4023 26.9017L16.7404 28.2517L14.1796 29.7408L11.8555 28.3909Z" fill="#4F3A37"/>
<path d="M14.2214 29.7547L14.5276 31.7031C14.5276 31.9676 14.3466 32.0789 14.11 31.9397L12.2869 30.8959C12.1629 30.8146 12.0595 30.7057 11.9846 30.5778C11.9098 30.4498 11.8656 30.3062 11.8555 30.1583V28.4465L14.1796 29.8382L14.2214 29.7547Z" fill="#8A6461"/>
<path d="M14.207 29.7548L16.7678 28.2656L17.074 30.214L14.5132 31.7031L14.207 29.7548Z" fill="#5D4441"/>
<path d="M14.1792 29.7408L16.7399 28.2517L16.7678 28.2656L14.207 29.7548L14.1792 29.7408Z" fill="#4F3A37"/>
<path d="M11.9111 21.808L14.458 20.3328C14.5971 20.2493 15.0981 20.4581 15.5992 20.7364L13.0384 22.2255C12.5374 21.9472 12.0503 21.7384 11.9111 21.808Z" fill="#A95D55"/>
<path d="M14.207 23.2275L16.7539 21.7384L16.7399 28.2516L14.1792 29.7407L14.207 23.2275Z" fill="#A15951"/>
<path d="M13.0382 22.2256C13.6227 22.5597 14.2072 23.005 14.2072 23.2277V29.7409L11.8831 28.3492V29.8383V21.8499C11.8691 21.669 12.4537 21.8916 13.0382 22.2256Z" fill="#F4877B"/>
<path d="M13.0381 22.2256L15.6127 20.7365C16.1973 21.0844 16.7818 21.5297 16.7679 21.7385L14.221 23.2276C14.221 23.0049 13.6365 22.5596 13.052 22.2256H13.0381Z" fill="#A95D55"/>
<path d="M19.0503 24.3409L21.611 22.8518L21.5971 24.327L19.0503 25.8161V24.3409Z" fill="#A15951"/>
<path d="M21.7224 27.6532L24.2693 26.1641C24.2767 26.2156 24.2688 26.2681 24.2465 26.3152C24.2243 26.3622 24.1886 26.4016 24.144 26.4285L21.5972 27.9176C21.6385 27.8875 21.6715 27.8475 21.6934 27.8013C21.7153 27.7552 21.7253 27.7042 21.7224 27.6532Z" fill="#5F4543"/>
<path d="M19.0503 24.3409L21.611 22.8518L23.9352 24.2018L21.3884 25.6909L19.0503 24.3409Z" fill="#4F3A37"/>
<path d="M21.4162 25.6632L21.7224 27.6116C21.7224 27.876 21.5275 27.9874 21.2909 27.8482L19.4678 26.7905C19.3452 26.7123 19.2432 26.6057 19.1705 26.4797C19.0978 26.3537 19.0566 26.2121 19.0503 26.0668V24.2993L21.3884 25.691L21.4162 25.6632Z" fill="#8A6461"/>
<path d="M21.4165 25.7049L23.9633 24.2158L24.2695 26.1642L21.7088 27.6533L21.4165 25.7049Z" fill="#5D4441"/>
<path d="M21.3882 25.6909L23.935 24.2018L23.9628 24.2157L21.416 25.7048L21.3882 25.6909Z" fill="#4F3A37"/>
<path d="M19.106 17.7582L21.6667 16.2691C21.792 16.1995 22.293 16.4083 22.794 16.6866L20.2332 18.1757C19.7322 17.8835 19.2451 17.6747 19.106 17.7582Z" fill="#A95D55"/>
<path d="M21.4021 19.1777L23.9628 17.6886L23.935 24.2018L21.3882 25.6909L21.4021 19.1777Z" fill="#A15951"/>
<path d="M20.2335 18.1757C20.818 18.5097 21.4025 18.955 21.4025 19.1777V25.6631L19.0645 24.2714V17.7582C19.0645 17.6051 19.649 17.8417 20.2335 18.1757Z" fill="#F4877B"/>
<path d="M20.2334 18.1756L22.7941 16.6865C23.3787 17.0205 23.9632 17.4659 23.9632 17.6886L21.4024 19.1777C21.4024 18.955 20.8179 18.5097 20.2334 18.1756Z" fill="#A95D55"/>
<path d="M3.49104 10.8692C2.97009 10.6597 2.49675 10.3474 2.09933 9.95071C1.52564 9.44006 1.13465 8.75582 0.985959 8.0023C0.964703 7.83598 0.964703 7.66762 0.985959 7.50129C0.885233 7.36758 0.792299 7.22817 0.707618 7.08377C0.280058 6.33094 0.0412932 5.48573 0.0117633 4.62046C-0.00392109 4.519 -0.00392109 4.41574 0.0117633 4.31428C0.0117633 4.10553 0.276186 4.10553 0.484942 4.31428C0.579128 4.40191 0.651004 4.51078 0.694579 4.63182C0.738155 4.75286 0.752168 4.88258 0.73545 5.01014C0.73545 5.01014 0.73545 5.09363 0.73545 5.13539C0.771193 5.68958 0.922916 6.23009 1.1808 6.72193C1.36172 6.36009 1.62615 6.09568 1.97407 6.12351C2.322 6.15134 2.64209 6.2905 3.07352 7.27861C3.50495 8.26672 3.26836 8.58682 2.96219 8.67032C2.73567 8.69474 2.50656 8.6701 2.29042 8.59805C2.07429 8.52601 1.87621 8.40827 1.70965 8.25282C1.8462 8.73771 2.1461 9.16053 2.55859 9.4497C3.15703 9.93679 3.68588 10.0481 3.7833 9.97853C3.88072 9.90895 3.88071 9.60277 4.07555 9.65844C4.19505 9.71325 4.29936 9.79641 4.3794 9.9007C4.45943 10.005 4.51279 10.1273 4.53482 10.2569C4.53482 10.577 4.53482 10.8275 4.29823 10.9249C4.03155 11.0069 3.74394 10.987 3.49104 10.8692ZM1.90449 7.45954C2.07531 7.61559 2.29943 7.70025 2.53076 7.69613C2.53076 7.69613 2.53076 7.69613 2.46117 7.37604C2.39158 7.05595 2.30808 7.08377 2.29417 7.08377C2.28025 7.08377 2.22458 7.08377 2.12716 7.08377C2.02037 7.18662 1.94343 7.31648 1.90449 7.45954Z" fill="#FD7D70"/>
<path d="M24.3109 7.5709L23.2671 6.95855C24.9015 4.24648 27.053 1.88215 29.5994 0L30.6571 0.612356C28.1008 2.48764 25.9434 4.85314 24.3109 7.5709Z" fill="#A9534B"/>
<path d="M24.311 7.57098C25.9436 4.85321 28.1009 2.48771 30.6572 0.612427C30.2903 3.76549 29.3067 6.81557 27.7625 9.58895L24.311 7.57098Z" fill="#FA7C6F"/>
<path d="M24.8953 19.2613C23.3783 24.0209 16.7816 26.2199 10.171 24.0488C3.5604 21.8777 -0.545148 16.3526 0.971816 11.5234C2.48878 6.69416 9.0994 4.56484 15.6961 6.73591C22.2928 8.90698 26.4262 14.5295 24.8953 19.2613Z" fill="#FD8C7F"/>
<path d="M31.8401 13.2631C31.8401 14.8375 31.3732 16.3766 30.4985 17.6858C29.6238 18.9949 28.3805 20.0152 26.9259 20.6177C25.4713 21.2202 23.8707 21.3779 22.3265 21.0707C20.7823 20.7635 19.3639 20.0054 18.2505 18.8921C17.1372 17.7788 16.3791 16.3603 16.0719 14.8161C15.7647 13.2719 15.9224 11.6713 16.5249 10.2167C17.1274 8.7621 18.1478 7.51884 19.4569 6.64412C20.766 5.7694 22.3051 5.3025 23.8795 5.3025C24.9254 5.30067 25.9614 5.50532 26.9281 5.90473C27.8947 6.30414 28.773 6.89044 29.5126 7.63001C30.2522 8.36958 30.8385 9.24789 31.2379 10.2145C31.6373 11.1812 31.8419 12.2172 31.8401 13.2631Z" fill="#FDAC9E"/>
<path d="M31.687 13.6109C31.6301 14.6699 31.3246 15.7005 30.795 16.6193C30.2655 17.5382 29.5269 18.3193 28.6392 18.8994C26.9552 19.8597 25.5913 19.0803 25.5913 17.1319C25.6482 16.073 25.9538 15.0423 26.4833 14.1235C27.0128 13.2047 27.7514 12.4235 28.6392 11.8434C30.3231 10.8692 31.687 11.6625 31.687 13.6109Z" fill="#FECCBD"/>
<path d="M28.2636 16.2691C28.2434 16.5504 28.1574 16.8229 28.0123 17.0647C27.8672 17.3065 27.6672 17.5107 27.4285 17.6608C26.9693 17.9392 26.6074 17.6608 26.6074 17.1877C26.6291 16.9084 26.7144 16.6379 26.8567 16.3967C26.9991 16.1555 27.1946 15.95 27.4285 15.7959C27.9017 15.5176 28.2636 15.7403 28.2636 16.2691Z" fill="#FD7D70"/>
<path d="M29.8779 15.3367C29.8779 15.8655 30.2537 16.0882 30.713 15.8238C30.9487 15.6705 31.1465 15.4655 31.2911 15.2243C31.4358 14.9832 31.5237 14.7122 31.548 14.432C31.548 13.9032 31.1722 13.6805 30.713 13.945C30.4772 14.0983 30.2795 14.3033 30.1348 14.5444C29.9901 14.7855 29.9022 15.0565 29.8779 15.3367Z" fill="#FD7D70"/>
<path d="M13.6925 8.96257L12.6348 8.36415C12.8296 8.26673 16.3785 6.65234 18.9949 8.03013L20.0526 8.64249C17.4222 7.25078 13.8734 8.87907 13.6925 8.96257Z" fill="#A9534B"/>
<path d="M16.6151 14.5294L15.5713 13.9171C13.0384 12.3723 12.6626 8.50331 12.6348 8.35022L13.6925 8.94867C13.6925 9.15742 14.0961 13.0125 16.6151 14.5155V14.5294Z" fill="#A9534B"/>
<path d="M13.6924 8.96264C13.8733 8.87914 17.4222 7.26476 20.0525 8.64256L16.615 14.5295C14.096 12.9847 13.7063 9.12965 13.6924 8.96264Z" fill="#FA7C6F"/>
</svg>
