<svg width="24" height="24" viewBox="0 0 24 24" fill="none" xmlns="http://www.w3.org/2000/svg">
<path d="M8.20681 12.5506C8.24751 11.0445 6.97389 10.6052 5.4577 10.4251C3.9415 10.245 2.74634 11.043 2.70858 12.5506C2.67081 14.0581 3.9415 15.7086 5.4577 15.8887C6.97389 16.0688 8.16678 14.0614 8.20681 12.5506Z" fill="#C9AC78"/>
<path d="M21.4068 12.5506C21.4475 11.0445 20.1739 10.6052 18.6577 10.4251C17.1415 10.245 15.9463 11.043 15.9086 12.5506C15.8708 14.0581 17.1415 15.7086 18.6577 15.8887C20.1739 16.0688 21.3668 14.0614 21.4068 12.5506Z" fill="#C9AC78"/>
<path d="M19.2053 11.7817C19.3111 6.96229 15.9997 5.55655 12.0576 4.98028C8.11549 4.40402 5.00808 6.95766 4.90988 11.7817C4.81169 16.6058 8.11549 21.8876 12.0576 22.4638C15.9997 23.0401 19.1012 16.6165 19.2053 11.7817Z" fill="#FFEBC8"/>
<path d="M17.006 19.2856C17.0793 18.9979 14.7868 21.3972 12.0576 21.002C9.3285 20.6067 7.17721 18.9948 7.10923 19.2856C7.04126 20.331 9.3285 22.0358 12.0576 22.4311C14.7868 22.8264 16.934 20.3384 17.006 19.2856Z" fill="#887C67"/>
<path d="M11.5068 16.148C11.5475 15.4193 10.2738 16.5373 8.75753 16.4502C7.24125 16.363 4.94596 18.0797 4.90819 18.8092C4.87043 19.5386 7.24125 19.0066 8.75753 19.0937C10.2738 19.1809 11.4668 16.879 11.5068 16.148Z" fill="#887C67"/>
<path d="M11.5089 16.148C11.4614 15.4193 12.9474 16.5373 14.7163 16.4502C16.4853 16.363 19.1632 18.0797 19.2072 18.8092C19.2513 19.5386 16.4853 19.0066 14.7163 19.0937C12.9474 19.1809 11.5556 16.879 11.5089 16.148Z" fill="#887C67"/>
<path d="M2.37648 9.71492C5.71393 11.3453 12.7587 11.8804 18.0787 10.9138C23.3987 9.9471 25.004 7.83232 21.6537 6.20262C18.3034 4.57292 11.2715 4.03715 5.9515 5.00381C0.631482 5.97046 -0.97418 8.07994 2.37648 9.71492Z" fill="#FFC45B"/>
<path d="M5.67744 7.72751C7.85329 8.99436 12.3976 9.4557 15.8309 8.74967C17.8785 8.32674 19.069 7.58002 19.2229 6.7809C19.3269 6.23997 19.1188 3.18615 18.2481 2.67457C16.0656 1.402 8.44583 -0.0333527 5.86763 2.2616C4.75086 3.25363 4.49267 5.45125 4.53174 6.33705C4.54683 6.80452 4.91779 7.28888 5.67744 7.72751Z" fill="#F2A93F"/>
<path d="M5.68873 7.8841C7.85563 9.02691 12.3953 9.4246 15.832 8.76482C17.8816 8.36963 19.0765 7.68384 19.2354 6.95544C19.3429 6.46238 19.2854 5.49331 18.4183 5.03178C15.9657 6.50431 6.80257 5.73309 5.11821 4.82942C4.64213 5.31009 4.51909 5.81727 4.55243 6.62364C4.56449 7.04923 4.93219 7.48844 5.68873 7.8841Z" fill="#F46A6F"/>
<path d="M6.53733 3.38484C8.41084 4.24461 12.4444 4.6089 15.5493 4.20336C18.6542 3.79781 19.6467 2.74319 17.7749 1.90802C15.9032 1.07284 11.8743 0.6836 8.76943 1.08914C5.66455 1.49468 4.66382 2.52507 6.53733 3.38484Z" fill="#FFD77E"/>
<circle cx="8.20776" cy="13.7" r="1.1" fill="#5F5454"/>
<circle cx="15.9077" cy="13.7" r="1.1" fill="#5F5454"/>
</svg>
