<svg width="32" height="32" viewBox="0 0 32 32" fill="none" xmlns="http://www.w3.org/2000/svg">
<mask id="mask0_12035_14097" style="mask-type:alpha" maskUnits="userSpaceOnUse" x="0" y="0" width="32" height="32">
<circle cx="16" cy="16" r="16" fill="#D9D9D9"/>
</mask>
<g mask="url(#mask0_12035_14097)">
<circle cx="16" cy="16" r="16" fill="#EAF4FF"/>
</g>
<path d="M13.4712 17.367C13.4983 16.363 12.6493 16.0701 11.6385 15.9501C10.6277 15.83 9.8309 16.362 9.80572 17.367C9.78055 18.3721 10.6277 19.4724 11.6385 19.5925C12.6493 19.7125 13.4445 18.3743 13.4712 17.367Z" fill="#DFCAA5"/>
<path d="M22.2713 17.367C22.2984 16.363 21.4493 16.0701 20.4385 15.9501C19.4277 15.83 18.6309 16.362 18.6058 17.367C18.5806 18.3721 19.4277 19.4724 20.4385 19.5925C21.4493 19.7125 22.2446 18.3743 22.2713 17.367Z" fill="#DFCAA5"/>
<path d="M20.8034 16.8544C20.874 13.6414 18.6664 12.7043 16.0383 12.3201C13.4102 11.9359 11.3386 13.6384 11.2732 16.8544C11.2077 20.0704 13.4102 22.5916 16.0383 22.9758C18.6664 23.36 20.734 20.0776 20.8034 16.8544Z" fill="#FFEBC8"/>
<path d="M9.58419 15.4767C11.8092 16.5637 16.5057 16.9204 20.0523 16.276C23.599 15.6315 24.6692 14.2217 22.4357 13.1352C20.2022 12.0487 15.5142 11.6916 11.9675 12.336C8.42085 12.9804 7.35041 14.3867 9.58419 15.4767Z" fill="#FFC45B"/>
<path d="M11.785 14.1517C13.2355 14.9963 16.265 15.3038 18.5539 14.8332C19.919 14.5512 20.7127 14.0534 20.8152 13.5206C20.8846 13.16 20.7459 11.1241 20.1654 10.7831C18.7104 9.93471 13.6305 8.97781 11.9118 10.5078C11.1672 11.1691 10.9951 12.6342 11.0212 13.2247C11.0312 13.5364 11.2785 13.8593 11.785 14.1517Z" fill="#F2A93F"/>
<path d="M11.7924 14.2561C13.237 15.0179 16.2635 15.2831 18.5546 14.8432C19.921 14.5798 20.7176 14.1226 20.8236 13.637C20.8953 13.3083 20.8569 12.6622 20.2788 12.3545C18.6437 13.3362 12.535 12.8221 11.4121 12.2196C11.0947 12.5401 11.0127 12.8782 11.0349 13.4158C11.043 13.6995 11.2881 13.9923 11.7924 14.2561Z" fill="#F46A6F"/>
<path d="M12.3581 11.2566C13.6071 11.8298 16.2962 12.0726 18.3661 11.8023C20.4361 11.5319 21.0977 10.8288 19.8499 10.2721C18.602 9.71527 15.9161 9.45577 13.8462 9.72613C11.7763 9.9965 11.1091 10.6834 12.3581 11.2566Z" fill="#FFD77E"/>
<circle cx="13.4719" cy="18.1334" r="0.733333" fill="#5F5454"/>
<circle cx="18.6052" cy="18.1334" r="0.733333" fill="#5F5454"/>
</svg>
