<svg width="24" height="24" viewBox="0 0 24 24" fill="none" xmlns="http://www.w3.org/2000/svg">
<path d="M18.25 20C18.25 20.076 18.2183 20.2321 17.9882 20.4653C17.7538 20.7028 17.3651 20.9625 16.8058 21.2022C15.6909 21.68 14.0808 22 12.25 22C10.4192 22 8.80915 21.68 7.69417 21.2022C7.1349 20.9625 6.7462 20.7028 6.51184 20.4653C6.28173 20.2321 6.25 20.076 6.25 20C6.25 19.924 6.28173 19.7679 6.51184 19.5347C6.7462 19.2972 7.1349 19.0375 7.69417 18.7978C8.80915 18.32 10.4192 18 12.25 18C14.0808 18 15.6909 18.32 16.8058 18.7978C17.3651 19.0375 17.7538 19.2972 17.9882 19.5347C18.2183 19.7679 18.25 19.924 18.25 20Z" fill="url(#paint0_linear_11980_2976)" stroke="#EFA918" stroke-width="2"/>
<path d="M10.25 8C10.25 9.46016 8.6789 11 6.25 11C5.19985 11 4.19724 10.4876 3.43716 9.69281C2.66694 8.88747 2.25 7.9016 2.25 7.11111C2.25 6.42569 2.56056 5.95586 3.19934 5.60171C3.8951 5.21598 4.95247 5 6.25 5C8.6789 5 10.25 6.53984 10.25 8Z" stroke="#EFA918" stroke-width="2"/>
<path d="M22.25 8C22.25 8.70581 21.8586 9.43228 21.0509 10.0197C20.2442 10.6064 19.0804 11 17.75 11C16.5287 11 15.3913 10.459 14.5499 9.65918C13.6922 8.84394 13.25 7.86762 13.25 7.11111C13.25 6.47569 13.5626 5.99733 14.311 5.62012C15.1078 5.21854 16.3045 5 17.75 5C19.0804 5 20.2442 5.39361 21.0509 5.98031C21.8586 6.56772 22.25 7.29419 22.25 8Z" stroke="#EFA918" stroke-width="2"/>
<path d="M6.25 8.8073L6.25 3.45921C7.48359 3.28533 9.87436 3 12.25 3C14.6256 3 17.0164 3.28533 18.25 3.45921V8.8073L14.0119 16H10.4881L6.25 8.8073Z" fill="url(#paint1_linear_11980_2976)" stroke="#EFA918" stroke-width="2"/>
<defs>
<linearGradient id="paint0_linear_11980_2976" x1="12.25" y1="17" x2="12.25" y2="23" gradientUnits="userSpaceOnUse">
<stop stop-color="#EEA313"/>
<stop offset="1" stop-color="#FFE24D"/>
</linearGradient>
<linearGradient id="paint1_linear_11980_2976" x1="12.25" y1="2.6" x2="12.25" y2="17" gradientUnits="userSpaceOnUse">
<stop stop-color="#FFE24D"/>
<stop offset="1" stop-color="#EEA313"/>
</linearGradient>
</defs>
</svg>
