<svg width="20" height="20" viewBox="0 0 20 20" fill="none" xmlns="http://www.w3.org/2000/svg">
<path d="M15.0259 15.8799C15.0261 15.8799 15.025 15.8821 15.0218 15.8865C15.0241 15.8821 15.0257 15.8799 15.0259 15.8799ZM13.9264 15.5345C14.4031 15.6934 14.7206 15.8608 14.9006 16C14.7206 16.1392 14.4031 16.3066 13.9264 16.4655C12.9675 16.7852 11.5793 17 10 17C8.42072 17 7.03245 16.7852 6.07359 16.4655C5.59686 16.3066 5.27937 16.1392 5.09935 16C5.27937 15.8608 5.59686 15.6934 6.07359 15.5345C7.03245 15.2148 8.42072 15 10 15C11.5793 15 12.9675 15.2148 13.9264 15.5345ZM4.97412 15.8799C4.97434 15.8799 4.97592 15.8821 4.9782 15.8865C4.97504 15.8821 4.9739 15.8799 4.97412 15.8799ZM4.97412 16.1201C4.9739 16.1201 4.97504 16.1179 4.9782 16.1135C4.97592 16.1179 4.97433 16.1201 4.97412 16.1201ZM15.0218 16.1135C15.025 16.1179 15.0261 16.1201 15.0259 16.1201C15.0257 16.1201 15.0241 16.1179 15.0218 16.1135Z" fill="url(#paint0_linear_12021_36733)" stroke="#EFA918" stroke-width="2"/>
<path d="M8 6.5C8 7.66139 6.68144 9 4.5 9C3.57781 9 2.69749 8.56232 2.03091 7.88471C1.35245 7.19502 1 6.36491 1 5.72222C1 5.18938 1.23937 4.81464 1.79249 4.51651C2.40079 4.18864 3.33746 4 4.5 4C6.68144 4 8 5.33861 8 6.5Z" stroke="#EFA918" stroke-width="2"/>
<path d="M19 6.5C19 7.66139 17.6814 9 15.5 9C14.5778 9 13.6975 8.56232 13.0309 7.88471C12.3524 7.19502 12 6.36491 12 5.72222C12 5.18938 12.2394 4.81464 12.7925 4.51651C13.4008 4.18864 14.3375 4 15.5 4C17.6814 4 19 5.33861 19 6.5Z" stroke="#EFA918" stroke-width="2"/>
<path d="M5 7.12062L5 2.86441C6.08775 2.71882 8.05095 2.5 10 2.5C11.949 2.5 13.9123 2.71882 15 2.86441V7.12062L11.4367 13H8.56326L5 7.12062Z" fill="url(#paint1_linear_12021_36733)" stroke="#EFA918" stroke-width="2"/>
<defs>
<linearGradient id="paint0_linear_12021_36733" x1="10" y1="14" x2="10" y2="18" gradientUnits="userSpaceOnUse">
<stop stop-color="#EEA313"/>
<stop offset="1" stop-color="#FFE24D"/>
</linearGradient>
<linearGradient id="paint1_linear_12021_36733" x1="10" y1="2" x2="10" y2="14" gradientUnits="userSpaceOnUse">
<stop stop-color="#FFE24D"/>
<stop offset="1" stop-color="#EEA313"/>
</linearGradient>
</defs>
</svg>
