<svg width="37" height="32" viewBox="0 0 37 32" fill="none" xmlns="http://www.w3.org/2000/svg">
<path d="M0.541016 2.67487L4.16491 0.559538C4.64773 0.434439 5.15272 0.421128 5.64146 0.52058C6.1302 0.620033 6.58981 0.82964 6.98534 1.13347L3.36144 3.23239C2.148 2.52728 1.08214 2.34691 0.541016 2.67487Z" fill="#969696"/>
<path d="M3.36182 3.23246L6.98571 1.13354C8.75668 2.15021 10.2653 3.90476 10.2653 5.01981C10.2753 5.17144 10.2421 5.3228 10.1695 5.45631C10.0969 5.58982 9.98799 5.70003 9.85533 5.77412L6.23143 7.88943C6.36241 7.81462 6.46912 7.70376 6.53889 7.57004C6.60866 7.43631 6.63853 7.28537 6.62496 7.13514C6.62496 6.0037 5.19838 4.26552 3.42742 3.23246H3.36182Z" fill="#969696"/>
<path d="M3.36158 3.23242C5.13254 4.26549 6.64111 6.00366 6.55912 7.13511C6.47713 8.26656 5.11611 8.34855 3.27956 7.31548C1.44301 6.28242 0 4.54424 0 3.42919C0 2.31414 1.55782 2.21576 3.36158 3.23242Z" fill="white"/>
<path d="M22.1698 23.6805L24.3835 22.3851C24.3407 22.4097 24.3057 22.4457 24.2825 22.4892C24.2593 22.5327 24.2488 22.5819 24.2523 22.6311L22.0386 23.9101C22.0411 23.8643 22.0543 23.8197 22.0771 23.7798C22.0998 23.74 22.1316 23.706 22.1698 23.6805Z" fill="#969696"/>
<path d="M24.7117 27.5996L26.9254 26.3042C26.9339 26.3631 26.9262 26.4233 26.9031 26.4782C26.88 26.5331 26.8424 26.5806 26.7943 26.6157L24.5806 27.9112C24.6252 27.873 24.6602 27.825 24.683 27.7709C24.7058 27.7168 24.7156 27.6582 24.7117 27.5996Z" fill="#172020"/>
<path d="M22.1699 23.6805L24.3836 22.3851C24.4602 22.3851 24.5749 22.3851 24.728 22.3851L22.5143 23.6642C22.4625 23.6322 22.4029 23.6153 22.3421 23.6153C22.2813 23.6153 22.2217 23.6322 22.1699 23.6642V23.6805Z" fill="#172020"/>
<path d="M24.7278 25.5663L26.9415 24.2709L26.9251 26.3042L24.7114 27.5996L24.7278 25.5663Z" fill="#172021"/>
<path d="M22.5142 23.7298L24.7279 22.4343L26.4496 23.4346L24.2359 24.73L22.5142 23.7298Z" fill="#141C1D"/>
<path d="M24.7278 25.5171L26.9251 24.238L24.7114 25.5335L24.7278 25.5171Z" fill="#172020"/>
<path d="M24.2358 24.73L26.4496 23.4346C26.583 23.5254 26.6947 23.6444 26.7769 23.7833C26.8591 23.9222 26.9097 24.0774 26.9251 24.238L24.7278 25.5171C24.7117 25.3569 24.6589 25.2027 24.5736 25.0662C24.4883 24.9297 24.3727 24.8147 24.2358 24.73Z" fill="#172020"/>
<path d="M24.2359 24.73C24.3727 24.8147 24.4883 24.9298 24.5736 25.0663C24.6589 25.2027 24.7117 25.357 24.7278 25.5171V27.5997C24.7278 27.8948 24.5147 28.026 24.2523 27.862L22.5141 26.8782C22.3775 26.7831 22.2638 26.6587 22.1815 26.5139C22.0993 26.3692 22.0504 26.2079 22.0386 26.0419V24.0085C22.0386 23.7626 22.2682 23.6642 22.5141 23.8118L24.2359 24.73Z" fill="#253435"/>
<path d="M24.7444 16.9739L26.9581 15.6785L26.9253 24.2381L24.728 25.5171L24.7444 16.9739Z" fill="#969696"/>
<path d="M24.7444 16.9739V25.5171C24.7283 25.357 24.6755 25.2027 24.5902 25.0663C24.5049 24.9298 24.3893 24.8147 24.2525 24.73L22.5307 23.7298C22.2848 23.5822 22.088 23.7298 22.0552 23.9265V15.4817L24.7444 16.9739Z" fill="#CDDDDE"/>
<path d="M22.0552 15.416L24.2689 14.137L26.9581 15.6784L24.7444 16.9738L22.0552 15.416Z" fill="#707979"/>
<path d="M15.2171 27.7636L17.4308 26.4681C17.3937 26.4984 17.3631 26.5357 17.3405 26.578C17.318 26.6202 17.3041 26.6665 17.2996 26.7141L15.0859 27.9931C15.0884 27.9473 15.1016 27.9027 15.1244 27.8628C15.1471 27.823 15.1789 27.789 15.2171 27.7636Z" fill="#969696"/>
<path d="M17.7756 31.6663L19.9729 30.3708C19.9813 30.4298 19.9736 30.4899 19.9505 30.5448C19.9274 30.5997 19.8897 30.6473 19.8416 30.6824L17.6279 31.9614C17.6764 31.9297 17.7157 31.8856 17.7416 31.8338C17.7675 31.7819 17.7792 31.7241 17.7756 31.6663Z" fill="#172020"/>
<path d="M15.2173 27.7636L17.431 26.4681C17.4833 26.4379 17.5427 26.422 17.6032 26.422C17.6636 26.422 17.723 26.4379 17.7754 26.4681L15.5617 27.7472C15.5099 27.7152 15.4503 27.6983 15.3895 27.6983C15.3287 27.6983 15.269 27.7152 15.2173 27.7472V27.7636Z" fill="#172020"/>
<path d="M17.7754 29.6328L19.9891 28.3374L19.9727 30.3707L17.7754 31.6662V29.6328Z" fill="#172021"/>
<path d="M15.5615 27.7964L17.7752 26.5173L19.497 27.5012L17.2997 28.7966L15.5615 27.7964Z" fill="#141C1D"/>
<path d="M17.7754 29.5837L19.9891 28.3047L17.7754 29.6001V29.5837Z" fill="#172020"/>
<path d="M17.2998 28.7965L19.4971 27.5011C19.6328 27.591 19.7471 27.7095 19.8321 27.8483C19.9171 27.9871 19.9706 28.1429 19.989 28.3046L17.7754 29.5836C17.7587 29.4256 17.7075 29.2731 17.6253 29.137C17.5431 29.001 17.432 28.8847 17.2998 28.7965Z" fill="#172020"/>
<path d="M17.2995 28.7965C17.4317 28.8848 17.5428 29.001 17.625 29.1371C17.7072 29.2731 17.7584 29.4256 17.775 29.5836V31.6661C17.775 31.9613 17.5454 32.0925 17.2831 31.9285L15.6433 30.9282C15.5013 30.8413 15.3824 30.7214 15.2967 30.5787C15.2111 30.4359 15.1612 30.2745 15.1514 30.1084V27.9931C15.1514 27.7471 15.3809 27.6487 15.6269 27.7963L17.2995 28.7965Z" fill="#253435"/>
<path d="M17.7918 21.0404L20.0055 19.745L19.9727 28.3046L17.7754 29.5837L17.7918 21.0404Z" fill="#969696"/>
<path d="M17.7918 21.0405V29.5837C17.7751 29.4256 17.7239 29.2732 17.6417 29.1371C17.5595 29.0011 17.4484 28.8848 17.3162 28.7966L15.578 27.7963C15.3321 27.6488 15.1353 27.7964 15.1025 27.9931V19.4827L17.7918 21.0405Z" fill="white"/>
<path d="M15.1187 19.4826L17.316 18.2036L20.0052 19.745L17.7915 21.0404L15.1187 19.4826Z" fill="#707979"/>
<path d="M4.32896 21.4176L6.54268 20.1385C6.4981 20.1623 6.46078 20.1978 6.43479 20.2411C6.40879 20.2844 6.3951 20.334 6.3951 20.3845L4.19775 21.6636C4.20221 21.6159 4.21612 21.5696 4.23864 21.5274C4.26116 21.4852 4.29188 21.4478 4.32896 21.4176Z" fill="#969696"/>
<path d="M6.87091 25.3203L9.08462 24.0413C9.09139 24.1001 9.08288 24.1597 9.0599 24.2142C9.03692 24.2688 9.00027 24.3166 8.95346 24.3528L6.73975 25.6318C6.78656 25.5956 6.82321 25.5479 6.84619 25.4933C6.86917 25.4387 6.87767 25.3791 6.87091 25.3203Z" fill="#172020"/>
<path d="M4.3291 21.4176L6.54281 20.1385C6.59516 20.1083 6.65451 20.0924 6.71496 20.0924C6.77541 20.0924 6.83481 20.1083 6.88715 20.1385L4.67344 21.4176C4.62016 21.3902 4.56118 21.376 4.5013 21.376C4.44142 21.376 4.38238 21.3902 4.3291 21.4176Z" fill="#172020"/>
<path d="M6.887 23.287L9.08431 22.0079V24.0413L6.87061 25.3203L6.887 23.287Z" fill="#172021"/>
<path d="M4.67334 21.4504L6.88704 20.1714L8.60881 21.1717L6.39511 22.4507L4.67334 21.4504Z" fill="#141C1D"/>
<path d="M6.88702 23.2542L9.08432 21.9587L6.87061 23.2378L6.88702 23.2542Z" fill="#172020"/>
<path d="M6.47705 22.4507L8.69076 21.1716C8.82542 21.2572 8.93844 21.3728 9.02094 21.5093C9.10344 21.6459 9.15321 21.7997 9.16631 21.9587L6.96896 23.2542C6.95283 23.0918 6.90022 22.9352 6.81504 22.7961C6.72985 22.6569 6.61431 22.5388 6.47705 22.4507Z" fill="#172020"/>
<path d="M6.47708 22.4507C6.61434 22.5389 6.72988 22.657 6.81507 22.7961C6.90026 22.9352 6.95286 23.0918 6.969 23.2542V25.3203C6.969 25.6319 6.75586 25.7466 6.4935 25.5991L4.75534 24.5988C4.61513 24.5074 4.49882 24.3838 4.4161 24.2384C4.33338 24.0929 4.28663 23.9297 4.27979 23.7625V21.7292C4.27979 21.4668 4.50937 21.3848 4.75534 21.516L6.47708 22.4507Z" fill="#253435"/>
<path d="M6.90361 14.6946L9.11731 13.4155L9.08451 21.9588L6.88721 23.2542L6.90361 14.6946Z" fill="#969696"/>
<path d="M6.90362 14.6945V23.2542C6.88749 23.0918 6.83483 22.9352 6.74964 22.7961C6.66445 22.6569 6.54891 22.5388 6.41165 22.4507L4.68991 21.4504C4.44394 21.3192 4.24715 21.4504 4.21436 21.6636V13.1367L6.90362 14.6945Z" fill="white"/>
<path d="M4.21436 13.1367L6.42806 11.8577L9.1173 13.4155L6.9036 14.6945L4.21436 13.1367Z" fill="#707979"/>
<path d="M2.70557 7.82391L7.36253 5.11826C7.7916 4.89479 8.27354 4.79275 8.75636 4.82311L4.09934 7.52874C3.61597 7.49036 3.13189 7.5929 2.70557 7.82391Z" fill="#C7C7C7"/>
<path d="M4.98486 4.52788L12.8066 0.280829C13.4657 0.0251263 14.1793 -0.0578748 14.8796 0.0397009C15.5798 0.137277 16.2435 0.412211 16.8077 0.838373C17.0688 0.986945 17.3207 1.1512 17.562 1.33029L9.75663 5.64291L9.00234 5.16739C8.43581 4.73992 7.77014 4.46306 7.06757 4.36269C6.36499 4.26232 5.64842 4.34171 4.98486 4.59346V4.52788Z" fill="#C7C7C7"/>
<path d="M22.3174 26.0747L26.9743 23.369C27.0068 23.7644 26.9309 24.1611 26.7546 24.5165C26.5784 24.8719 26.3085 25.1725 25.9741 25.3859L21.3335 28.0916C21.6662 27.8774 21.9338 27.5762 22.1072 27.2206C22.2807 26.865 22.3534 26.4687 22.3174 26.0747Z" fill="#C7C7C7"/>
<path d="M9.87158 5.51176L17.6769 1.24835C18.341 0.999646 19.0569 0.921846 19.7589 1.02213C20.461 1.12242 21.1265 1.39756 21.6944 1.82225L13.8726 6.08569C13.3114 5.65394 12.6483 5.37427 11.9474 5.27373C11.2465 5.17319 10.5315 5.25518 9.87158 5.51176Z" fill="#C7C7C7"/>
<path d="M13.8726 6.0857L21.6943 1.82227C23.7894 3.06769 25.4149 4.96985 26.3185 7.23354L18.4967 11.4806C17.5933 9.22101 15.9674 7.32407 13.8726 6.0857Z" fill="#C7C7C7"/>
<path d="M23.1211 18.9416L27.7617 16.2523C28.709 17.2969 29.4095 18.541 29.8114 19.8926C29.9281 20.2975 29.9833 20.7176 29.9754 21.1389C30.0101 21.5304 29.9368 21.924 29.7633 22.2768C29.5898 22.6295 29.3229 22.9279 28.9915 23.1394L24.3346 25.845C24.6703 25.6329 24.9411 25.3326 25.1175 24.9768C25.2939 24.6211 25.3691 24.2237 25.3348 23.8281C25.3269 23.4122 25.2663 22.9989 25.1545 22.5983C24.753 21.245 24.0588 19.9966 23.1211 18.9416Z" fill="#C7C7C7"/>
<path d="M13.8726 6.08562C15.9674 7.32399 17.5933 9.22093 18.4967 11.4805C19.4043 12.0572 20.2221 12.7644 20.9236 13.5794C22.2013 14.9202 22.9873 16.6541 23.1537 18.4987C23.1625 18.6517 23.1625 18.805 23.1537 18.9579C24.0914 20.0129 24.7856 21.2614 25.1871 22.6146C25.2989 23.0153 25.3595 23.4285 25.3674 23.8444C25.3674 25.6318 24.1212 26.4353 22.3502 26.0909C22.3502 28.485 20.1037 29.1245 17.3489 27.5339C16.7007 27.1449 16.0911 26.6946 15.5287 26.1893C14.4896 26.1715 13.4749 25.8711 12.5936 25.3202C11.4263 24.6174 10.3935 23.7123 9.54355 22.6474C9.20615 22.5092 8.87756 22.3504 8.55967 22.1719C5.80484 20.5321 3.64033 17.3509 3.64033 14.9568C3.61442 14.7554 3.61442 14.5515 3.64033 14.3501C2.54047 13.0954 1.87355 11.5201 1.73818 9.85712C1.70533 9.53821 1.74542 9.21599 1.85538 8.91485C1.96534 8.6137 2.14231 8.34149 2.37291 8.11878C2.60352 7.89607 2.88176 7.72869 3.18655 7.62929C3.49134 7.52989 3.81473 7.50108 4.13229 7.54502C4.0687 7.22088 4.03576 6.89146 4.03391 6.56114C4.03391 4.16706 6.28039 3.52754 9.03522 5.11813L9.7895 5.59368C10.4509 5.29844 11.18 5.18825 11.8991 5.27489C12.6182 5.36152 13.3003 5.64174 13.8726 6.08562Z" fill="white"/>
<path d="M18.4966 11.4805L26.3184 7.28271C27.2213 7.8592 28.0337 8.56655 28.7288 9.38163C30.0153 10.7165 30.8028 12.4537 30.9589 14.301C30.9758 14.4535 30.9758 14.6075 30.9589 14.7601L23.1536 19.0071C23.1623 18.8542 23.1623 18.7009 23.1536 18.548C22.9872 16.7034 22.2011 14.9695 20.9235 13.6287C20.2219 12.8137 19.4042 12.1065 18.4966 11.5297V11.4805Z" fill="#C7C7C7"/>
<path d="M20.9238 13.5795L25.5644 10.8739C25.8838 10.703 26.236 10.6024 26.5975 10.5787L21.9405 13.2844C21.5838 13.3057 21.2364 13.4065 20.9238 13.5795Z" fill="#172020"/>
<path d="M21.6778 10.759L26.3184 8.05335C26.5219 7.97186 26.7426 7.94267 26.9603 7.96845C27.178 7.99423 27.3857 8.07415 27.5646 8.20092L22.8749 10.9066C22.7005 10.7769 22.4953 10.695 22.2796 10.6692C22.0638 10.6433 21.8451 10.6742 21.645 10.759H21.6778Z" fill="#C7C7C7"/>
<path d="M36.9608 15.6128C36.969 15.5036 36.969 15.394 36.9608 15.2849V15.1865C36.9688 15.1376 36.9688 15.0878 36.9608 15.0389C36.9608 15.0389 36.9608 14.8913 36.9608 14.8257V14.5797L36.8624 14.1534C36.8425 14.0638 36.8151 13.976 36.7805 13.891V13.727V13.6287L36.4853 13.0383C36.3437 12.7884 36.179 12.5524 35.9934 12.3333L35.895 12.2185C35.8765 12.1835 35.848 12.155 35.813 12.1365L35.7146 12.0381C35.5697 11.8976 35.4164 11.7662 35.2554 11.6445L35.0259 11.4642H34.8783H34.7635L34.3372 11.2018L32.4022 10.0868L29.7786 8.56175L29.3523 8.29938H29.2211L28.8111 8.10262H28.68L28.1388 7.92224H27.8764H27.778H27.3353H26.5319H26.2531L25.5972 8.06982L25.2692 8.18461H25.1544L24.7773 8.34857H24.6297L24.2361 8.57814L24.0558 8.69294L23.8426 8.85693C23.7738 8.93104 23.6968 8.99705 23.613 9.05369L23.4654 9.20127C23.337 9.33047 23.2165 9.46738 23.1047 9.61121L22.9407 9.84078C22.9028 9.91005 22.8589 9.97589 22.8095 10.0375L22.7111 10.1851C22.7143 10.2233 22.7143 10.2617 22.7111 10.2999L22.498 10.7099V10.8247V10.9722C22.4659 11.047 22.4386 11.1237 22.416 11.2018C22.3627 11.324 22.3189 11.4501 22.2848 11.5789V11.7757C22.2303 11.9644 22.1865 12.156 22.1536 12.3496C22.1536 12.3496 22.1536 12.5136 22.1536 12.5956V12.694C22.1454 12.8196 22.1454 12.9456 22.1536 13.0711C22.1454 13.1858 22.1454 13.3009 22.1536 13.4155C22.1536 13.5467 22.1536 13.7271 22.1536 13.8746C22.1457 13.9838 22.1457 14.0934 22.1536 14.2026C22.1536 14.3666 22.252 14.5798 22.3012 14.7437C22.3306 14.8506 22.369 14.9549 22.416 15.0553C22.5918 15.454 22.8178 15.8287 23.0883 16.1703C23.2145 16.3374 23.3574 16.4912 23.5147 16.6295C23.5484 16.672 23.5869 16.7105 23.6294 16.7443L23.859 16.941C24.0001 17.0488 24.148 17.1474 24.3017 17.2362L24.7281 17.4985L29.2867 20.1386L29.713 20.3846C29.9288 20.5102 30.1535 20.6198 30.3853 20.7125H30.5657H30.746H30.8608L31.4184 20.8273H32.1563H32.6154H32.9106C33.0763 20.804 33.2406 20.7712 33.4025 20.7289C33.6263 20.6614 33.8454 20.5792 34.0584 20.483H34.1732H34.37L34.6324 20.319L34.3536 20.401C34.5484 20.2769 34.7346 20.14 34.9111 19.991L35.1079 19.827C35.1484 19.8031 35.1823 19.7692 35.2062 19.7286L35.321 19.6303L35.5178 19.4171L35.5998 19.3187L35.8622 18.9744L35.9934 18.7612C36.0255 18.6922 36.0639 18.6263 36.1082 18.5644C36.1686 18.4525 36.2234 18.3376 36.2721 18.2201V18.0889V18.0069C36.3435 17.8304 36.4037 17.6497 36.4525 17.4658L36.5509 17.0394C36.5659 16.7663 36.5659 16.4926 36.5509 16.2195L36.9608 15.6128Z" fill="#172021"/>
<path d="M30.4834 7.93864C31.9198 6.51669 32.8917 4.69299 33.271 2.70776C31.2619 2.88014 29.3523 3.65772 27.7942 4.93786C26.3583 6.35128 25.391 8.17143 25.0229 10.1524C27.0265 9.9896 28.9322 9.21703 30.4834 7.93864Z" fill="#172021"/>
<path d="M19.1854 14.7601C21.1624 14.3844 22.9767 13.4115 24.3835 11.9725C22.6506 10.9141 20.6009 10.4985 18.5926 10.7982C16.5843 11.098 14.7453 12.094 13.397 13.6123C15.1635 14.5782 17.1839 14.9788 19.1854 14.7601Z" fill="#172021"/>
</svg>
