<svg width="24" height="24" viewBox="0 0 24 24" fill="none" xmlns="http://www.w3.org/2000/svg">
<path d="M3.2 4.40002H20.8V20.9H3.2V4.40002Z" fill="#FFD77E"/>
<path d="M4.3 12.1H10.9V20.9H4.3V12.1Z" fill="#9EC0CF"/>
<path d="M13.1 12.1H18.6V17.6H13.1V12.1Z" fill="#9EC0CF"/>
<path d="M5.40001 13.2H9.80001V19.8H5.40001V13.2Z" fill="#363E49"/>
<path d="M14.2 13.2H17.5V16.5H14.2V13.2Z" fill="#363E49"/>
<path d="M2.10001 4.40002L4.30001 2.20003L19.7 2.20003L21.9 4.40002L2.10001 4.40002Z" fill="#FF7777"/>
<path d="M2.10001 4.40002L5.40001 4.40002L5.40001 9.35003C5.40001 10.2613 4.66128 11 3.75001 11C2.83874 11 2.10001 10.2613 2.10001 9.35002L2.10001 4.40002Z" fill="#E83F3F"/>
<path d="M5.40001 4.40002L8.70001 4.40002V9.35003C8.70001 10.2613 7.96128 11 7.05001 11C6.13874 11 5.40001 10.2613 5.40001 9.35002L5.40001 4.40002Z" fill="#F1F1F1"/>
<path d="M8.7 4.40002L12 4.40002V9.35003C12 10.2613 11.2613 11 10.35 11C9.43873 11 8.7 10.2613 8.7 9.35002V4.40002Z" fill="#E83F3F"/>
<path d="M12 4.40002L15.3 4.40002V9.35003C15.3 10.2613 14.5613 11 13.65 11C12.7387 11 12 10.2613 12 9.35002V4.40002Z" fill="#F1F1F1"/>
<path d="M15.3 4.40002L18.6 4.40002V9.35003C18.6 10.2613 17.8613 11 16.95 11C16.0387 11 15.3 10.2613 15.3 9.35002V4.40002Z" fill="#E83F3F"/>
<path d="M18.6 4.40002L21.9 4.40002V9.35003C21.9 10.2613 21.1613 11 20.25 11C19.3387 11 18.6 10.2613 18.6 9.35002V4.40002Z" fill="#F1F1F1"/>
<path d="M19.5114 21.7618C19.5114 21.7618 18.8076 20.0259 18.6 19.1291C18.6047 18.7223 19.1564 19.0069 19.4585 19.2308C19.7606 19.4547 20.4049 17.4819 20.8054 17.6056C21.2058 17.7292 21.5449 18.7972 21.8655 19.4677C22.1862 20.1382 22.7582 19.3351 22.979 19.5176C23.1998 19.7 21.6053 22 21.6053 22L19.5114 21.7618Z" fill="#8AD401"/>
</svg>
