<svg xmlns="http://www.w3.org/2000/svg" xmlns:xlink="http://www.w3.org/1999/xlink" width="24" height="24" viewBox="0 0 48 48" version="1.1">
<g id="surface1">
<path style=" stroke:none;fill-rule:evenodd;fill:rgb(0%,0%,0%);fill-opacity:1;" d="M 37.871094 40.027344 L 34.75 37.53125 C 41.707031 29.929688 41.707031 18.308594 34.75 10.707031 L 37.871094 8.210938 C 45.992188 17.277344 45.992188 30.960938 37.871094 40.027344 Z M 29.960938 14.542969 L 26.835938 17.039062 C 30.566406 21.03125 30.566406 27.207031 26.835938 31.199219 L 29.960938 33.695312 C 34.855469 28.238281 34.855469 20 29.960938 14.542969 Z M 21.976562 8 L 11.582031 16.179688 L 4 16.179688 L 4 32.179688 L 11.59375 32.179688 L 21.976562 40.191406 Z M 8 20.179688 L 12.96875 20.179688 L 17.976562 16.238281 L 17.976562 32.046875 L 12.957031 28.179688 L 8 28.179688 Z M 8 20.179688 "></path>
</g>
</svg>