<svg xmlns="http://www.w3.org/2000/svg" xmlns:xlink="http://www.w3.org/1999/xlink" width="24" height="24" viewBox="0 0 48 48" version="1.1">
<g id="surface1">
<path style=" stroke:none;fill-rule:evenodd;fill:rgb(0%,0%,0%);fill-opacity:1;" d="M 8.414062 5.585938 L 42.414062 39.585938 L 39.585938 42.414062 L 21.976562 24.804688 L 21.976562 40.191406 L 11.59375 32.179688 L 4 32.179688 L 4 16.179688 L 11.582031 16.179688 L 12.570312 15.398438 L 5.585938 8.414062 Z M 37.871094 8.210938 C 44.222656 15.304688 45.605469 25.214844 42.023438 33.539062 L 38.933594 30.449219 C 41.171875 23.792969 39.777344 16.199219 34.75 10.707031 Z M 29.960938 14.542969 C 32.644531 17.535156 33.855469 21.363281 33.597656 25.113281 L 28.980469 20.496094 C 28.527344 19.285156 27.84375 18.140625 26.921875 17.132812 L 26.835938 17.039062 Z M 21.976562 8 L 21.976562 13.492188 L 18.902344 10.417969 Z M 21.976562 8 "></path>
</g>
</svg>