<svg width="16" height="47" viewBox="0 0 16 47" fill="none" xmlns="http://www.w3.org/2000/svg">
<path d="M0.528503 20.2551L1.73523 19.5656C1.83902 19.54 1.94743 19.54 2.05122 19.5656C2.19195 19.5923 2.32769 19.6407 2.4535 19.7092L1.2181 20.4274C1.0982 20.3466 0.959832 20.2972 0.815827 20.2838H0.528503V20.2551Z" fill="#5C8D01"/>
<path d="M1.21814 20.3411L2.45354 19.6228C4.7666 22.1645 6.38027 25.2631 7.13665 28.6155C8.57318 33.155 8.88921 36.8325 7.9411 37.3784L6.73437 38.0679C7.65376 37.5508 7.33772 33.8732 5.92992 29.4487C5.1665 26.093 3.54269 22.9938 1.21814 20.456V20.3411Z" fill="#5C8D01"/>
<path d="M1.21808 20.3413C3.54263 22.8791 5.16645 25.9783 5.92986 29.334C7.48132 34.2757 7.7112 38.2405 6.41832 38.1543C6.28546 38.132 6.15843 38.0831 6.04481 38.0107C3.70919 35.4807 2.08366 32.3784 1.33294 29.018C-0.218511 24.0476 -0.448335 20.1115 0.815813 20.1977C0.959819 20.2111 1.09818 20.2604 1.21808 20.3413Z" fill="#89D301"/>
<path d="M11.8196 24.8808L13.0551 24.1625C13.2583 24.0381 13.492 23.9722 13.7303 23.9722C13.9685 23.9722 14.2023 24.0381 14.4055 24.1625L13.1987 24.8808C12.9901 24.7569 12.7519 24.6914 12.5092 24.6914C12.2666 24.6914 12.0283 24.7569 11.8196 24.8808Z" fill="#5C8D01"/>
<path d="M13.1987 24.7659L14.4055 24.0476L14.6353 24.22C15.8994 25.4267 15.7558 29.6213 14.2905 33.6149C13.7092 35.6418 12.5272 37.445 10.9003 38.7864L9.6936 39.5047C11.3045 38.1545 12.4751 36.3535 13.0551 34.3331C14.5204 30.3396 14.6928 26.1162 13.4286 24.9383L13.1987 24.7659Z" fill="#5C8D01"/>
<path d="M13.1987 24.7657L13.4286 24.9381C14.6928 26.116 14.5204 30.3394 13.0551 34.333C11.5898 38.3265 9.60744 40.3377 8.31457 39.5907L8.11343 39.4471C6.82055 38.2404 6.99292 34.0457 8.45818 30.0234C9.92345 26.0011 11.9058 23.9612 13.1987 24.7657Z" fill="#89D301"/>
<path d="M8.74553 17.5833V45.9691C8.73473 46.0807 8.69438 46.1874 8.62874 46.2783C8.56311 46.3692 8.47454 46.4409 8.37202 46.4863C8.08627 46.628 7.7716 46.7018 7.45262 46.7018C7.13364 46.7018 6.81896 46.628 6.53321 46.4863C6.43069 46.4409 6.34212 46.3692 6.27649 46.2783C6.21086 46.1874 6.17059 46.0807 6.15979 45.9691V17.5833C6.16556 17.6999 6.20346 17.8126 6.26939 17.909C6.33532 18.0053 6.42662 18.0815 6.53321 18.1291C6.81896 18.2709 7.13364 18.3447 7.45262 18.3447C7.7716 18.3447 8.08627 18.2709 8.37202 18.1291C8.47862 18.0815 8.56992 18.0053 8.63584 17.909C8.70177 17.8126 8.73976 17.6999 8.74553 17.5833Z" fill="#5C8D01"/>
<mask id="mask0_54_42776" style="mask-type:luminance" maskUnits="userSpaceOnUse" x="6" y="17" width="3" height="30">
<path d="M8.74553 17.5833V45.9691C8.73473 46.0807 8.69438 46.1874 8.62874 46.2783C8.56311 46.3692 8.47454 46.4409 8.37202 46.4863C8.08627 46.628 7.7716 46.7018 7.45262 46.7018C7.13364 46.7018 6.81896 46.628 6.53321 46.4863C6.43069 46.4409 6.34212 46.3692 6.27649 46.2783C6.21086 46.1874 6.17059 46.0807 6.15979 45.9691V17.5833C6.16556 17.6999 6.20346 17.8126 6.26939 17.909C6.33532 18.0053 6.42662 18.0815 6.53321 18.1291C6.81896 18.2709 7.13364 18.3447 7.45262 18.3447C7.7716 18.3447 8.08627 18.2709 8.37202 18.1291C8.47862 18.0815 8.56992 18.0053 8.63584 17.909C8.70177 17.8126 8.73976 17.6999 8.74553 17.5833Z" fill="white"/>
</mask>
<g mask="url(#mask0_54_42776)">
<path d="M8.74555 17.5833V45.9691C8.73474 46.0807 8.69439 46.1874 8.62876 46.2783C8.56312 46.3692 8.47456 46.4409 8.37203 46.4863H8.1709V18.1291H8.37203C8.47863 18.0815 8.56993 18.0053 8.63586 17.909C8.70179 17.8126 8.73978 17.6999 8.74555 17.5833Z" fill="#5C8D01"/>
<path d="M8.17087 18.2153V46.5725H7.73993V18.2153H8.17087Z" fill="#5C8D01"/>
<path d="M7.73993 18.2154V46.5725C7.32653 46.6429 6.90144 46.572 6.5332 46.3714V17.9856C6.90704 18.1694 7.32668 18.2393 7.73993 18.1866V18.2154Z" fill="#89D301"/>
<path d="M6.47579 18.2154V46.6013C6.37567 46.5302 6.28827 46.4428 6.21722 46.3427V17.9856C6.28248 18.0829 6.37147 18.162 6.47579 18.2154Z" fill="#5C8D01"/>
<path d="M6.21725 17.8418V46.1989C6.20732 46.1227 6.20732 46.0454 6.21725 45.9691V17.5833C6.20379 17.6689 6.20379 17.7562 6.21725 17.8418Z" fill="#5C8D01"/>
</g>
<path d="M8.37223 17.0661C8.49214 17.0942 8.59899 17.162 8.67551 17.2585C8.75203 17.355 8.7937 17.4745 8.7937 17.5976C8.7937 17.7208 8.75203 17.8403 8.67551 17.9368C8.59899 18.0332 8.49214 18.1011 8.37223 18.1291C8.08648 18.2709 7.77181 18.3446 7.45283 18.3446C7.13385 18.3446 6.81917 18.2709 6.53342 18.1291C6.42803 18.0858 6.33795 18.0122 6.27451 17.9176C6.21107 17.8229 6.17719 17.7115 6.17719 17.5976C6.17719 17.4837 6.21107 17.3723 6.27451 17.2777C6.33795 17.183 6.42803 17.1094 6.53342 17.0661C6.81917 16.9243 7.13385 16.8506 7.45283 16.8506C7.77181 16.8506 8.08648 16.9243 8.37223 17.0661Z" fill="#21221F"/>
<path d="M12.9976 11.1187C12.9976 17.2384 10.4981 20.7435 7.42388 20.7435C4.3497 20.7435 1.85022 17.2384 1.85022 11.1187C1.85022 4.99912 5.44147 0 7.42388 0C9.4063 0 12.9976 4.97039 12.9976 11.1187Z" fill="url(#paint0_radial_54_42776)"/>
<defs>
<radialGradient id="paint0_radial_54_42776" cx="0" cy="0" r="1" gradientUnits="userSpaceOnUse" gradientTransform="translate(6.87805 6.49313) scale(12.0668 12.0669)">
<stop stop-color="#FF6666"/>
<stop offset="0.99" stop-color="#D61413"/>
</radialGradient>
</defs>
</svg>
