<svg width="71" height="69" viewBox="0 0 71 69" fill="none" xmlns="http://www.w3.org/2000/svg">
<path d="M38.44 67.1282H38.3994L38.44 67.0876V67.1282Z" fill="#71B500"/>
<path d="M38.3994 67.1281L34.5366 64.8917L34.5772 64.8511L38.44 67.0874L38.3994 67.1281Z" fill="#3E6300"/>
<path d="M37.4235 66.8843L33.5607 64.6479L34.5365 64.8919L38.3994 67.1283L37.4235 66.8843Z" fill="#395B00"/>
<path d="M36.651 67.9822L32.8288 65.7458L33.5607 64.6479L37.4235 66.8843L36.651 67.9822Z" fill="#3D6200"/>
<path d="M36.6511 67.9821L37.4236 66.8843L38.3995 67.1282L36.6511 68.1448V67.9821Z" fill="#71B500"/>
<path d="M36.651 68.1449L32.8288 65.9085V65.7458L36.651 67.9822V68.1449Z" fill="#3D6200"/>
<path d="M36.9764 66.7622L33.1135 64.5259L33.5608 64.6479L37.4236 66.8842L36.9764 66.7622Z" fill="#395B00"/>
<path d="M36.9764 66.7622L33.1135 64.5258L33.5608 63.5906L37.4236 65.8269L36.9764 66.7622Z" fill="#3E6300"/>
<path d="M37.4235 65.8272L33.5607 63.5908L34.5772 61.4358L38.44 63.6722L37.4235 65.8272Z" fill="#3E6300"/>
<path d="M37.4236 65.8272L33.5608 63.5908L32.7882 62.8589L36.651 65.0953L37.4236 65.8272Z" fill="#3A5C00"/>
<path d="M51.3297 39.5598L47.4669 37.3234L48.4834 35.1277L52.3462 37.3641L51.3297 39.5598Z" fill="#3E6300"/>
<path d="M38.44 63.6721L34.5772 61.4357L45.8811 37.2422L49.7439 39.4786L38.44 63.6721Z" fill="#3E6300"/>
<path d="M49.744 39.4787L45.8812 37.2423L47.0603 34.762L50.9232 36.9983L49.744 39.4787Z" fill="#3E6300"/>
<path d="M50.9231 36.9983L47.0603 34.762L48.4834 35.1279L52.3463 37.3643L50.9231 36.9983Z" fill="#395B00"/>
<path d="M50.9232 36.9983L52.3464 37.3642L51.3298 39.56L38.4402 67.0877L37.4237 66.8844L36.9764 66.7624L37.4237 65.8272L38.4402 63.6721L49.744 39.4786L50.9232 36.9983Z" fill="#71B500"/>
<path d="M61.9016 3.33056L58.0389 1.09423C58.8407 0.587492 59.7363 0.247134 60.6723 0.0934587C61.6083 -0.0602168 62.5657 -0.0240767 63.4875 0.199679C63.9179 0.295124 64.3298 0.4599 64.7073 0.687595L68.5702 2.96462C68.1953 2.72269 67.7831 2.54409 67.3502 2.436C66.4285 2.21225 65.4712 2.17623 64.5352 2.32991C63.5991 2.48358 62.7035 2.82382 61.9016 3.33056Z" fill="#4C7900"/>
<path d="M38.3587 42.4062L34.4958 40.1699V37.8928L38.3587 40.1292V42.4062Z" fill="#3D6200"/>
<path d="M36.6509 65.0951L32.7881 62.8587L32.7474 40.9016L36.6103 43.138L36.6509 65.0951Z" fill="#3D6200"/>
<path d="M36.5696 41.1457L32.7474 38.9094L34.4959 37.8928L38.3587 40.1292L36.5696 41.1457Z" fill="#3B5E00"/>
<path d="M36.6103 43.138L32.7474 40.9016V38.9092L36.5696 41.1456L36.6103 43.138Z" fill="#3D6200"/>
<path d="M36.5696 41.1457L38.3587 40.1292V42.4062L38.44 63.6721L37.4235 65.8271L36.6509 65.0952L36.6102 43.1381L36.5696 41.1457Z" fill="#71B500"/>
<path d="M49.4998 39.3973L45.6777 37.1201C44.5391 36.5102 43.9292 34.6805 44.1325 31.2243C44.7831 19.8798 50.923 5.20103 58.0387 1.09424L61.9015 3.33056C54.7858 7.3967 48.646 22.1161 47.9954 33.4606C47.7921 36.9168 48.402 38.7467 49.4998 39.3973Z" fill="#4C7900"/>
<path d="M61.9018 3.33048C62.7037 2.82374 63.5993 2.48351 64.5353 2.32983C65.4714 2.17616 66.4286 2.21217 67.3504 2.43593C78.085 5.36354 60.3973 32.078 57.7137 34.965C56.409 36.4692 54.888 37.7711 53.2003 38.8279C52.609 39.1573 51.9814 39.4166 51.33 39.6005L52.3465 37.4047L50.9233 36.9981L49.7441 39.4785C48.4836 38.9905 47.7517 37.1607 47.9957 33.4606C48.7276 22.116 54.7861 7.43728 61.9018 3.33048Z" fill="#71B500"/>
<path d="M36.4478 68.2667L32.5849 66.0303L19.5733 53.4253L23.4361 55.6617L36.4478 68.2667Z" fill="#3A5C00"/>
<path d="M24.9812 53.7913L21.1184 51.5549L19.9392 50.3757L23.802 52.6528L24.9812 53.7913Z" fill="#3A5C00"/>
<path d="M23.4359 55.6618L19.5731 53.4255L18.5159 52.4089L22.3788 54.686L23.4359 55.6618Z" fill="#3A5C00"/>
<path d="M23.802 52.6528L24.9812 53.7913L36.651 65.0952L37.4235 65.8271L36.9763 66.7623L37.4235 66.8843L36.651 67.9822L36.4477 68.2668L23.436 55.6618L22.3788 54.6859L23.802 52.6528Z" fill="#71B500"/>
<path d="M22.3788 54.6858L18.5159 52.4088L19.9391 50.3757L23.8019 52.6528L22.3788 54.6858Z" fill="#3D6200"/>
<path d="M37.9928 8.90125L34.13 6.6648C35.0314 5.95562 36.1053 5.49897 37.2414 5.34177C38.3775 5.18457 39.535 5.33248 40.5951 5.77025L44.458 8.0067C43.3979 7.56893 42.2404 7.42102 41.1043 7.57822C39.9682 7.73542 38.8942 8.19207 37.9928 8.90125Z" fill="#4C7900"/>
<path d="M33.8859 42.6501L30.0638 40.4138C29.2587 39.9422 28.5761 39.2874 28.0714 38.5027C26.5669 36.429 20.793 14.3905 34.1299 6.66479L37.9926 8.90124C24.6557 16.6269 30.4296 38.6653 31.8934 40.739C32.4197 41.5058 33.0979 42.1562 33.8859 42.6501Z" fill="#4C7900"/>
<path d="M37.9929 8.90113C49.3781 2.35466 49.7847 19.717 43.4009 35.0463C42.455 37.9295 40.7059 40.4827 38.3589 42.406V40.1696L36.6104 41.1861V43.1379C35.6756 43.2446 34.7301 43.0739 33.8915 42.6474C33.0529 42.2208 32.3581 41.5572 31.8937 40.7389C30.4299 38.6652 24.656 16.6268 37.9929 8.90113Z" fill="#71B500"/>
<path d="M12.661 31.7529L8.7981 29.5164C9.90679 28.8413 11.1799 28.4841 12.4779 28.4841C13.776 28.4841 15.0491 28.8413 16.1578 29.5164L20.0207 31.7934C18.912 31.1183 17.6389 30.7612 16.3408 30.7612C15.0427 30.7612 13.7697 31.1183 12.661 31.7934V31.7529Z" fill="#4C7900"/>
<path d="M10.5465 56.2309L6.68372 53.9946C1.51973 50.9856 -3.56293 44.8864 3.39016 34.9244C4.79174 32.7609 6.63459 30.9179 8.79806 29.5164L12.6609 31.7528C10.4975 33.1544 8.6545 34.9972 7.25291 37.1607C0.25916 47.1227 5.38248 53.4253 10.5465 56.2309Z" fill="#4C7900"/>
<path d="M12.6608 31.753C19.8172 27.6869 25.9977 35.1686 26.7296 45.7405C27.0646 48.5702 26.4496 51.4309 24.9812 53.8728L23.802 52.7343L22.3788 54.7674L23.436 55.7839C22.8499 56.2932 22.2245 56.7555 21.5656 57.1664C20.1702 57.9621 18.6139 58.4346 17.0116 58.5488C14.3279 58.7928 -3.31917 52.5309 7.25278 37.2422C8.64534 35.0493 10.4889 33.1782 12.6608 31.753Z" fill="#71B500"/>
</svg>
