<svg width="21" height="63" viewBox="0 0 21 63" fill="none" xmlns="http://www.w3.org/2000/svg">
<path d="M2.06441 33.5824L4.16445 32.3721C3.5084 31.9633 2.80263 31.6404 2.06441 31.4111L0 32.6213C0.728113 32.8477 1.42244 33.171 2.06441 33.5824Z" fill="#A9810B"/>
<path d="M9.57483 62.0933L11.6393 60.8831L11.6749 44.0471L9.61042 45.2573L9.57483 62.0933Z" fill="#896809"/>
<path d="M8.2934 44.5096L10.3579 43.2994V40.6299L8.2934 41.8401V44.5096Z" fill="#896809"/>
<path d="M8.29336 41.7691L10.3579 40.559C9.84835 38.8264 9.05446 37.1904 8.00866 35.7181C6.98842 34.2775 5.67915 33.0653 4.16443 32.1587L2.06439 33.369C3.59911 34.2619 4.92259 35.4761 5.94414 36.9284C6.99636 38.3969 7.7908 40.0339 8.29336 41.7691Z" fill="#A9810B"/>
<path d="M2.06441 33.5824C1.42244 33.171 0.728113 32.8477 0 32.6213C0.350885 35.4015 1.37742 38.0535 2.98989 40.3453C4.00268 41.8053 5.32803 43.0212 6.86964 43.9047C7.32172 44.1846 7.79824 44.4228 8.29338 44.6165V41.7691C7.79082 40.0338 6.99637 38.3968 5.94416 36.9283C4.89974 35.5534 3.57791 34.4134 2.06441 33.5824Z" fill="#FDC011"/>
<path d="M9.61035 45.2573L11.6748 44.047L11.7104 41.4131L9.64595 42.5877L9.61035 45.2573Z" fill="#896809"/>
<path d="M2.10004 26.4638L4.16445 25.2535C3.51202 24.838 2.80534 24.5146 2.06441 24.2925L0 25.5027C0.740926 25.7248 1.44761 26.0483 2.10004 26.4638Z" fill="#A9810B"/>
<path d="M9.64594 42.5877L11.7104 41.4131V36.9282L9.64594 38.1384V42.5877Z" fill="#896809"/>
<path d="M8.32904 37.3554L10.3935 36.1808V33.5112L8.32904 34.7214V37.3554Z" fill="#896809"/>
<path d="M8.29338 34.65L10.3934 33.4755C9.89085 31.7402 9.09641 30.1031 8.04419 28.6346C7.02265 27.1823 5.69917 25.9681 4.16445 25.0752L2.10004 26.2854C3.62761 27.188 4.94921 28.4005 5.97978 29.8448C7.01468 31.3056 7.79675 32.93 8.29338 34.65Z" fill="#A9810B"/>
<path d="M2.10004 26.4636C1.44761 26.048 0.740926 25.7246 0 25.5024C0.388124 28.2731 1.41138 30.9166 2.98989 33.2264C4.03111 34.6613 5.35057 35.8718 6.86964 36.7858C7.32931 37.0518 7.80476 37.2895 8.29338 37.4976V34.6502C7.79676 32.9301 7.01469 31.3058 5.97978 29.8449C4.93071 28.4649 3.6104 27.3143 2.10004 26.4636Z" fill="#FDC011"/>
<path d="M9.64594 38.1385L11.7104 36.9283V34.2588L9.64594 35.469V38.1385Z" fill="#896809"/>
<path d="M2.13556 19.309L4.20008 18.1343C3.54403 17.7255 2.83827 17.4026 2.10004 17.1733L0.0355225 18.348C0.75859 18.6154 1.46057 18.9366 2.13556 19.309Z" fill="#A9810B"/>
<path d="M9.64594 35.4685L11.7104 34.2583L11.746 29.8091L9.64594 31.0193V35.4685Z" fill="#896809"/>
<path d="M15.8393 41.5197L17.9038 40.3095C16.7657 39.5339 15.3971 39.1698 14.024 39.2772C13.7352 39.318 13.4571 39.4148 13.2053 39.5621L11.1408 40.7722C11.3981 40.6292 11.6735 40.5214 11.9595 40.4519C13.3347 40.3742 14.6975 40.7492 15.8393 41.5197Z" fill="#A9810B"/>
<path d="M8.32904 30.2365L10.3935 29.0619L10.4291 26.3923L8.32904 27.6025V30.2365Z" fill="#896809"/>
<path d="M15.7682 46.9302L17.8326 45.7199C19.0382 44.7318 19.8161 43.3165 20.0039 41.769L17.9394 42.9792C17.7445 44.5244 16.9681 45.9374 15.7682 46.9302Z" fill="#A9810B"/>
<path d="M15.8393 41.5197C14.6976 40.7492 13.3348 40.3742 11.9596 40.4519C11.4294 40.6018 10.9413 40.8727 10.5337 41.2433C10.126 41.6139 9.80994 42.0741 9.61035 42.5876V45.3283C10.069 45.6606 10.5442 45.9695 11.0341 46.2538C12.1758 47.0243 13.5387 47.3993 14.9139 47.3216C17.4055 46.8233 17.9038 43.2282 17.9394 43.0502C17.2929 42.4704 16.5893 41.9576 15.8393 41.5197Z" fill="#FDC011"/>
<path d="M17.9393 42.9791L20.0039 41.7689C19.3439 41.2273 18.6416 40.7393 17.9038 40.3096L15.8393 41.5198C16.5861 41.9352 17.2896 42.4241 17.9393 42.9791Z" fill="#A9810B"/>
<path d="M8.32901 27.5314L10.3934 26.3212C9.8968 24.6012 9.11473 22.9768 8.07982 21.516C7.04926 20.0716 5.72765 18.8591 4.20008 17.9565L2.13556 19.1312C3.65541 20.0309 4.966 21.2444 5.97978 22.6906C7.02434 24.1507 7.8183 25.7746 8.32901 27.4957V27.5314Z" fill="#A9810B"/>
<path d="M2.13556 19.3091C1.46057 18.9367 0.758591 18.6155 0.0355225 18.3481C0.397417 21.1365 1.42271 23.7974 3.02542 26.1076C4.05756 27.5506 5.37895 28.7628 6.90527 29.667C7.36149 29.9394 7.83737 30.1773 8.32901 30.3789V27.5314C7.8183 25.8103 7.02434 24.1863 5.97979 22.7262C4.95081 21.3314 3.6413 20.1675 2.13556 19.3091Z" fill="#FDC011"/>
<path d="M9.64594 31.0197L11.746 29.8095V27.1399L9.68153 28.3501L9.64594 31.0197Z" fill="#896809"/>
<path d="M2.13556 12.1904L4.20008 10.9802C3.5527 10.5878 2.85923 10.2769 2.13556 10.0547L0.0355225 11.2294C0.761791 11.4889 1.46438 11.8104 2.13556 12.1904Z" fill="#A9810B"/>
<path d="M9.68158 28.3499L11.746 27.1397V22.6904L9.68158 23.9006V28.3499Z" fill="#896809"/>
<path d="M15.8749 34.4011L17.9393 33.1909C16.7954 32.4252 15.4342 32.0506 14.0596 32.1231C13.7716 32.1863 13.4954 32.2944 13.241 32.4434L11.1765 33.6536C11.4309 33.5046 11.7072 33.3965 11.9952 33.3333C13.3698 33.2608 14.731 33.6354 15.8749 34.4011Z" fill="#A9810B"/>
<path d="M8.36456 23.1178L10.429 21.9076V19.2737L8.36456 20.4839V23.1178Z" fill="#896809"/>
<path d="M15.7682 39.7755L17.8682 38.6008C19.0739 37.6127 19.8516 36.1974 20.0394 34.6499L17.9394 35.8601C17.8628 36.6261 17.6308 37.3684 17.2574 38.0416C16.8841 38.7148 16.3774 39.3048 15.7682 39.7755Z" fill="#A9810B"/>
<path d="M17.9393 35.8605L20.0394 34.6503C19.382 34.1052 18.6795 33.6169 17.9393 33.1909L15.8749 34.4011C16.6071 34.822 17.2983 35.3106 17.9393 35.8605Z" fill="#A9810B"/>
<path d="M15.8749 34.4011C14.731 33.6354 13.3698 33.2608 11.9952 33.3333C11.465 33.4832 10.9769 33.7541 10.5692 34.1246C10.1616 34.4952 9.84552 34.9555 9.64594 35.469V38.2097C10.0375 38.4589 10.5358 38.8148 11.1053 39.1352C12.2434 39.9108 13.612 40.2748 14.9851 40.1673C17.441 39.7046 17.9749 36.1096 17.9749 35.9316C17.3257 35.3552 16.6224 34.8427 15.8749 34.4011Z" fill="#FDC011"/>
<path d="M2.13556 12.19C1.46438 11.8101 0.761791 11.4886 0.0355225 11.229C0.415794 14.0127 1.43948 16.6694 3.02542 18.9885C4.06663 20.4234 5.3862 21.6339 6.90527 22.5479L8.32901 23.2597V20.4122C7.8183 18.6911 7.02434 17.0671 5.97979 15.607C4.94926 14.2137 3.64007 13.0501 2.13556 12.19Z" fill="#FDC011"/>
<path d="M8.36453 20.4125L10.429 19.2023C9.91834 17.4812 9.12438 15.8572 8.07982 14.3971C7.04382 12.9575 5.72332 11.7461 4.20008 10.8376L2.13556 12.0478C3.66698 12.9452 4.98969 14.1586 6.01541 15.6072C7.05997 17.0674 7.85382 18.6914 8.36453 20.4125Z" fill="#A9810B"/>
<path d="M9.68158 23.901L11.746 22.6908V20.0212L9.68158 21.2314V23.901Z" fill="#896809"/>
<path d="M2.17121 5.07144L4.23573 3.86126C3.56073 3.48884 2.85865 3.16752 2.13558 2.90015L0.071167 4.11044C0.794235 4.37782 1.49621 4.69903 2.17121 5.07144Z" fill="#A9810B"/>
<path d="M9.68158 21.231L11.746 20.0208L11.7816 15.5715L9.71717 16.7817L9.68158 21.231Z" fill="#896809"/>
<path d="M15.8749 27.282L17.9749 26.0718C16.8179 25.3057 15.4454 24.9314 14.0596 25.004C13.7735 25.0735 13.4982 25.1812 13.241 25.3243L11.1765 26.5345C11.4337 26.3914 11.7091 26.2837 11.9952 26.2142C13.3721 26.12 14.7401 26.4964 15.8749 27.282Z" fill="#A9810B"/>
<path d="M8.36456 15.9987L10.4646 14.7885V12.1545L8.40016 13.3291L8.36456 15.9987Z" fill="#896809"/>
<path d="M15.8038 32.6568L17.8682 31.4821C19.0827 30.5014 19.8626 29.0822 20.0394 27.5312L17.975 28.7414C17.7856 30.2785 17.0073 31.6821 15.8038 32.6568Z" fill="#A9810B"/>
<path d="M17.975 28.7413L20.0394 27.5311C19.3983 26.9813 18.7072 26.4927 17.975 26.0718L15.8749 27.282C16.6309 27.6825 17.3359 28.1725 17.975 28.7413Z" fill="#A9810B"/>
<path d="M15.8749 27.2822C14.7401 26.4967 13.3721 26.1202 11.9952 26.2144C11.465 26.3643 10.9769 26.6351 10.5692 27.0057C10.1616 27.3763 9.84552 27.8366 9.64594 28.3501V31.0908C10.0944 31.4482 10.5705 31.7695 11.0697 32.0518C12.2101 32.8222 13.5769 33.1858 14.9494 33.084C17.441 32.6213 17.9394 29.0263 17.9749 28.8483C17.3419 28.2421 16.6366 27.7161 15.8749 27.2822Z" fill="#FDC011"/>
<path d="M2.17121 5.07135C1.49621 4.69894 0.794235 4.37773 0.071167 4.11035C0.441072 6.89667 1.46566 9.55573 3.06106 11.8698C4.0932 13.3128 5.41449 14.525 6.9408 15.4293L8.36455 16.1411V13.2936C7.86847 11.5623 7.08651 9.92624 6.05095 8.45284C4.99198 7.08215 3.67371 5.93315 2.17121 5.07135Z" fill="#FDC011"/>
<path d="M8.36455 13.2938L10.4291 12.0836C9.93244 10.3636 9.15037 8.73925 8.11547 7.27841C7.081 5.83754 5.76019 4.62577 4.23572 3.71899L2.1712 4.92918C3.69027 5.84319 5.00974 7.05372 6.05095 8.48859C7.08651 9.962 7.86847 11.5982 8.36455 13.3294V13.2938Z" fill="#A9810B"/>
<path d="M8.40021 12.475L10.4647 11.2648V10.6597L8.40021 11.8343V12.475Z" fill="#896809"/>
<path d="M9.7171 16.7819L11.7816 15.5717V12.9021L9.7171 14.1123V16.7819Z" fill="#896809"/>
<path d="M9.7171 14.1122L11.7816 12.902V11.9766L9.7171 13.1868V14.1122Z" fill="#896809"/>
<path d="M9.7171 13.1867L11.7816 11.9765V11.407L9.7171 12.6172V13.1867Z" fill="#896809"/>
<path d="M8.40013 11.8342V12.4749V13.3292L8.36453 15.9987V20.4836V23.1176L8.32894 27.6024V30.2364V34.7212V37.3552L8.29335 41.8401V44.5096L8.25775 61.3101L9.57473 62.0931L9.61033 45.2571L9.64592 42.5875V38.1383V35.4687V31.0195L9.68152 28.3499V23.9006V21.2311L9.71711 16.7818V14.1123V13.1868V12.6173L8.40013 11.8342Z" fill="#FDC011"/>
<path d="M9.71719 12.6173L11.7816 11.4071L10.4647 10.6597L8.40021 11.8343L9.71719 12.6173Z" fill="#836409"/>
<path d="M15.9105 20.1633L17.975 18.9531C16.8402 18.1676 15.4721 17.7911 14.0952 17.8853C13.8092 17.9548 13.5338 18.0625 13.2765 18.2056L11.2121 19.4158C11.4665 19.2668 11.7427 19.1587 12.0307 19.0955C13.4088 18.9895 14.7808 19.3671 15.9105 20.1633Z" fill="#A9810B"/>
<path d="M15.8393 25.5379L17.9038 24.3277C19.1073 23.353 19.8856 21.9494 20.075 20.4124L18.0106 21.5869C17.83 23.1367 17.0508 24.5546 15.8393 25.5379Z" fill="#A9810B"/>
<path d="M18.0106 21.5873L20.075 20.4127C19.4253 19.8577 18.7218 19.3688 17.975 18.9534L15.9106 20.1636C16.6455 20.5845 17.3475 21.0605 18.0106 21.5873Z" fill="#A9810B"/>
<path d="M15.9105 20.1634C14.7808 19.3672 13.4088 18.9897 12.0307 19.0956C11.5006 19.2455 11.0125 19.5164 10.6049 19.887C10.1972 20.2575 9.88117 20.7178 9.68158 21.2313V23.972C10.13 24.3294 10.6061 24.6508 11.1053 24.933C12.2434 25.7086 13.612 26.0727 14.9851 25.9653C17.4411 25.5025 17.975 21.9075 18.0106 21.6939C17.3511 21.1303 16.649 20.6186 15.9105 20.1634Z" fill="#FDC011"/>
<path d="M15.9105 13.0088L18.0106 11.8342C16.8734 11.0538 15.5072 10.6778 14.1308 10.7664C13.8409 10.8231 13.5635 10.9316 13.3121 11.0867L11.2121 12.2969C11.4693 12.1538 11.7446 12.0461 12.0307 11.9766C13.4037 11.8691 14.7724 12.2333 15.9105 13.0088Z" fill="#A9810B"/>
<path d="M9.11208 1.22727L11.1765 0.0170857C11.095 -0.00569525 11.0088 -0.00569525 10.9273 0.0170857L8.82727 1.22727H9.11208Z" fill="#A9810B"/>
<path d="M9.68164 13.2939L11.7817 12.1193C12.4091 11.6148 12.9142 10.975 13.2594 10.2476C13.6046 9.5203 13.7809 8.72423 13.7749 7.91916C13.5233 5.16594 12.6336 2.50924 11.1765 0.159668L9.11212 1.36985C10.564 3.70887 11.4534 6.35287 11.7104 9.09383C11.7257 9.90404 11.5501 10.7064 11.1976 11.4361C10.8451 12.1658 10.3258 12.8022 9.68164 13.2939Z" fill="#A9810B"/>
<path d="M9.11208 1.22705C8.25852 1.64984 7.54742 2.31338 7.06668 3.13569C6.58594 3.95801 6.35659 4.90315 6.40689 5.85435C6.56239 8.1787 7.23093 10.4397 8.36453 12.4748V11.8341L9.6816 12.6172V13.2935C10.3258 12.8019 10.8451 12.1654 11.1976 11.4357C11.55 10.706 11.7257 9.90364 11.7104 9.09343C11.4751 6.30344 10.5849 3.60825 9.11208 1.22705Z" fill="#FDC011"/>
<path d="M18.0106 14.4682L20.075 13.2936C19.4441 12.7309 18.7516 12.2413 18.0106 11.8342L15.9106 13.0089C16.6484 13.4386 17.3506 13.9265 18.0106 14.4682Z" fill="#A9810B"/>
<path d="M15.8393 18.4193L17.9038 17.2091C18.513 16.7384 19.0197 16.1484 19.3931 15.4752C19.7664 14.802 19.9984 14.0597 20.075 13.2937L18.0106 14.4683C17.9268 15.2374 17.6917 15.9824 17.3191 16.6604C16.9465 17.3384 16.4436 17.9362 15.8393 18.4193Z" fill="#A9810B"/>
<path d="M15.9105 13.009C14.7725 12.2334 13.4037 11.8692 12.0307 11.9767C11.5042 12.1229 11.0185 12.3884 10.6111 12.7526C10.2037 13.1168 9.88569 13.5699 9.68158 14.0768V16.8531C10.1388 17.1985 10.614 17.5193 11.1053 17.8141C12.2458 18.5845 13.6126 18.9481 14.9851 18.8463C17.4767 18.348 17.975 14.7886 18.0106 14.575C17.3545 13.9965 16.6522 13.4728 15.9105 13.009Z" fill="#FDC011"/>
</svg>
