<svg width="300" height="174" viewBox="0 0 300 174" fill="none" xmlns="http://www.w3.org/2000/svg">
<path d="M0 86.8796L149.525 173.759L300 86.8796L150.515 0L0 86.8796Z" fill="#67432D"/>
    <g id="sprouts" class="sprouts">
        <path d="M174.581 159.69L163.896 165.743L14.0625 79.5048L24.7085 73.4517L174.581 159.69Z" fill="#8F5D3E"/>
        <path d="M175.724 158.904L165.078 164.957L15.2451 78.7186L25.8517 72.6654L175.724 158.904Z" fill="#422B1D"/>
        <path d="M181.206 155.877L175.883 158.904L26.0103 72.6655L31.3333 69.6389L181.206 155.877Z" fill="#2E1E14"/>
        <path d="M34.0535 83.1995C33.6592 84.2214 31.806 84.3787 29.8739 83.6319C27.9419 82.8851 26.759 81.4701 27.1533 80.4481C27.5476 79.4261 29.4402 79.2689 31.3328 80.055C33.2254 80.8411 34.4478 82.2168 34.0535 83.1995Z" fill="#559002"/>
        <path d="M49.4705 91.2968C49.0762 92.2795 47.223 92.476 45.2909 91.7291C43.3589 90.9823 42.176 89.528 42.5703 88.5453C42.9646 87.5627 44.8572 87.3661 46.7498 88.1129C48.6424 88.8597 49.8648 90.2749 49.4705 91.2968Z" fill="#559002"/>
        <path d="M65.2818 100.337C64.8875 101.359 62.9949 101.516 61.1022 100.769C59.2096 100.023 57.9873 98.6075 58.3816 97.5855C58.7759 96.5636 60.629 96.4064 62.5611 97.1532C64.4932 97.9 65.6761 99.3544 65.2818 100.337Z" fill="#559002"/>
        <path d="M80.6988 108.434C80.3045 109.417 78.4118 109.614 76.5192 108.867C74.6266 108.12 73.4043 106.665 73.7986 105.683C74.1928 104.7 76.046 104.504 77.9781 105.25C79.9102 105.997 81.0931 107.412 80.6988 108.434Z" fill="#559002"/>
        <path d="M94.8942 117.475C94.4999 118.457 92.6466 118.654 90.754 117.907C88.8614 117.16 87.5996 115.745 88.0333 114.723C88.4671 113.701 90.2809 113.544 92.1735 114.291C94.0662 115.038 95.3279 116.492 94.8942 117.475Z" fill="#559002"/>
        <path d="M110.31 125.572C109.916 126.555 108.063 126.751 106.17 125.965C104.278 125.179 103.016 123.803 103.41 122.82C103.804 121.838 105.697 121.641 107.59 122.388C109.482 123.135 110.705 124.55 110.31 125.572Z" fill="#559002"/>
        <path d="M126.122 134.612C125.728 135.595 123.874 135.792 121.942 135.045C120.01 134.298 118.827 132.844 119.222 131.861C119.616 130.878 121.509 130.682 123.401 131.429C125.294 132.175 126.516 133.63 126.122 134.612Z" fill="#559002"/>
        <path d="M141.421 142.709C141.026 143.692 139.173 143.889 137.241 143.103C135.309 142.316 134.126 140.941 134.52 139.958C134.915 138.975 136.807 138.739 138.7 139.526C140.593 140.312 141.933 141.687 141.421 142.709Z" fill="#559002"/>
        <path d="M158.612 153.243C158.218 154.265 156.325 154.423 154.433 153.676C152.54 152.929 151.318 151.514 151.712 150.492C152.106 149.47 153.96 149.313 155.892 150.099C157.824 150.885 159.007 152.261 158.612 153.243Z" fill="#559002"/>
        <path d="M213.104 137.521L202.418 143.574L52.585 57.336L63.231 51.2828L213.104 137.521Z" fill="#8F5D3E"/>
        <path d="M214.248 136.735L203.602 142.788L53.7686 56.5498L64.4146 50.4966L214.248 136.735Z" fill="#422B1D"/>
        <path d="M219.728 133.747L214.405 136.735L64.5723 50.4966L69.8953 47.5093L219.728 133.747Z" fill="#2E1E14"/>
        <path d="M72.5764 61.0308C72.1821 62.0528 70.3289 62.2493 68.3969 61.4631C66.4648 60.677 65.2819 59.3013 65.6762 58.2793C66.0705 57.2574 67.9631 57.1002 69.8558 57.8864C71.7484 58.6725 72.9707 60.0482 72.5764 61.0308Z" fill="#559002"/>
        <path d="M87.9929 69.1279C87.5986 70.1106 85.7454 70.3072 83.8134 69.5604C81.8813 68.8135 80.6984 67.3591 81.0927 66.3764C81.487 65.3938 83.3796 65.1973 85.2723 65.9441C87.1649 66.691 88.3872 68.1453 87.9929 69.1279Z" fill="#559002"/>
        <path d="M103.804 78.1682C103.41 79.1901 101.557 79.3867 99.6249 78.6006C97.6929 77.8145 96.5099 76.4388 96.9042 75.4168C97.2985 74.3948 99.1912 74.2376 101.084 75.0237C102.976 75.8098 104.199 77.1855 103.804 78.1682Z" fill="#559002"/>
        <path d="M119.222 86.2655C118.828 87.2482 116.935 87.4447 115.043 86.6978C113.15 85.951 111.928 84.4967 112.322 83.514C112.716 82.5314 114.569 82.3348 116.502 83.0816C118.434 83.8284 119.616 85.2829 119.222 86.2655Z" fill="#559002"/>
        <path d="M133.534 95.306C133.1 96.328 131.247 96.4852 129.355 95.7383C127.462 94.9915 126.24 93.5765 126.634 92.5545C127.028 91.5326 128.881 91.3754 130.577 92.1616C132.272 92.9477 133.85 94.3234 133.534 95.306Z" fill="#559002"/>
        <path d="M148.834 103.403C148.439 104.386 146.586 104.582 144.693 103.835C142.801 103.088 141.539 101.634 141.973 100.651C142.407 99.6688 144.22 99.4723 146.113 100.219C148.006 100.966 149.307 102.42 148.834 103.403Z" fill="#559002"/>
        <path d="M164.644 112.443C164.25 113.465 162.397 113.623 160.504 112.876C158.612 112.129 157.35 110.714 157.744 109.692C158.138 108.67 160.031 108.513 161.924 109.26C163.816 110.006 165.078 111.461 164.644 112.443Z" fill="#559002"/>
        <path d="M180.061 120.541C179.667 121.523 177.814 121.72 175.882 120.973C173.95 120.226 172.767 118.772 173.161 117.789C173.555 116.807 175.448 116.61 177.341 117.357C179.233 118.104 180.456 119.519 180.061 120.541Z" fill="#559002"/>
        <path d="M197.135 131.075C196.741 132.097 194.888 132.293 192.955 131.507C191.023 130.721 189.841 129.345 190.235 128.323C190.629 127.301 192.522 127.144 194.414 127.93C196.307 128.716 197.529 130.092 197.135 131.075Z" fill="#559002"/>
        <path d="M245.87 118.143L235.224 124.196L85.3911 37.9187L96.0371 31.9048L245.87 118.143Z" fill="#8F5D3E"/>
        <path d="M247.053 117.357L236.407 123.371L86.5347 37.1326L97.1807 31.1188L247.053 117.357Z" fill="#422B1D"/>
        <path d="M252.534 114.33L247.211 117.357L97.3384 31.1186L102.661 28.092L252.534 114.33Z" fill="#2E1E14"/>
        <path d="M105.382 41.6528C104.988 42.6354 103.135 42.8319 101.203 42.0851C99.2705 41.3383 98.0876 39.8839 98.4819 38.9013C98.8762 37.9186 100.769 37.7222 102.662 38.469C104.554 39.2158 105.934 40.6701 105.382 41.6528Z" fill="#559002"/>
        <path d="M120.799 49.7104C120.405 50.7324 118.512 50.8897 116.619 50.1428C114.727 49.396 113.504 47.981 113.899 46.959C114.293 45.9371 116.146 45.7798 118.078 46.5659C120.01 47.3521 121.193 48.7277 120.799 49.7104Z" fill="#559002"/>
        <path d="M136.61 58.7903C136.216 59.773 134.323 59.9696 132.43 59.2227C130.538 58.4759 129.315 57.0216 129.71 56.0389C130.104 55.0563 131.957 54.8597 133.889 55.6065C135.821 56.3533 137.004 57.8076 136.61 58.7903Z" fill="#559002"/>
        <path d="M152.027 66.8482C151.594 67.8702 149.74 68.0273 147.848 67.2805C145.955 66.5337 144.733 65.1187 145.127 64.0967C145.521 63.0747 147.375 62.9176 149.267 63.6644C151.16 64.4112 152.422 66.0621 152.027 66.8482Z" fill="#559002"/>
        <path d="M166.222 75.9279C165.828 76.9106 163.974 77.1071 162.082 76.3602C160.189 75.6134 158.927 74.1591 159.322 73.1764C159.716 72.1938 161.609 71.9973 163.501 72.7441C165.394 73.4909 166.656 74.906 166.222 75.9279Z" fill="#559002"/>
        <path d="M181.638 83.9857C181.244 85.0077 179.391 85.165 177.459 84.4181C175.527 83.6713 174.344 82.2562 174.738 81.2342C175.133 80.2122 177.025 80.0551 178.918 80.8019C180.81 81.5487 182.033 83.003 181.638 83.9857Z" fill="#559002"/>
        <path d="M197.451 93.0654C197.057 94.0481 195.203 94.2446 193.271 93.4978C191.339 92.751 190.156 91.2967 190.551 90.314C190.945 89.3314 192.838 89.1348 194.73 89.8816C196.623 90.6284 197.845 92.0434 197.451 93.0654Z" fill="#559002"/>
        <path d="M212.867 101.123C212.473 102.106 210.58 102.302 208.688 101.556C206.795 100.809 205.573 99.3545 205.967 98.3718C206.361 97.3892 208.254 97.1926 210.147 97.9394C212.039 98.6862 213.262 100.141 212.867 101.123Z" fill="#559002"/>
        <path d="M229.94 111.697C229.546 112.679 227.654 112.876 225.761 112.129C223.868 111.382 222.646 109.928 223.04 108.945C223.435 107.963 225.288 107.766 227.22 108.513C229.152 109.26 230.335 110.714 229.94 111.697Z" fill="#559002"/>
        <path d="M280.845 98.254L270.199 104.268L120.366 18.0297L131.012 12.0159L280.845 98.254Z" fill="#8F5D3E"/>
        <path d="M282.027 97.4678L271.381 103.482L121.509 17.2435L132.155 11.2297L282.027 97.4678Z" fill="#422B1D"/>
        <path d="M287.508 94.4413L282.185 97.4678L132.312 11.1904L137.636 8.20312L287.508 94.4413Z" fill="#2E1E14"/>
        <path d="M140.356 21.7639C139.962 22.7465 138.069 22.943 136.176 22.1568C134.284 21.3707 133.061 19.995 133.456 19.0124C133.85 18.0297 135.743 17.8332 137.635 18.5801C139.528 19.3269 140.75 20.7419 140.356 21.7639Z" fill="#559002"/>
        <path d="M155.773 29.8215C155.379 30.8042 153.486 31.0008 151.593 30.254C149.701 29.5072 148.478 28.0527 148.873 27.07C149.267 26.0874 151.12 25.8909 153.052 26.6377C154.984 27.3846 156.167 28.8389 155.773 29.8215Z" fill="#559002"/>
        <path d="M171.585 38.9012C171.19 39.8838 169.298 40.0804 167.405 39.2942C165.512 38.5081 164.29 37.1324 164.684 36.1498C165.079 35.1671 166.932 34.9312 168.864 35.7174C170.796 36.5035 171.979 37.8792 171.585 38.9012Z" fill="#559002"/>
        <path d="M186.962 46.9591C186.568 47.9417 184.715 48.1382 182.822 47.3914C180.929 46.6446 179.667 45.1902 180.101 44.2076C180.535 43.2249 182.349 43.0283 184.241 43.7751C186.134 44.522 187.396 45.9764 186.962 46.9591Z" fill="#559002"/>
        <path d="M201.197 56.039C200.802 57.0217 198.949 57.2181 197.017 56.432C195.085 55.6459 193.902 54.2702 194.296 53.2875C194.691 52.3049 196.583 52.0691 198.476 52.8552C200.369 53.6413 201.591 55.0171 201.197 56.039Z" fill="#559002"/>
        <path d="M216.613 64.0968C216.218 65.0795 214.365 65.2759 212.433 64.5291C210.501 63.7823 209.318 62.328 209.712 61.3453C210.107 60.3627 211.999 60.1662 213.892 60.913C215.785 61.6598 217.007 63.1141 216.613 64.0968Z" fill="#559002"/>
        <path d="M232.425 73.1372C232.031 74.1592 230.138 74.3557 228.245 73.5696C226.353 72.7835 225.13 71.4077 225.525 70.425C225.919 69.4424 227.812 69.2066 229.704 69.9927C231.597 70.7789 232.819 72.1545 232.425 73.1372Z" fill="#559002"/>
        <path d="M247.881 81.2341C247.487 82.2168 245.594 82.4133 243.701 81.6665C241.809 80.9197 240.586 79.4654 240.981 78.4827C241.375 77.5001 243.228 77.3035 245.16 78.0503C247.092 78.7971 248.236 80.2514 247.881 81.2341Z" fill="#559002"/>
        <path d="M264.914 91.8076C264.52 92.7902 262.627 92.9868 260.735 92.2007C258.842 91.4145 257.62 90.0389 258.014 89.0562C258.408 88.0735 260.261 87.877 262.193 88.6238C264.125 89.3706 265.308 90.7856 264.914 91.8076Z" fill="#559002"/>

    </g>
</svg>
