<svg width="64" height="31" viewBox="0 0 64 31" fill="none" xmlns="http://www.w3.org/2000/svg">
<path d="M3.26278 9.64063C2.30171 10.2057 1.35095 10.843 0.703356 11.7505C0.0557653 12.6579 -0.235029 13.8892 0.222822 14.9059C0.680673 15.9227 1.77374 16.5104 2.86887 16.6424C3.964 16.7744 5.06738 16.5146 6.12745 16.2093C8.50745 15.5226 10.8709 14.578 12.7663 12.99C13.5768 12.3135 14.3234 11.4782 14.5771 10.4512C14.872 9.2591 14.443 7.97627 13.6923 6.9987C13.152 6.29336 12.5106 5.82726 11.6567 6.0995C10.7451 6.38823 9.80056 6.73678 8.88692 7.05232C6.9298 7.72341 5.04551 8.5906 3.26278 9.64063Z" fill="#EAA542"/>
<path d="M13.7128 6.87496C13.5042 6.58944 13.2481 6.34182 12.9559 6.14282C13.3514 6.92707 13.465 7.8235 13.2776 8.68161C13.0239 9.71281 12.2794 10.5378 11.4668 11.2184C9.56528 12.8064 7.21003 13.751 4.83003 14.4378C3.7679 14.743 2.66658 15.0049 1.57145 14.8709C1.05469 14.8095 0.555424 14.6454 0.103027 14.3883C0.138043 14.5241 0.184971 14.6566 0.243268 14.7842C0.694932 15.7886 1.79419 16.3888 2.88932 16.5208C3.98445 16.6528 5.08577 16.3908 6.14584 16.0856C8.5279 15.4009 10.8893 14.4563 12.7847 12.8683C13.5973 12.1898 14.3418 11.3565 14.5955 10.3295C14.8904 9.13534 14.4614 7.85047 13.7128 6.87496Z" fill="#D1913D"/>
<path d="M9.91593 12.3465C9.88499 12.5528 9.86437 12.8085 10.0294 12.9446C10.083 12.9837 10.143 13.013 10.2067 13.0312C10.9471 13.289 11.8834 13.3344 12.399 12.7466C12.7579 12.3342 12.8012 11.7464 12.7641 11.204C12.7371 10.5962 12.5765 10.002 12.2939 9.46331C11.9866 8.91884 10.2315 6.64814 9.62719 7.96189C9.40445 8.4383 9.88705 9.49631 9.94686 10.0243C10.0313 10.7967 10.0209 11.5766 9.91593 12.3465Z" fill="#D1913D"/>
<path d="M15.1403 5.98607C15.6991 6.46521 16.3681 6.79825 17.0872 6.95538C18.1296 7.18777 19.1917 7.32105 20.2592 7.35344L28.321 7.85046C29.542 7.92676 30.8083 7.99277 31.9405 7.45243C33.0728 6.91208 34.0194 5.57564 33.8359 4.17116C33.642 2.67798 32.3386 1.76023 31.1197 1.23844C28.6696 0.186622 26.0153 -0.130993 23.4084 0.0463729C20.8882 0.219614 18.4999 0.966198 16.0436 1.56635C14.173 2.02421 13.5358 4.51352 15.1403 5.98607Z" fill="#EAA542"/>
<path d="M33.7717 3.83905C33.6438 4.32172 33.4141 4.77137 33.0978 5.15773C32.7815 5.54409 32.3861 5.85817 31.9382 6.07881C30.808 6.62121 29.5396 6.55317 28.3187 6.47892L20.2589 5.98188C19.1912 5.94982 18.1291 5.81583 17.0869 5.58176C16.3678 5.42463 15.6988 5.09159 15.14 4.61245C14.7431 4.25649 14.4568 3.79407 14.3151 3.28015C14.1867 3.76324 14.1959 4.27261 14.3416 4.75074C14.4874 5.22887 14.7639 5.65672 15.14 5.98601C15.6988 6.46515 16.3678 6.79819 17.0869 6.95532C18.1293 7.1877 19.1914 7.32099 20.2589 7.35337L28.3187 7.85039C29.5396 7.9267 30.808 7.99271 31.9382 7.45237C33.0684 6.91202 34.0191 5.57558 33.8356 4.17109C33.8208 4.05925 33.7995 3.94838 33.7717 3.83905Z" fill="#D1913D"/>
<path d="M8.7653 5.08897C8.71374 6.09954 9.16128 7.06062 9.60676 7.97632C11.1041 11.0369 12.721 14.1099 15.134 16.5146C15.9589 17.3396 16.9076 18.0965 18.0213 18.4801C19.135 18.8637 20.4302 18.8286 21.3995 18.1666C22.3214 17.5355 22.8267 16.4218 22.9463 15.3102C23.0659 14.1985 22.8473 13.0807 22.5751 11.9959C21.8821 9.23231 20.6385 6.60071 18.7163 4.49707C14.8122 0.225853 9.0066 0.27535 8.7653 5.08897Z" fill="#F9B443"/>
<path d="M22.1418 16.2177C21.1746 16.8776 19.8732 16.9127 18.7657 16.5311C17.6582 16.1496 16.7157 15.3927 15.8784 14.5657C13.4654 12.1609 11.8484 9.08796 10.3511 6.02737C9.90566 5.11785 9.45813 4.15884 9.50969 3.14002C9.51731 2.96947 9.53382 2.79944 9.55918 2.63062C9.0539 3.23283 8.73423 4.05573 8.68473 5.10549C8.63317 6.11399 9.08071 7.07507 9.52618 7.99283C11.0235 11.0514 12.6404 14.1243 15.0534 16.5311C15.8784 17.3561 16.8271 18.113 17.9407 18.4966C19.0544 18.8802 20.3496 18.8431 21.3169 18.1811C22.1748 17.5974 22.6698 16.5951 22.8327 15.5659C22.6368 15.8169 22.4038 16.0366 22.1418 16.2177Z" fill="#EAA542"/>
<path d="M8.76514 4.86003C9.27455 4.83734 9.79634 4.78786 10.3037 4.76929C11.0998 4.74042 11.3493 4.3568 12.0031 4.00826C12.4898 3.7484 13.1106 3.80203 13.5705 3.50505C14.0696 3.17919 14.2346 2.53778 14.3604 1.95619C14.3893 1.82626 14.4182 1.69426 14.4408 1.56226C11.5844 0.681624 8.98169 1.73963 8.76514 4.86003Z" fill="#F7CC77"/>
<path d="M13.9972 7.88758C15.0284 9.37869 16.0596 10.8719 16.9588 12.4537C17.858 14.0356 18.5881 15.6834 19.7719 17.0322C20.0586 17.3581 20.4092 17.6819 20.8423 17.7128C20.9486 17.7269 21.0565 17.7036 21.1475 17.6468C21.3867 17.4777 21.2816 17.1044 21.1475 16.8446C18.8789 12.4207 15.3192 8.80123 12.5886 4.64963C12.3823 4.32171 11.7224 3.09046 11.2831 3.04715C10.5056 2.96878 11.248 3.92573 11.4274 4.18147L13.9972 7.88758Z" fill="#EAA542"/>
<path d="M23.6537 11.9298C24.0414 11.0265 24.6973 10.2634 25.4026 9.57661C28.0981 6.95118 31.6042 5.27242 35.234 4.28659C36.4467 3.95661 37.8079 3.71531 38.8989 4.33402C40.1074 5.01667 40.5839 6.60265 40.3096 7.96589C40.0353 9.32913 39.1546 10.4882 38.1832 11.472C35.5537 14.1531 32.0146 15.9721 28.2838 16.3536C25.4438 16.6506 22.1915 15.3327 23.6537 11.9298Z" fill="#F9B443"/>
<path d="M26.6211 10.4799C29.1423 8.64528 31.8152 7.02873 34.6108 5.64776C35.4915 5.21259 36.4195 4.79393 37.4012 4.77124L35.5327 5.79005C33.4373 6.93261 31.3357 8.07931 29.3455 9.40336C28.3338 10.0702 27.3602 10.7931 26.4293 11.5689C26.0416 11.8947 24.0699 15.1038 23.7606 14.5697C23.313 13.7921 26.1179 10.847 26.6211 10.4799Z" fill="#EAA542"/>
<path d="M38.8988 4.33402C37.8058 3.71531 36.4446 3.95661 35.234 4.28659H35.2133C35.0937 4.78982 35.7351 4.80218 36.1744 4.82281C36.3157 4.83925 36.4503 4.89194 36.5653 4.97578C36.6802 5.05961 36.7715 5.17174 36.8303 5.30127C36.9449 5.56399 37.0213 5.84181 37.0571 6.12623C37.0685 6.23633 37.1098 6.34123 37.1767 6.42942C37.2466 6.49651 37.3337 6.54289 37.4283 6.56345C38.0862 6.75732 38.8493 6.62328 39.4124 7.01307C39.6186 7.15125 39.7712 7.34717 39.9795 7.46885C40.0976 7.53792 40.2291 7.58082 40.3652 7.59465C40.491 6.32628 39.9981 4.9548 38.8988 4.33402Z" fill="#F7CC77"/>
<path d="M39.503 4.82898C39.6625 5.41348 39.6837 6.02708 39.5649 6.62119C39.2906 7.98236 38.41 9.14349 37.4386 10.1273C34.8111 12.8084 31.27 14.6274 27.5391 15.0089C25.9696 15.1698 24.2702 14.8357 23.3174 13.9262C23.6391 15.8401 26.0769 16.5764 28.2671 16.3516C32.0042 15.97 35.5432 14.153 38.1666 11.4699C39.138 10.4799 40.0228 9.3188 40.2929 7.9638C40.5115 6.87074 40.2455 5.61888 39.503 4.82898Z" fill="#EAA542"/>
<path d="M21.618 1.9458C24.6683 1.38896 27.7887 2.24074 30.7296 3.22244C30.9976 3.33614 31.2892 3.38287 31.5793 3.35856C31.7234 3.34068 31.8562 3.27135 31.9532 3.16335C32.0502 3.05535 32.1049 2.91592 32.1073 2.77076C32.0784 2.61535 31.9977 2.47432 31.8784 2.37067C31.4494 1.95819 30.8328 1.78494 30.2491 1.63851C27.8938 1.05279 25.4602 0.458835 23.0142 0.646512C22.2016 0.708384 20.9374 0.772316 20.2032 1.16005C18.6729 1.97057 21.022 2.05717 21.618 1.9458Z" fill="#F9B443"/>
<path d="M6.58347 13.9716C5.85545 14.1779 5.08411 14.5388 4.75207 15.2771C4.52488 15.8605 4.53822 16.5102 4.78919 17.0838C5.03762 17.6341 5.37953 18.1372 5.79976 18.5708C7.32597 20.2608 9.17707 21.626 11.2425 22.5849C13.308 23.5437 15.5455 24.0766 17.8214 24.1516C18.7041 24.1784 19.7023 24.0815 20.2716 23.3411C20.8408 22.6007 20.7562 21.4849 20.3685 20.6352C19.956 19.7195 19.2445 19.008 18.5123 18.3666C16.821 16.8825 14.9045 15.6768 12.8346 14.7945C11.9849 14.4357 11.065 13.9552 10.1947 13.6994C9.10165 13.3797 7.65798 13.6623 6.58347 13.9716Z" fill="#F9B443"/>
<path d="M20.6015 22.0871C20.0323 22.8275 19.0341 22.9244 18.1494 22.8976C15.8737 22.8228 13.6364 22.29 11.5713 21.3311C9.50611 20.3722 7.65542 19.0069 6.12974 17.3168C5.7086 16.884 5.36657 16.3807 5.11917 15.8298C5.00916 15.5581 4.94369 15.2705 4.92531 14.978C4.85763 15.0716 4.79959 15.1718 4.75207 15.2771C4.52488 15.8605 4.53822 16.5101 4.78919 17.0837C5.03762 17.634 5.37953 18.1372 5.79976 18.5707C7.32597 20.2608 9.17707 21.626 11.2425 22.5848C13.308 23.5437 15.5455 24.0765 17.8214 24.1515C18.7041 24.1784 19.7023 24.0814 20.2716 23.341C20.5579 22.9473 20.7033 22.4684 20.684 21.9819C20.6565 22.0176 20.629 22.0527 20.6015 22.0871Z" fill="#EAA542"/>
<path d="M17.5487 20.4208C16.6949 19.3896 15.5915 18.6079 14.5026 17.8345C12.5083 16.4218 10.4995 15.0008 8.26798 14.0067C8.03899 13.9013 7.80419 13.809 7.5647 13.7303C7.21822 13.8005 6.88618 13.8871 6.58301 13.9717C6.38893 14.0299 6.19821 14.0987 6.01172 14.1779H6.03647C6.70638 14.2939 7.36526 14.4663 8.00605 14.6935C9.32186 15.1761 10.5407 15.8835 11.739 16.6012C13.1208 17.4262 14.4985 18.2759 15.7194 19.3256C16.4598 19.9629 17.1507 20.6785 18.0169 21.1343C17.894 20.8763 17.7365 20.6362 17.5487 20.4208Z" fill="#EAA542"/>
<path d="M25.8955 24.6094C29.0716 26.9317 32.3899 29.3179 36.2074 30.0459C37.2592 30.2521 38.5421 30.2212 39.1319 29.3241C39.4763 28.8002 39.4784 28.1114 39.3691 27.4844C38.971 25.189 37.2922 23.3019 35.4113 21.9551C32.856 20.1237 29.7356 19.0822 26.6338 19.3235C23.0617 19.6019 23.2969 22.71 25.8955 24.6094Z" fill="#F9B443"/>
<path d="M39.3668 27.4803C39.1972 26.5543 38.8399 25.6728 38.3171 24.8899C38.3836 25.1141 38.4366 25.342 38.4759 25.5726C38.5852 26.1913 38.5831 26.8884 38.2387 27.4122C37.6489 28.3094 36.3681 28.3362 35.3142 28.1341C31.4926 27.4081 28.1742 25.0219 25.0023 22.6976C24.6149 22.4175 24.2631 22.0913 23.9546 21.7262C24.0556 22.6893 24.7424 23.7638 25.8912 24.6135C29.0693 26.9358 32.3877 29.322 36.2031 30.05C37.257 30.2562 38.5398 30.2253 39.1297 29.3282C39.4741 28.8002 39.4762 28.1114 39.3668 27.4803Z" fill="#EAA542"/>
<path d="M26.3326 21.1281C29.354 21.9717 32.064 23.6546 34.6688 25.4055C35.6299 26.0511 36.6013 26.7255 37.3045 27.6494C37.717 28.1898 38.0676 28.8394 38.6967 29.0931C38.7438 28.2108 38.4549 27.3435 37.8882 26.6657C37.3217 25.9981 36.6451 25.4323 35.8877 24.9931C34.6118 24.2291 33.29 23.5445 31.93 22.943C30.5976 22.3243 29.2612 21.7139 27.9207 21.1116C27.4772 20.9054 26.4956 20.2289 26.013 20.2867C25.2561 20.3795 25.9346 21.0168 26.3326 21.1281Z" fill="#EAA542"/>
<path d="M33.6728 12.9652C32.192 13.6046 30.6596 14.6151 30.3049 16.1784C30.2345 16.4581 30.2289 16.7501 30.2884 17.0322C30.4431 17.651 31.0102 18.082 31.5794 18.3769C32.7406 18.9771 34.0543 19.2349 35.3412 19.4081C38.4171 19.8278 41.5358 19.8278 44.6117 19.4081C46.0863 19.2019 47.6187 18.874 48.7488 17.9067C49.4191 17.3334 49.9265 16.4857 49.846 15.6072C49.7821 14.9059 49.3572 14.2872 48.8581 13.7902C46.0203 10.9668 40.9839 11.0431 37.3479 11.8041C36.0872 12.0674 34.856 12.4564 33.6728 12.9652Z" fill="#F9B443"/>
<path d="M34.2234 14.215C34.057 13.996 33.8467 13.8142 33.6059 13.6814C33.365 13.5485 33.0991 13.4675 32.8251 13.4436C31.6496 14.0788 30.5915 14.976 30.3049 16.2485C30.2345 16.5281 30.2289 16.8201 30.2884 17.1023C30.4431 17.721 31.0102 18.1541 31.5794 18.447C31.9767 18.651 32.3907 18.8208 32.8169 18.9543C33.0804 18.8842 33.3335 18.7794 33.5696 18.6429C33.7074 18.5715 33.8272 18.47 33.9202 18.3459C34.0687 18.117 34.0461 17.8138 34.1636 17.5663C34.2977 17.2797 34.607 17.1023 34.7328 16.8115C34.8037 16.6048 34.8235 16.384 34.7906 16.168C34.7431 15.4833 34.6338 14.7656 34.2234 14.215Z" fill="#F7CC77"/>
<path d="M49.8461 15.6051C49.7822 14.9039 49.3573 14.2851 48.8582 13.7881C48.5537 13.4823 48.2209 13.206 47.8642 12.9631C48.3426 13.4519 48.7448 14.0541 48.8067 14.7327C48.8871 15.6133 48.3798 16.4589 47.7095 17.0343C46.5793 18.0016 45.0469 18.3336 43.5744 18.5357C40.495 18.9551 37.373 18.9551 34.2936 18.5357C32.9984 18.3584 31.6929 18.1026 30.5318 17.5045L30.4844 17.4777C30.7669 17.86 31.1405 18.1656 31.5713 18.3666C32.7324 18.9668 34.0461 19.2246 35.3331 19.3978C38.409 19.8175 41.5276 19.8175 44.6035 19.3978C46.0781 19.1916 47.6105 18.8636 48.7407 17.8964C49.4192 17.3313 49.9265 16.4836 49.8461 15.6051Z" fill="#EAA542"/>
<path d="M43.197 13.1982C44.9397 13.1384 46.769 13.1982 48.2952 14.0375C48.949 14.4005 49.5718 14.9842 49.6172 15.7308C49.6316 15.937 49.5203 16.2237 49.3078 16.199C49.2019 16.1699 49.1098 16.1041 49.048 16.0133C48.3333 15.2583 47.4112 14.7315 46.3978 14.4995C45.3894 14.2727 44.3604 14.1503 43.3269 14.1345C40.8789 14.0211 38.3957 13.9509 36.0075 14.5036C35.2196 14.6851 34.4256 15.0523 33.6357 15.1678C33.5244 14.3284 37.2759 13.8355 37.9317 13.7241C39.6685 13.3987 41.4301 13.2228 43.197 13.1982Z" fill="#EAA542"/>
<path d="M57.3182 29.519C60.8239 29.519 63.6657 27.8149 63.6657 25.7128C63.6657 23.6107 60.8239 21.9066 57.3182 21.9066C53.8126 21.9066 50.9707 23.6107 50.9707 25.7128C50.9707 27.8149 53.8126 29.519 57.3182 29.519Z" fill="#2E1E14"/>
<path d="M62.091 24.287C62.0971 24.4057 62.0971 24.5247 62.091 24.6435C62.091 24.6435 62.091 24.7239 62.091 24.7699C61.8068 25.8185 61.1741 26.7391 60.2971 27.3803C59.4142 27.7566 58.4625 27.9446 57.5028 27.9322C56.3271 27.9582 55.1665 27.6641 54.1451 27.0813C53.6907 26.6944 53.3023 26.2361 52.9952 25.7244C52.9274 25.5843 52.8734 25.438 52.8342 25.2874C52.7034 24.9541 52.6371 24.599 52.6387 24.241C52.6703 23.0095 53.1713 21.8367 54.0391 20.9624C54.907 20.0881 56.0761 19.5785 57.3073 19.5378H57.4338C58.6708 19.5819 59.8436 20.0992 60.7103 20.9829C61.5769 21.8667 62.0711 23.0494 62.091 24.287Z" fill="#8934A8"/>
<path d="M57.6868 20.4923H57.6753L57.6868 20.4808V20.4923Z" fill="#71B500"/>
<path d="M57.6752 20.4923L56.9277 20.0553V20.0438L57.6867 20.4808L57.6752 20.4923Z" fill="#3E6300"/>
<path d="M57.4914 20.4348L56.7324 19.9978L56.9279 20.0553L57.6754 20.4923L57.4914 20.4348Z" fill="#395B00"/>
<path d="M57.342 20.6533L56.583 20.2163L56.7325 19.9978L57.4914 20.4348L57.342 20.6533Z" fill="#3D6200"/>
<path d="M57.3418 20.6533L57.4913 20.4348L57.6753 20.4923L57.3418 20.6878V20.6533Z" fill="#71B500"/>
<path d="M57.342 20.6878L56.583 20.2508V20.2163L57.342 20.6533V20.6878Z" fill="#3D6200"/>
<path d="M57.3988 20.4118L56.6514 19.9749L56.7319 19.9979L57.4908 20.4348L57.3988 20.4118Z" fill="#395B00"/>
<path d="M57.3988 20.4117L56.6514 19.9748L56.7319 19.7908L57.4908 20.2277L57.3988 20.4117Z" fill="#3E6300"/>
<path d="M57.4914 20.2279L56.7324 19.7909L56.9279 19.377L57.6869 19.8139L57.4914 20.2279Z" fill="#3E6300"/>
<path d="M57.4914 20.2278L56.7325 19.7908L56.583 19.6528L57.342 20.0898L57.4914 20.2278Z" fill="#3A5C00"/>
<path d="M60.1932 15.0993L59.4458 14.6623L59.6413 14.2368L60.4002 14.6738L60.1932 15.0993Z" fill="#3E6300"/>
<path d="M57.6867 19.8139L56.9277 19.3769L59.1356 14.6508L59.8945 15.0877L57.6867 19.8139Z" fill="#3E6300"/>
<path d="M59.8942 15.0877L59.1353 14.6507L59.3652 14.1677L60.1127 14.6047L59.8942 15.0877Z" fill="#3E6300"/>
<path d="M60.1127 14.6047L59.3652 14.1677L59.6412 14.2367L60.4002 14.6737L60.1127 14.6047Z" fill="#395B00"/>
<path d="M60.1132 14.6047L60.4007 14.6737L60.1937 15.0992L57.6869 20.4808L57.4914 20.4348L57.3994 20.4118L57.4914 20.2278L57.6869 19.8138L59.8947 15.0877L60.1132 14.6047Z" fill="#71B500"/>
<path d="M62.2631 8.03873L61.5156 7.60176C61.6699 7.5001 61.8434 7.43132 62.0254 7.39966C62.2074 7.36801 62.394 7.37416 62.5735 7.41777C62.6577 7.44293 62.7388 7.47765 62.815 7.52126L63.574 7.95823L63.3325 7.85474C63.1511 7.81155 62.9627 7.80557 62.7789 7.8372C62.5951 7.86882 62.4196 7.93739 62.2631 8.03873Z" fill="#4C7900"/>
<path d="M57.675 15.6512L56.916 15.2142V14.7772L57.675 15.2142V15.6512Z" fill="#3D6200"/>
<path d="M57.3417 20.0898L56.5828 19.6528L56.5713 15.3636L57.3187 15.8006L57.3417 20.0898Z" fill="#3D6200"/>
<path d="M57.3187 15.4212L56.5713 14.9842L56.9163 14.7772L57.6752 15.2142L57.3187 15.4212Z" fill="#3B5E00"/>
<path d="M57.3187 15.8007L56.5713 15.3637V14.9843L57.3187 15.4212V15.8007Z" fill="#3D6200"/>
<path d="M57.3184 15.4212L57.6748 15.2142V15.6512L57.6863 19.8139L57.4908 20.2279L57.3414 20.0899L57.3184 15.8007V15.4212Z" fill="#71B500"/>
<path d="M59.8482 15.0532L59.0893 14.6162C58.8823 14.5012 58.7558 14.1447 58.7903 13.4663C58.9283 11.247 60.1242 8.38365 61.5156 7.59021L62.2631 8.02718C60.8717 8.83212 59.6757 11.6839 59.5493 13.9033C59.5493 14.5817 59.6298 14.9382 59.8482 15.0532Z" fill="#4C7900"/>
<path d="M62.2631 8.03877C62.4197 7.93743 62.5952 7.86886 62.779 7.83724C62.9628 7.80561 63.1511 7.81159 63.3325 7.85478C65.4254 8.42974 61.9756 13.6043 61.4467 14.2138C61.1902 14.5054 60.8918 14.7573 60.5612 14.9612C60.4494 15.0264 60.3296 15.0767 60.2048 15.1107L60.4002 14.6853L60.1243 14.6048L59.8943 15.0877C59.6528 14.9958 59.5033 14.6393 59.5493 13.9378C59.7333 11.684 60.8832 8.83221 62.2631 8.03877Z" fill="#71B500"/>
<path d="M57.2959 20.7108L56.5369 20.2738L53.9956 17.813L54.7545 18.25L57.2959 20.7108Z" fill="#3A5C00"/>
<path d="M55.0531 17.882L54.3057 17.4451L54.0757 17.2151L54.8346 17.6521L55.0531 17.882Z" fill="#3A5C00"/>
<path d="M54.7542 18.2499L53.9953 17.8129L53.7998 17.6174L54.5472 18.0544L54.7542 18.2499Z" fill="#3A5C00"/>
<path d="M54.8348 17.652L55.0533 17.882L57.3417 20.0898L57.4911 20.2278L57.3991 20.4118L57.4911 20.4348L57.3417 20.6533L57.2957 20.7107L54.7543 18.2499L54.5474 18.0544L54.8348 17.652Z" fill="#71B500"/>
<path d="M54.5472 18.0545L53.7998 17.6176L54.0758 17.2151L54.8347 17.6521L54.5472 18.0545Z" fill="#3D6200"/>
<path d="M57.5946 9.10813L56.8472 8.67115C57.0215 8.53272 57.2298 8.44367 57.4503 8.41333C57.6708 8.38298 57.8954 8.41246 58.1006 8.49867L58.8595 8.93565C58.6523 8.84965 58.426 8.82031 58.2037 8.85062C57.9814 8.88093 57.7712 8.96979 57.5946 9.10813Z" fill="#4C7900"/>
<path d="M56.8013 15.6971L56.0423 15.2602C55.8942 15.162 55.7655 15.0372 55.6628 14.8922C55.3754 14.4897 54.2369 10.1775 56.8128 8.67114L57.5602 9.10812C54.9614 10.6145 56.0883 14.9267 56.4103 15.3291C56.5138 15.4775 56.6469 15.6028 56.8013 15.6971Z" fill="#4C7900"/>
<path d="M57.5946 9.10817C59.8139 7.83177 59.8944 11.224 58.6525 14.2138C58.4696 14.7759 58.1306 15.2745 57.6751 15.6512V15.2142L57.3301 15.4097V15.8007C57.1479 15.8173 56.9646 15.7818 56.8018 15.6983C56.6389 15.6149 56.5031 15.4869 56.4102 15.3292C56.1227 14.9382 54.9958 10.6146 57.5946 9.10817Z" fill="#71B500"/>
<path d="M52.6503 13.5698L51.9028 13.1328C52.1193 13.0008 52.368 12.9309 52.6215 12.9309C52.8751 12.9309 53.1238 13.0008 53.3402 13.1328L54.0877 13.5698C53.8712 13.4377 53.6225 13.3679 53.369 13.3679C53.1154 13.3679 52.8667 13.4377 52.6503 13.5698Z" fill="#4C7900"/>
<path d="M52.2363 18.388L51.4888 17.951C50.4769 17.3645 49.488 16.1686 50.8449 14.2253C51.1176 13.8009 51.4784 13.4401 51.9028 13.1674L52.6502 13.6043C52.2258 13.8771 51.865 14.2379 51.5923 14.6623C50.2354 16.6056 51.2358 17.8015 52.2363 18.388Z" fill="#4C7900"/>
<path d="M52.6499 13.5698C54.0413 12.7648 55.2602 14.2367 55.3981 16.2951C55.4599 16.8424 55.3429 17.395 55.0647 17.8704L54.8347 17.652L54.5587 18.043L54.7542 18.2384C54.6453 18.3474 54.5214 18.4404 54.3862 18.5144C54.1141 18.6684 53.8122 18.7625 53.5008 18.7904C52.9833 18.7904 49.5106 17.6405 51.5919 14.6277C51.8647 14.2033 52.2255 13.8425 52.6499 13.5698Z" fill="#71B500"/>
</svg>
