<svg width="39" height="63" viewBox="0 0 39 63" fill="none" xmlns="http://www.w3.org/2000/svg">
<path d="M20.0769 62.2867C29.9396 62.2867 37.935 57.4923 37.935 51.5783C37.935 45.6642 29.9396 40.8699 20.0769 40.8699C10.2141 40.8699 2.21875 45.6642 2.21875 51.5783C2.21875 57.4923 10.2141 62.2867 20.0769 62.2867Z" fill="#2E1E14"/>
<path d="M33.5028 47.5668C33.5201 47.9009 33.5201 48.2356 33.5028 48.5697C33.5028 48.5697 33.5028 48.7961 33.5028 48.9255C32.7032 51.8755 30.9233 54.4656 28.4559 56.2694C25.972 57.3282 23.2945 57.857 20.5945 57.8222C17.2868 57.8954 14.0214 57.0679 11.1478 55.4282C9.86933 54.3398 8.77664 53.0505 7.91265 51.6108C7.72185 51.2168 7.57015 50.805 7.45972 50.3814C7.09174 49.4437 6.90512 48.4447 6.90975 47.4374C6.99863 43.9727 8.40808 40.6731 10.8497 38.2134C13.2914 35.7537 16.5806 34.32 20.0445 34.2056H20.4004C23.8805 34.3295 27.1801 35.7848 29.6183 38.2711C32.0564 40.7575 33.447 44.085 33.5028 47.5668Z" fill="#8934A8"/>
<path d="M21.1123 36.8908H21.08L21.1123 36.8584V36.8908Z" fill="#71B500"/>
<path d="M21.0799 36.8909L18.9771 35.6615V35.6292L21.1123 36.8585L21.0799 36.8909Z" fill="#3E6300"/>
<path d="M20.5623 36.7289L18.4271 35.4995L18.977 35.6613L21.0799 36.8906L20.5623 36.7289Z" fill="#395B00"/>
<path d="M20.1417 37.3436L18.0065 36.1142L18.427 35.4995L20.5622 36.7289L20.1417 37.3436Z" fill="#3D6200"/>
<path d="M20.1417 37.3437L20.5623 36.729L21.0799 36.8908L20.1417 37.4407V37.3437Z" fill="#71B500"/>
<path d="M20.1417 37.4407L18.0065 36.2113V36.1143L20.1417 37.3436V37.4407Z" fill="#3D6200"/>
<path d="M20.3033 36.6642L18.2004 35.4348L18.4269 35.4995L20.5621 36.7289L20.3033 36.6642Z" fill="#395B00"/>
<path d="M20.3033 36.6642L18.2004 35.4349L18.4269 34.9172L20.5621 36.1466L20.3033 36.6642Z" fill="#3E6300"/>
<path d="M20.5623 36.1467L18.4271 34.9173L18.977 33.7527L21.1123 34.9821L20.5623 36.1467Z" fill="#3E6300"/>
<path d="M20.5622 36.1466L18.427 34.9173L18.0065 34.5291L20.1417 35.7584L20.5622 36.1466Z" fill="#3A5C00"/>
<path d="M28.165 21.7179L26.0621 20.4885L26.6121 19.2915L28.7473 20.5209L28.165 21.7179Z" fill="#3E6300"/>
<path d="M21.1123 34.9819L18.9771 33.7526L25.1886 20.4561L27.3238 21.6854L21.1123 34.9819Z" fill="#3E6300"/>
<path d="M27.3238 21.6855L25.1886 20.4562L25.8356 19.0974L27.9385 20.3268L27.3238 21.6855Z" fill="#3E6300"/>
<path d="M27.9384 20.3268L25.8355 19.0974L26.612 19.2915L28.7472 20.5209L27.9384 20.3268Z" fill="#395B00"/>
<path d="M27.9385 20.3267L28.7473 20.5208L28.165 21.7178L21.1123 36.8583L20.5623 36.7289L20.3035 36.6642L20.5623 36.1466L21.1123 34.9819L27.3238 21.6854L27.9385 20.3267Z" fill="#71B500"/>
<path d="M33.9882 1.85395L31.8853 0.624577C32.3193 0.338572 32.8076 0.14505 33.3196 0.0559946C33.8317 -0.0330606 34.3566 -0.0157519 34.8617 0.106939C35.0985 0.17772 35.3265 0.275401 35.5411 0.398092L37.6763 1.62747L36.9969 1.33632C36.4864 1.21479 35.9566 1.19798 35.4395 1.28695C34.9224 1.37592 34.4287 1.56882 33.9882 1.85395Z" fill="#4C7900"/>
<path d="M21.08 23.2707L18.9448 22.0414V20.812L21.08 22.0414V23.2707Z" fill="#3D6200"/>
<path d="M20.1417 35.7584L18.0065 34.5291L17.9741 22.4619L20.077 23.6913L20.1417 35.7584Z" fill="#3D6200"/>
<path d="M20.077 22.6237L17.9741 21.3943L18.9447 20.812L21.0799 22.0414L20.077 22.6237Z" fill="#3B5E00"/>
<path d="M20.077 23.6913L17.9741 22.4619V21.3943L20.077 22.6237V23.6913Z" fill="#3D6200"/>
<path d="M20.077 22.6236L21.0799 22.0413V23.2706L21.1123 34.9819L20.5623 36.1466L20.1417 35.7583L20.077 23.6912V22.6236Z" fill="#71B500"/>
<path d="M27.1944 21.5886L25.0592 20.3592C24.4768 20.0357 24.121 19.0328 24.218 17.124C24.6063 10.8802 27.9708 2.82455 31.8854 0.592285L33.9882 1.82166C30.0737 4.08628 26.7091 12.1095 26.3532 18.3534C26.3532 20.2621 26.5797 21.265 27.1944 21.5886Z" fill="#4C7900"/>
<path d="M33.9882 1.85392C34.4286 1.56879 34.9224 1.37588 35.4395 1.28692C35.9566 1.19795 36.4864 1.21475 36.9969 1.33628C42.8849 2.95386 33.1794 17.5121 31.6912 19.2267C30.9696 20.0472 30.13 20.7558 29.2001 21.3296C28.8856 21.5129 28.5484 21.6543 28.1972 21.7502L28.7472 20.5532L27.9707 20.3267L27.3237 21.6855C26.6443 21.4267 26.2238 20.4238 26.3532 18.4503C26.8708 12.1094 30.106 4.08618 33.9882 1.85392Z" fill="#71B500"/>
<path d="M20.0123 37.5054L17.8771 36.276L10.7274 29.3528L12.8626 30.5821L20.0123 37.5054Z" fill="#3A5C00"/>
<path d="M13.7036 29.5468L11.6007 28.3174L10.9537 27.6704L13.0889 28.8998L13.7036 29.5468Z" fill="#3A5C00"/>
<path d="M12.8626 30.5823L10.7274 29.353L10.1774 28.803L12.2803 30.0323L12.8626 30.5823Z" fill="#3A5C00"/>
<path d="M13.089 28.8999L13.7037 29.5469L20.1417 35.7584L20.5622 36.1467L20.3034 36.6643L20.5622 36.729L20.1417 37.3437L20.0123 37.5054L12.8625 30.5822L12.2802 30.0322L13.089 28.8999Z" fill="#71B500"/>
<path d="M12.2803 30.0321L10.1774 28.8027L10.9539 27.6704L13.0891 28.8998L12.2803 30.0321Z" fill="#3D6200"/>
<path d="M20.8534 4.86261L18.7505 3.63323C19.2409 3.24376 19.8269 2.99323 20.4473 2.90786C21.0676 2.82249 21.6995 2.90544 22.2769 3.14797L24.4121 4.37735C23.8292 4.1354 23.1924 4.05285 22.567 4.13813C21.9417 4.22341 21.3503 4.47342 20.8534 4.86261Z" fill="#4C7900"/>
<path d="M18.6211 23.4002L16.4859 22.1708C16.0691 21.8947 15.7071 21.5437 15.4183 21.1355C14.6095 20.0032 11.4067 7.87136 18.6534 3.6333L20.7563 4.86268C13.4448 9.10074 16.6153 21.2326 17.5211 22.3649C17.8124 22.7822 18.1869 23.1347 18.6211 23.4002Z" fill="#4C7900"/>
<path d="M20.8534 4.86253C27.0973 1.2715 27.3237 10.8152 23.8298 19.2267C23.3153 20.8082 22.3615 22.2107 21.0799 23.2706V22.0412L20.1093 22.5913V23.6912C19.5966 23.738 19.0811 23.6381 18.6229 23.4033C18.1647 23.1685 17.7826 22.8083 17.5212 22.3648C16.7124 21.2648 13.5419 9.1006 20.8534 4.86253Z" fill="#71B500"/>
<path d="M6.94216 17.4151L4.83929 16.1858C5.44829 15.8142 6.14788 15.6177 6.86127 15.6177C7.57466 15.6177 8.27426 15.8142 8.88325 16.1858L10.9861 17.4151C10.3771 17.0436 9.67752 16.8471 8.96413 16.8471C8.25074 16.8471 7.55115 17.0436 6.94216 17.4151Z" fill="#4C7900"/>
<path d="M5.77752 30.9704L3.67467 29.741C0.827723 28.0911 -1.95452 24.7265 1.86297 19.2591C2.63026 18.0651 3.64531 17.05 4.83932 16.2827L6.94218 17.5121C5.74817 18.2794 4.73311 19.2945 3.96582 20.4885C0.148327 25.9559 2.96292 29.3205 5.77752 30.9704Z" fill="#4C7900"/>
<path d="M6.94224 17.4151C10.8568 15.1505 14.2861 19.2915 14.6743 25.0824C14.8479 26.6224 14.5188 28.1771 13.7361 29.5146L13.0891 28.8999L12.3126 30L12.8626 30.5499C12.5561 30.8566 12.2076 31.118 11.8273 31.3263C11.0617 31.7595 10.2124 32.0242 9.33627 32.1028C7.88044 32.1028 -1.88976 28.8676 3.96588 20.3915C4.73317 19.1975 5.74824 18.1824 6.94224 17.4151Z" fill="#71B500"/>
</svg>
