<svg width="32" height="65" viewBox="0 0 32 65" fill="none" xmlns="http://www.w3.org/2000/svg">
<path d="M31.7007 55.3308C31.7007 60.5901 24.4466 64.8338 15.8504 64.8338C7.25418 64.8338 0 60.5901 0 55.3308C0 50.0716 7.25418 45.8279 15.8504 45.8279C24.4466 45.8279 31.7007 50.1078 31.7007 55.3308Z" fill="#2E1E14"/>
<path d="M14.9074 36.0349C14.5447 36.2162 11.2804 30.2678 9.24918 30.2678C7.21802 30.2678 3.48211 26.6407 2.35772 26.2055C1.84993 26.0241 8.16104 24.1017 9.8295 27.9464C11.498 31.7911 15.923 35.4545 14.9074 36.0349Z" fill="#72B600"/>
<path d="M15.4151 37.5581C15.4151 36.7964 14.0005 21.0187 14.0005 20.257C12.723 17.7161 11.2304 15.2892 9.53918 13.0028C9.53918 12.8214 12.2232 13.9459 11.9694 13.293C11.1301 10.6134 10.4995 7.87275 10.0833 5.09577C10.0833 3.82629 11.3165 4.66055 12.0056 5.34969C12.6947 6.03884 14.073 -0.381106 14.9798 0.0178738C15.8866 0.416853 16.6483 3.64487 17.41 5.82112C18.1717 7.99737 19.3686 5.27706 19.9126 5.82112C20.4567 6.36519 17.4825 11.8059 16.8659 13.9096C16.2493 16.0133 18.8971 13.9096 19.0784 14.5262C19.2598 15.1428 16.9384 16.8113 16.1768 18.9513C15.656 25.1524 15.5832 31.3829 15.9591 37.5944C16.1042 38.6826 15.4151 37.5581 15.4151 37.5581Z" fill="#72B600"/>
<path d="M15.669 38.2474C15.669 37.7397 10.7361 27.076 10.5911 26.5682C8.91168 25.1018 7.10284 23.7908 5.18671 22.651C5.18671 22.651 7.65313 22.651 7.29042 22.2158C5.93459 20.5815 4.72113 18.8341 3.66334 16.9928C3.37317 16.086 4.64265 16.3399 5.36807 16.63C6.09349 16.9202 5.83959 12.0962 6.67382 12.0962C7.50805 12.0962 8.88634 14.2362 10.0107 15.5057C11.1351 16.7751 11.5341 14.5989 12.1145 14.8528C12.6948 15.1067 11.4253 19.6768 11.389 21.309C11.3527 22.9412 13.13 20.8737 13.3476 21.1276C13.5653 21.3815 12.0782 23.3401 11.9331 25.0086C12.8909 29.4822 14.2381 33.8635 15.9592 38.1024C16.4669 38.8641 15.669 38.2474 15.669 38.2474Z" fill="#8AD401"/>
<path d="M16.0681 34.4391C16.4308 34.6567 19.6952 28.7083 21.7264 28.7083C24.3104 27.9136 26.6712 26.5219 28.6178 24.6459C28.7992 24.4645 22.8145 22.5422 21.146 26.3506C19.4776 30.1591 15.0888 33.9313 16.0681 34.4391Z" fill="#8AD401"/>
<path d="M15.3063 36.7605C15.3063 36.2164 20.2391 25.589 20.3842 25.0449C22.0731 23.6013 23.8809 22.303 25.7885 21.1639C25.9699 21.1639 23.3221 21.1639 23.6848 20.7287C25.0324 19.0881 26.2453 17.3414 27.3119 15.5057C27.6021 14.5989 26.3326 14.8528 25.6072 15.1429C24.8818 15.4331 25.1719 10.5728 24.3014 10.6091C23.4309 10.6454 22.0889 12.7491 20.9645 14.0186C19.8401 15.288 19.4412 13.1118 18.8608 13.3294C18.2805 13.547 19.55 18.1535 19.5862 19.8219C19.6225 21.4904 17.8452 19.3867 17.6276 19.6406C17.41 19.8945 18.8971 21.8168 19.0422 23.5215C18.0731 27.988 16.7387 32.3674 15.0524 36.6153C14.472 37.377 15.3063 36.7605 15.3063 36.7605Z" fill="#72B600"/>
<path d="M24.0478 52.5743C24.0478 54.5329 24.0478 56.4552 23.7939 58.305C21.2328 59.1575 18.5498 59.5863 15.8506 59.5745C12.5595 59.6091 9.29773 58.9543 6.27506 57.6522C6.27506 56.02 6.27504 54.3153 6.05742 52.6106C5.95988 49.0491 6.38766 45.4926 7.32692 42.0558C8.88656 37.0504 11.7519 35.3093 15.0163 35.3093C16.7889 35.3212 18.504 35.9393 19.8765 37.0611C21.249 38.1829 22.1962 39.7407 22.5607 41.4754C23.6582 45.0692 24.1605 48.8183 24.0478 52.5743Z" fill="#F19B2C"/>
<path d="M22.2704 42.2372C22.2613 42.4728 22.1936 42.7024 22.0732 42.9051C21.9528 43.1078 21.7838 43.2772 21.5813 43.3979L19.3325 44.7399C18.9335 44.9213 18.6433 44.74 18.6433 44.341C18.6558 44.1013 18.7247 43.8679 18.8444 43.6599C18.9642 43.4519 19.1314 43.2751 19.3325 43.144L21.5813 41.8383C21.9802 41.6207 22.2704 41.8382 22.2704 42.2372Z" fill="#E47E30"/>
<path d="M22.2704 52.7556C22.2609 52.996 22.1932 53.2305 22.0732 53.439C21.9532 53.6475 21.7844 53.8237 21.5813 53.9526L19.3325 55.2583C18.9335 55.4759 18.6433 55.2584 18.6433 54.8594C18.6524 54.6238 18.7201 54.3942 18.8405 54.1915C18.9609 53.9888 19.13 53.8194 19.3325 53.6987L21.5813 52.393C21.9802 52.1754 22.2704 52.3929 22.2704 52.7556Z" fill="#E47E30"/>
<path d="M9.6118 55.2583C9.6118 55.6936 9.32163 55.875 8.95893 55.6573L6.67387 54.3515C6.48233 54.2221 6.32358 54.0499 6.21025 53.8484C6.09692 53.647 6.03212 53.4218 6.021 53.1909C6.021 52.7557 6.31116 52.5743 6.67387 52.7919L8.95893 54.0977C9.15047 54.2271 9.30922 54.3993 9.42255 54.6008C9.53588 54.8023 9.60068 55.0274 9.6118 55.2583Z" fill="#E47E30"/>
<path d="M11.8244 43.8693C11.8244 44.3046 11.5342 44.4859 11.1715 44.2683L8.88644 42.9626C8.69011 42.8351 8.52581 42.664 8.40629 42.4627C8.28678 42.2614 8.21525 42.0353 8.19728 41.8019C8.18811 41.718 8.20351 41.6333 8.24161 41.558C8.27971 41.4828 8.33887 41.4202 8.41188 41.3779C8.4849 41.3357 8.5686 41.3155 8.65285 41.3199C8.73711 41.3244 8.81827 41.3532 8.88644 41.403L11.1352 42.7087C11.3335 42.834 11.4993 43.0046 11.6191 43.2063C11.7388 43.408 11.8092 43.6352 11.8244 43.8693Z" fill="#E47E30"/>
<path d="M17.1562 57.7972C17.1563 57.9004 17.1354 58.0025 17.0949 58.0973C17.0544 58.1922 16.995 58.2778 16.9204 58.349C16.8458 58.4202 16.7575 58.4757 16.6608 58.5117C16.5642 58.5478 16.4612 58.5638 16.3582 58.5589H13.7467C13.6437 58.5638 13.5407 58.5478 13.4441 58.5117C13.3474 58.4757 13.2591 58.4202 13.1845 58.349C13.1099 58.2778 13.0505 58.1922 13.01 58.0973C12.9694 58.0025 12.9486 57.9004 12.9487 57.7972C12.9487 57.5856 13.0328 57.3826 13.1825 57.2329C13.3321 57.0833 13.5351 56.9993 13.7467 56.9993H16.467C16.6786 56.9993 16.8816 57.0833 17.0312 57.2329C17.1809 57.3826 17.265 57.5856 17.265 57.7972H17.1562Z" fill="#E47E30"/>
<path d="M17.1562 49.5277C17.1468 49.733 17.0586 49.9268 16.91 50.0686C16.7613 50.2105 16.5637 50.2896 16.3582 50.2894H13.7467C13.6437 50.2943 13.5407 50.2782 13.4441 50.2421C13.3474 50.206 13.2591 50.1507 13.1845 50.0795C13.1099 50.0083 13.0505 49.9226 13.01 49.8278C12.9694 49.7329 12.9486 49.6309 12.9487 49.5277C12.9487 49.3161 13.0328 49.113 13.1825 48.9634C13.3321 48.8138 13.5351 48.7297 13.7467 48.7297H16.467C16.6786 48.7297 16.8816 48.8138 17.0312 48.9634C17.1809 49.113 17.265 49.3161 17.265 49.5277H17.1562Z" fill="#E47E30"/>
<path d="M17.1562 38.066C17.1562 38.1708 17.1355 38.2746 17.0954 38.3714C17.0553 38.4682 16.9966 38.5562 16.9225 38.6303C16.8484 38.7044 16.7604 38.7631 16.6636 38.8032C16.5668 38.8433 16.463 38.864 16.3582 38.864H13.7467C13.6322 38.8865 13.514 38.8824 13.4013 38.8519C13.2886 38.8215 13.1844 38.7654 13.0968 38.6883C13.0091 38.6112 12.9404 38.5151 12.8959 38.4072C12.8513 38.2993 12.8322 38.1825 12.8399 38.066C12.8399 37.8544 12.924 37.6514 13.0737 37.5017C13.2233 37.3521 13.4263 37.2681 13.6379 37.2681H16.467C16.6725 37.2679 16.8702 37.3469 17.0188 37.4888C17.1675 37.6307 17.2556 37.8244 17.265 38.0297L17.1562 38.066Z" fill="#E47E30"/>
</svg>
