<svg width="64" height="30" viewBox="0 0 64 30" fill="none" xmlns="http://www.w3.org/2000/svg">
<path d="M63.9999 25.2608C63.9999 27.0374 61.5495 28.4709 58.6457 28.4709C55.7419 28.4709 53.2915 27.0374 53.2915 25.2608C53.2915 23.4843 55.7419 22.0508 58.6457 22.0508C61.5495 22.0508 63.9999 23.4965 63.9999 25.2608Z" fill="#2E1E14"/>
<path d="M58.3272 18.7427C58.2046 18.804 57.102 16.7946 56.4158 16.7946C55.7297 16.7946 54.4677 15.5694 54.0879 15.4224C53.9164 15.3611 56.0483 14.7117 56.6119 16.0105C57.1755 17.3092 58.6702 18.5467 58.3272 18.7427Z" fill="#72B600"/>
<path d="M58.499 19.2572C58.499 18.9999 58.0212 13.6702 58.0212 13.4129C57.5896 12.5546 57.0854 11.7348 56.5142 10.9625C56.5142 10.9012 57.4208 11.2811 57.3351 11.0605C57.0516 10.1554 56.8385 9.22958 56.6979 8.29153C56.6979 7.8627 57.1145 8.14451 57.3473 8.3773C57.5801 8.61009 58.0457 6.44145 58.352 6.57623C58.6583 6.711 58.9156 7.80142 59.1729 8.53655C59.4302 9.27168 59.8345 8.35277 60.0183 8.53655C60.2021 8.72033 59.1974 10.5582 58.9891 11.2688C58.7808 11.9794 59.6752 11.2688 59.7365 11.4771C59.7978 11.6854 59.0136 12.249 58.7563 12.9719C58.5804 15.0666 58.5558 17.1712 58.6828 19.2695C58.7318 19.637 58.499 19.2572 58.499 19.2572Z" fill="#72B600"/>
<path d="M58.5849 19.4901C58.5849 19.3185 56.9186 15.7164 56.8696 15.5449C56.3023 15.0495 55.6913 14.6066 55.044 14.2216C55.044 14.2216 55.8772 14.2216 55.7547 14.0746C55.2967 13.5225 54.8868 12.9323 54.5294 12.3103C54.4314 12.004 54.8603 12.0898 55.1053 12.1878C55.3503 12.2858 55.2646 10.6562 55.5464 10.6562C55.8282 10.6562 56.2938 11.3791 56.6736 11.808C57.0534 12.2368 57.1882 11.5017 57.3842 11.5874C57.5802 11.6732 57.1514 13.217 57.1392 13.7683C57.1269 14.3197 57.7273 13.6213 57.8008 13.707C57.8743 13.7928 57.372 14.4544 57.3229 15.018C57.6465 16.5292 58.1016 18.0092 58.6829 19.4411C58.8545 19.6984 58.5849 19.4901 58.5849 19.4901Z" fill="#8AD401"/>
<path d="M58.7195 18.2037C58.842 18.2772 59.9447 16.2679 60.6308 16.2679C61.5037 15.9994 62.3012 15.5293 62.9587 14.8956C63.02 14.8343 60.9984 14.185 60.4348 15.4714C59.8712 16.7579 58.3887 18.0322 58.7195 18.2037Z" fill="#8AD401"/>
<path d="M58.4623 18.9877C58.4623 18.8039 60.1285 15.214 60.1776 15.0303C60.7481 14.5426 61.3588 14.104 62.0031 13.7193C62.0644 13.7193 61.17 13.7193 61.2925 13.5722C61.7477 13.0181 62.1574 12.428 62.5177 11.8079C62.6157 11.5016 62.1869 11.5874 61.9419 11.6854C61.6968 11.7834 61.7948 10.1416 61.5008 10.1539C61.2067 10.1661 60.7534 10.8768 60.3736 11.3056C59.9938 11.7344 59.859 10.9993 59.663 11.0728C59.4669 11.1463 59.8958 12.7023 59.908 13.2659C59.9203 13.8295 59.3199 13.1189 59.2464 13.2047C59.1729 13.2905 59.6752 13.9398 59.7242 14.5157C59.3969 16.0244 58.9461 17.5038 58.3765 18.9387C58.1805 19.196 58.4623 18.9877 58.4623 18.9877Z" fill="#72B600"/>
<path d="M61.4152 24.3296C61.4152 24.9912 61.4152 25.6406 61.3294 26.2654C60.4643 26.5534 59.558 26.6982 58.6462 26.6943C57.5345 26.706 56.4327 26.4848 55.4116 26.0449C55.4116 25.4936 55.4116 24.9177 55.3381 24.3419C55.3051 23.1388 55.4496 21.9374 55.7669 20.7765C56.2938 19.0857 57.2617 18.4976 58.3644 18.4976C58.9631 18.5016 59.5425 18.7104 60.0061 19.0893C60.4698 19.4682 60.7897 19.9945 60.9128 20.5804C61.2836 21.7944 61.4533 23.0609 61.4152 24.3296Z" fill="#F19B2C"/>
<path d="M60.8146 20.8378C60.8115 20.9174 60.7886 20.9949 60.748 21.0634C60.7073 21.1319 60.6502 21.1891 60.5818 21.2299L59.8222 21.6832C59.6874 21.7445 59.5894 21.6832 59.5894 21.5484C59.5936 21.4675 59.6168 21.3886 59.6573 21.3184C59.6977 21.2481 59.7542 21.1884 59.8222 21.1441L60.5818 20.703C60.7166 20.6295 60.8146 20.703 60.8146 20.8378Z" fill="#E47E30"/>
<path d="M60.8146 24.391C60.8114 24.4722 60.7885 24.5514 60.748 24.6218C60.7074 24.6922 60.6504 24.7518 60.5818 24.7953L59.8222 25.2364C59.6874 25.3099 59.5894 25.2364 59.5894 25.1016C59.5924 25.022 59.6153 24.9445 59.656 24.876C59.6966 24.8075 59.7538 24.7503 59.8222 24.7095L60.5818 24.2685C60.7166 24.195 60.8146 24.2684 60.8146 24.391Z" fill="#E47E30"/>
<path d="M56.5386 25.2362C56.5386 25.3833 56.4406 25.4445 56.3181 25.371L55.5462 24.9299C55.4815 24.8862 55.4279 24.828 55.3896 24.76C55.3513 24.6919 55.3294 24.6159 55.3257 24.5379C55.3257 24.3909 55.4237 24.3296 55.5462 24.4031L56.3181 24.8442C56.3828 24.8879 56.4364 24.9461 56.4747 25.0141C56.513 25.0822 56.5349 25.1582 56.5386 25.2362Z" fill="#E47E30"/>
<path d="M57.2861 21.3891C57.2861 21.5361 57.1881 21.5974 57.0656 21.5239L56.2937 21.0828C56.2274 21.0397 56.1719 20.9819 56.1315 20.9139C56.0912 20.8459 56.067 20.7696 56.0609 20.6907C56.0578 20.6624 56.063 20.6338 56.0759 20.6083C56.0888 20.5829 56.1088 20.5618 56.1334 20.5475C56.1581 20.5332 56.1864 20.5264 56.2148 20.5279C56.2433 20.5294 56.2707 20.5392 56.2937 20.556L57.0534 20.997C57.1203 21.0394 57.1763 21.097 57.2168 21.1651C57.2573 21.2333 57.281 21.31 57.2861 21.3891Z" fill="#E47E30"/>
<path d="M59.0868 26.0939C59.0868 26.1287 59.0798 26.1632 59.0661 26.1953C59.0524 26.2273 59.0323 26.2562 59.0071 26.2803C58.9819 26.3043 58.9521 26.3231 58.9195 26.3352C58.8868 26.3474 58.852 26.3528 58.8172 26.3512H57.9351C57.9003 26.3528 57.8655 26.3474 57.8329 26.3352C57.8002 26.3231 57.7704 26.3043 57.7452 26.2803C57.72 26.2562 57.6999 26.2273 57.6862 26.1953C57.6725 26.1632 57.6655 26.1287 57.6655 26.0939C57.6655 26.0224 57.6939 25.9538 57.7445 25.9033C57.795 25.8527 57.8636 25.8243 57.9351 25.8243H58.854C58.9255 25.8243 58.994 25.8527 59.0446 25.9033C59.0951 25.9538 59.1235 26.0224 59.1235 26.0939H59.0868Z" fill="#E47E30"/>
<path d="M59.0868 23.3006C59.0836 23.3699 59.0538 23.4354 59.0036 23.4833C58.9534 23.5312 58.8867 23.5579 58.8172 23.5578H57.9351C57.9003 23.5595 57.8655 23.5541 57.8329 23.5419C57.8002 23.5297 57.7704 23.511 57.7452 23.4869C57.72 23.4629 57.6999 23.434 57.6862 23.4019C57.6725 23.3699 57.6655 23.3354 57.6655 23.3006C57.6655 23.2291 57.6939 23.1605 57.7445 23.1099C57.795 23.0594 57.8636 23.031 57.9351 23.031H58.854C58.9255 23.031 58.994 23.0594 59.0446 23.1099C59.0951 23.1605 59.1235 23.2291 59.1235 23.3006H59.0868Z" fill="#E47E30"/>
<path d="M59.087 19.4289C59.087 19.4642 59.08 19.4993 59.0665 19.532C59.0529 19.5647 59.0331 19.5944 59.008 19.6195C58.983 19.6445 58.9533 19.6643 58.9206 19.6779C58.8879 19.6914 58.8528 19.6984 58.8174 19.6984H57.9353C57.8966 19.706 57.8567 19.7046 57.8186 19.6943C57.7805 19.684 57.7453 19.6651 57.7157 19.6391C57.6861 19.613 57.6629 19.5805 57.6479 19.5441C57.6328 19.5076 57.6264 19.4682 57.629 19.4289C57.629 19.3574 57.6574 19.2888 57.7079 19.2382C57.7585 19.1877 57.827 19.1593 57.8985 19.1593H58.8542C58.9236 19.1592 58.9904 19.1859 59.0406 19.2339C59.0908 19.2818 59.1206 19.3472 59.1238 19.4166L59.087 19.4289Z" fill="#E47E30"/>
<path d="M3.22762 9.53667C2.2769 10.0957 1.33639 10.7261 0.695775 11.6238C0.0551642 12.5214 -0.232496 13.7394 0.22042 14.7452C0.673336 15.751 1.75462 16.3324 2.83794 16.463C3.92127 16.5936 5.01276 16.3365 6.0614 16.0346C8.41575 15.3552 10.7538 14.4208 12.6287 12.8499C13.4305 12.1807 14.169 11.3545 14.4199 10.3385C14.7117 9.15925 14.2873 7.89025 13.5447 6.92321C13.0102 6.22548 12.3757 5.76441 11.5311 6.03371C10.6293 6.31933 9.69492 6.66412 8.79113 6.97626C6.8551 7.64012 4.99113 8.49795 3.22762 9.53667Z" fill="#EAA542"/>
<path d="M13.5651 6.80078C13.3587 6.51834 13.1055 6.27339 12.8163 6.07654C13.2076 6.85233 13.32 7.7391 13.1346 8.58796C12.8837 9.60804 12.1472 10.4241 11.3433 11.0974C9.46231 12.6683 7.13245 13.6027 4.7781 14.2821C3.72742 14.584 2.63797 14.8431 1.55464 14.7105C1.04346 14.6498 0.549571 14.4875 0.102051 14.2331C0.136689 14.3675 0.183111 14.4986 0.24078 14.6248C0.687576 15.6184 1.77498 16.212 2.85831 16.3426C3.94164 16.4732 5.03108 16.2141 6.07973 15.9121C8.43611 15.2348 10.7721 14.3004 12.647 12.7295C13.4508 12.0583 14.1873 11.2341 14.4383 10.2181C14.73 9.0368 14.3057 7.76578 13.5651 6.80078Z" fill="#D1913D"/>
<path d="M9.80916 12.2134C9.77856 12.4174 9.75815 12.6704 9.92137 12.805C9.97439 12.8436 10.0338 12.8726 10.0968 12.8907C10.8292 13.1457 11.7555 13.1906 12.2655 12.6092C12.6205 12.2012 12.6633 11.6197 12.6266 11.0831C12.5999 10.482 12.4411 9.89408 12.1615 9.36124C11.8575 8.82264 10.1213 6.57641 9.52353 7.876C9.3032 8.34727 9.7806 9.39388 9.83976 9.91616C9.92329 10.6803 9.91302 11.4518 9.80916 12.2134Z" fill="#D1913D"/>
<path d="M14.9771 5.92155C15.5299 6.39552 16.1917 6.72497 16.903 6.88041C17.9342 7.11029 18.9848 7.24214 20.0408 7.27417L28.0158 7.76584C29.2236 7.84132 30.4762 7.90662 31.5963 7.3721C32.7163 6.83758 33.6528 5.51554 33.4712 4.1262C33.2794 2.64912 31.99 1.74125 30.7843 1.22509C28.3606 0.18461 25.7349 -0.129581 23.1561 0.0458731C20.6631 0.217247 18.3006 0.955784 15.8707 1.54947C14.0203 2.00239 13.3899 4.46487 14.9771 5.92155Z" fill="#EAA542"/>
<path d="M33.4076 3.79775C33.2812 4.27521 33.0539 4.72002 32.741 5.10221C32.4282 5.48441 32.037 5.7951 31.5939 6.01336C30.4759 6.54992 29.2212 6.48261 28.0135 6.40916L20.0405 5.91748C18.9844 5.88577 17.9337 5.75322 16.9027 5.52167C16.1914 5.36623 15.5296 5.03678 14.9768 4.56281C14.5842 4.21068 14.301 3.75326 14.1608 3.24487C14.0338 3.72275 14.0429 4.22663 14.1871 4.69961C14.3313 5.17259 14.6048 5.59583 14.9768 5.92156C15.5296 6.39554 16.1914 6.72499 16.9027 6.88043C17.9339 7.11031 18.9845 7.24215 20.0405 7.27419L28.0135 7.76585C29.2212 7.84134 30.4759 7.90664 31.5939 7.37211C32.712 6.83759 33.6525 5.51556 33.4709 4.12621C33.4563 4.01557 33.4352 3.9059 33.4076 3.79775Z" fill="#D1913D"/>
<path d="M8.67102 5.03412C8.62001 6.0338 9.06273 6.98452 9.5034 7.89035C10.9846 10.9179 12.584 13.9578 14.971 16.3366C15.7871 17.1527 16.7256 17.9014 17.8273 18.2809C18.9289 18.6603 20.2102 18.6257 21.169 17.9708C22.081 17.3465 22.5808 16.2448 22.6992 15.1451C22.8175 14.0455 22.6012 12.9397 22.3319 11.8666C21.6464 9.1328 20.4162 6.52956 18.5148 4.4486C14.6528 0.223422 8.90971 0.272385 8.67102 5.03412Z" fill="#F9B443"/>
<path d="M21.903 16.0428C20.9462 16.6956 19.6588 16.7303 18.5632 16.3529C17.4677 15.9754 16.5353 15.2267 15.707 14.4086C13.32 12.0298 11.7205 8.98991 10.2394 5.96231C9.79871 5.0626 9.356 4.11393 9.407 3.10609C9.41454 2.93738 9.43088 2.76918 9.45596 2.60217C8.95612 3.1979 8.6399 4.01192 8.59094 5.05037C8.53993 6.048 8.98265 6.99872 9.42332 7.90659C10.9045 10.9321 12.504 13.972 14.891 16.3529C15.707 17.1689 16.6455 17.9176 17.7472 18.2971C18.8489 18.6766 20.1301 18.6399 21.0869 17.985C21.9356 17.4076 22.4253 16.4161 22.5864 15.3981C22.3926 15.6463 22.1621 15.8637 21.903 16.0428Z" fill="#EAA542"/>
<path d="M8.6709 4.80759C9.17482 4.78515 9.69098 4.7362 10.1929 4.71783C10.9804 4.68927 11.2272 4.30979 11.874 3.965C12.3554 3.70794 12.9695 3.761 13.4245 3.46721C13.9182 3.14487 14.0814 2.51038 14.2059 1.93505C14.2344 1.80652 14.263 1.67594 14.2854 1.54537C11.4598 0.674226 8.88512 1.72083 8.6709 4.80759Z" fill="#F7CC77"/>
<path d="M13.8465 7.80252C14.8666 9.27755 15.8867 10.7546 16.7762 12.3194C17.6657 13.8842 18.3879 15.5143 19.559 16.8486C19.8425 17.1709 20.1894 17.4912 20.6178 17.5218C20.723 17.5358 20.8297 17.5127 20.9197 17.4565C21.1564 17.2893 21.0524 16.92 20.9197 16.6629C18.6756 12.2868 15.1543 8.70632 12.4531 4.59947C12.2491 4.27509 11.5962 3.05711 11.1617 3.01426C10.3925 2.93674 11.127 3.88337 11.3045 4.13635L13.8465 7.80252Z" fill="#EAA542"/>
<path d="M23.3983 11.8012C23.7819 10.9076 24.4306 10.1527 25.1284 9.47336C27.7949 6.87624 31.2631 5.21557 34.8538 4.24037C36.0534 3.91395 37.3999 3.67524 38.4792 4.28729C39.6747 4.96258 40.146 6.53147 39.8747 7.88001C39.6033 9.22856 38.7322 10.3751 37.7713 11.3483C35.17 14.0005 31.6691 15.7999 27.9785 16.1774C25.1692 16.4711 21.9518 15.1675 23.3983 11.8012Z" fill="#F9B443"/>
<path d="M26.3344 10.367C28.8284 8.55213 31.4725 6.953 34.238 5.58692C35.1091 5.15644 36.0272 4.74229 36.9983 4.71985L35.1499 5.72768C33.0771 6.85793 30.9982 7.99226 29.0294 9.30204C28.0286 9.96165 27.0655 10.6768 26.1447 11.4442C25.7611 11.7666 23.8107 14.9411 23.5047 14.4127C23.062 13.6435 25.8366 10.7301 26.3344 10.367Z" fill="#EAA542"/>
<path d="M38.4796 4.28729C37.3983 3.67524 36.0518 3.91395 34.8542 4.24037H34.8338C34.7155 4.73817 35.3499 4.75041 35.7845 4.77081C35.9243 4.78707 36.0575 4.83919 36.1711 4.92213C36.2848 5.00506 36.3751 5.11598 36.4333 5.24411C36.5467 5.504 36.6223 5.77882 36.6577 6.06018C36.6689 6.1691 36.7099 6.27286 36.776 6.3601C36.8451 6.42647 36.9313 6.47235 37.0249 6.49269C37.6757 6.68447 38.4306 6.55187 38.9876 6.93746C39.1916 7.07415 39.3425 7.26796 39.5486 7.38833C39.6654 7.45665 39.7955 7.49909 39.9301 7.51277C40.0546 6.25807 39.567 4.90138 38.4796 4.28729Z" fill="#F7CC77"/>
<path d="M39.0771 4.77698C39.2349 5.35518 39.2558 5.96216 39.1383 6.54987C38.867 7.89637 37.9958 9.04498 37.0349 10.0181C34.4357 12.6703 30.9328 14.4698 27.2421 14.8472C25.6896 15.0063 24.0085 14.6758 23.0659 13.7761C23.3842 15.6694 25.7957 16.3977 27.9623 16.1754C31.6591 15.7979 35.16 14.0005 37.7551 11.3463C38.716 10.367 39.5912 9.2184 39.8585 7.87801C40.0747 6.79673 39.8116 5.55836 39.0771 4.77698Z" fill="#EAA542"/>
<path d="M21.3853 1.92483C24.4027 1.37398 27.4895 2.21658 30.3988 3.1877C30.6638 3.30018 30.9523 3.3464 31.2393 3.32236C31.3818 3.30467 31.5132 3.23609 31.6091 3.12925C31.7051 3.02241 31.7592 2.88448 31.7616 2.74089C31.733 2.58715 31.6532 2.44765 31.5351 2.34511C31.1108 1.93708 30.5008 1.7657 29.9234 1.62084C27.5935 1.04144 25.1861 0.453885 22.7665 0.63954C21.9627 0.700745 20.7121 0.763988 19.9858 1.14754C18.472 1.94932 20.7957 2.035 21.3853 1.92483Z" fill="#F9B443"/>
<path d="M6.51219 13.8211C5.79201 14.0251 5.02899 14.3821 4.70052 15.1125C4.47578 15.6896 4.48899 16.3323 4.73725 16.8997C4.983 17.4441 5.32123 17.9418 5.73692 18.3706C7.24669 20.0425 9.07783 21.3929 11.121 22.3415C13.1642 23.29 15.3776 23.8171 17.629 23.8913C18.5022 23.9178 19.4897 23.822 20.0527 23.0895C20.6158 22.3571 20.5322 21.2534 20.1486 20.4128C19.7406 19.507 19.0367 18.8032 18.3125 18.1687C16.6394 16.7006 14.7435 15.5078 12.6959 14.6351C11.8554 14.2801 10.9455 13.8048 10.0845 13.5518C9.00322 13.2356 7.57511 13.515 6.51219 13.8211Z" fill="#F9B443"/>
<path d="M20.3792 21.8491C19.8161 22.5815 18.8286 22.6774 17.9534 22.6509C15.7023 22.5768 13.4891 22.0498 11.4462 21.1013C9.40332 20.1527 7.57258 18.8021 6.06335 17.1302C5.64675 16.702 5.3084 16.2042 5.06367 15.6592C4.95484 15.3905 4.89009 15.106 4.8719 14.8167C4.80495 14.9092 4.74754 15.0083 4.70052 15.1125C4.47578 15.6896 4.48899 16.3323 4.73725 16.8996C4.983 17.444 5.32123 17.9417 5.73692 18.3706C7.24668 20.0424 9.07783 21.3929 11.121 22.3414C13.1642 23.29 15.3776 23.8171 17.629 23.8913C18.5022 23.9178 19.4897 23.8219 20.0527 23.0895C20.336 22.7 20.4798 22.2263 20.4608 21.745C20.4336 21.7804 20.4064 21.8151 20.3792 21.8491Z" fill="#EAA542"/>
<path d="M17.3599 20.2006C16.5153 19.1805 15.4238 18.4073 14.3466 17.6422C12.3738 16.2447 10.3867 14.839 8.1792 13.8557C7.95269 13.7514 7.72041 13.6601 7.48351 13.5823C7.14076 13.6516 6.8123 13.7373 6.51239 13.821C6.32041 13.8786 6.13175 13.9467 5.94727 14.025H5.97175C6.63444 14.1397 7.28621 14.3103 7.9201 14.535C9.22173 15.0124 10.4275 15.7122 11.6128 16.4222C12.9797 17.2383 14.3425 18.0788 15.5503 19.1172C16.2827 19.7476 16.9662 20.4556 17.823 20.9065C17.7015 20.6512 17.5457 20.4137 17.3599 20.2006Z" fill="#EAA542"/>
<path d="M25.6162 24.3442C28.758 26.6414 32.0406 29.0019 35.817 29.7221C36.8575 29.9261 38.1264 29.8955 38.7099 29.008C39.0506 28.4898 39.0527 27.8084 38.9445 27.1882C38.5508 24.9175 36.8901 23.0507 35.0295 21.7185C32.5017 19.9069 29.4149 18.8766 26.3465 19.1153C22.813 19.3907 23.0456 22.4652 25.6162 24.3442Z" fill="#F9B443"/>
<path d="M38.9424 27.1841C38.7746 26.2681 38.4212 25.3961 37.904 24.6217C37.9698 24.8434 38.0222 25.0689 38.0611 25.297C38.1692 25.909 38.1672 26.5986 37.8264 27.1168C37.243 28.0043 35.976 28.0308 34.9335 27.8309C31.1531 27.1127 27.8705 24.7523 24.7327 22.453C24.3495 22.176 24.0015 21.8533 23.6963 21.4921C23.7963 22.4448 24.4756 23.5077 25.612 24.3483C28.7559 26.6455 32.0385 29.006 35.8128 29.7262C36.8553 29.9302 38.1243 29.8996 38.7078 29.0121C39.0485 28.4898 39.0505 27.8084 38.9424 27.1841Z" fill="#EAA542"/>
<path d="M26.0486 20.9004C29.0375 21.7348 31.7182 23.3996 34.295 25.1317C35.2457 25.7703 36.2066 26.4374 36.9023 27.3514C37.3103 27.8859 37.6571 28.5286 38.2794 28.7795C38.326 27.9067 38.0403 27.0488 37.4797 26.3782C36.9193 25.7178 36.2499 25.1582 35.5007 24.7237C34.2385 23.968 32.931 23.2907 31.5856 22.6957C30.2677 22.0837 28.9457 21.4798 27.6196 20.8841C27.1809 20.6801 26.2098 20.0109 25.7324 20.068C24.9837 20.1598 25.6549 20.7902 26.0486 20.9004Z" fill="#EAA542"/>
<path d="M33.3097 12.8254C31.8448 13.4578 30.329 14.4575 29.9781 16.0039C29.9085 16.2806 29.9029 16.5695 29.9618 16.8486C30.1148 17.4606 30.6758 17.887 31.2389 18.1788C32.3875 18.7725 33.6871 19.0275 34.9602 19.1988C38.0029 19.614 41.0879 19.614 44.1307 19.1988C45.5894 18.9948 47.1052 18.6704 48.2232 17.7136C48.8863 17.1464 49.3882 16.308 49.3086 15.4388C49.2454 14.7452 48.8251 14.1331 48.3314 13.6415C45.5241 10.8485 40.542 10.924 36.9452 11.6768C35.698 11.9372 34.4801 12.322 33.3097 12.8254Z" fill="#F9B443"/>
<path d="M33.8544 14.0617C33.6898 13.8451 33.4817 13.6653 33.2435 13.5339C33.0053 13.4025 32.7422 13.3224 32.4712 13.2987C31.3083 13.9271 30.2617 14.8146 29.9781 16.0733C29.9085 16.35 29.9029 16.6389 29.9618 16.918C30.1148 17.53 30.6758 17.9584 31.2389 18.2481C31.6319 18.45 32.0414 18.6179 32.463 18.75C32.7237 18.6806 32.9741 18.577 33.2077 18.442C33.3439 18.3714 33.4624 18.2709 33.5545 18.1482C33.7014 17.9217 33.6789 17.6218 33.7952 17.377C33.9278 17.0934 34.2339 16.918 34.3583 16.6303C34.4284 16.4258 34.448 16.2075 34.4154 15.9938C34.3685 15.3164 34.2604 14.6065 33.8544 14.0617Z" fill="#F7CC77"/>
<path d="M49.3088 15.4368C49.2455 14.7432 48.8253 14.1311 48.3316 13.6394C48.0303 13.3369 47.7011 13.0637 47.3482 12.8234C47.8215 13.3069 48.2193 13.9026 48.2806 14.5738C48.3601 15.445 47.8582 16.2814 47.1952 16.8506C46.0772 17.8075 44.5613 18.1359 43.1047 18.3359C40.0585 18.7508 36.9701 18.7508 33.9239 18.3359C32.6427 18.1604 31.3513 17.9074 30.2027 17.3158L30.1558 17.2893C30.4352 17.6675 30.8048 17.9697 31.2309 18.1686C32.3795 18.7623 33.6791 19.0173 34.9522 19.1887C37.9949 19.6039 41.08 19.6039 44.1227 19.1887C45.5814 18.9847 47.0973 18.6603 48.2153 17.7034C48.8865 17.1444 49.3884 16.3059 49.3088 15.4368Z" fill="#EAA542"/>
<path d="M42.7311 13.056C44.455 12.9969 46.2647 13.056 47.7744 13.8863C48.4211 14.2454 49.0372 14.8228 49.0821 15.5613C49.0964 15.7654 48.9862 16.0489 48.7761 16.0245C48.6713 15.9958 48.5802 15.9307 48.519 15.8408C47.8121 15.0939 46.8999 14.5729 45.8974 14.3434C44.8999 14.1189 43.8819 13.9979 42.8596 13.9823C40.438 13.87 37.9816 13.8007 35.6191 14.3474C34.8398 14.527 34.0543 14.8901 33.2729 15.0044C33.1627 14.174 36.8738 13.6864 37.5226 13.5763C39.2407 13.2544 40.9833 13.0804 42.7311 13.056Z" fill="#EAA542"/>
</svg>
