<svg width="32" height="32" viewBox="0 0 32 32" fill="none" xmlns="http://www.w3.org/2000/svg">
<path d="M26.8002 14.9C25.5502 5.9 19.8502 1 16.0002 1C12.1502 1 6.45017 5.9 5.20017 14.9C4.00017 23.9 7.95017 31 16.0002 31C24.0502 31 28.0002 23.9 26.8002 14.9Z" fill="#FFC294"/>
<path opacity="0.33" d="M26.7998 14.9C25.7998 7.80002 22.0498 3.25002 18.5998 1.65002C20.9498 4.00002 23.0498 7.70002 23.6998 12.7C24.9498 21.7 20.9998 28.8 12.8998 28.8C11.1498 28.8 9.5998 28.45 8.2998 27.85C10.1498 29.85 12.7498 31 15.9998 31C24.0498 31 27.9998 23.9 26.7998 14.9Z" fill="#D3976E"/>
</svg>
