<svg width="64" height="30" viewBox="0 0 64 30" fill="none" xmlns="http://www.w3.org/2000/svg">
<path d="M3.14564 9.29448C2.21907 9.83928 1.30244 10.4537 0.678103 11.3285C0.0537631 12.2034 -0.226591 13.3905 0.214822 14.3707C0.656234 15.351 1.71005 15.9176 2.76586 16.0449C3.82167 16.1721 4.88544 15.9216 5.90745 15.6273C8.202 14.9652 10.4806 14.0546 12.3079 12.5235C13.0893 11.8714 13.8091 11.0661 14.0537 10.0759C14.338 8.92664 13.9244 7.68987 13.2007 6.7474C12.6797 6.06739 12.0614 5.61802 11.2382 5.88048C10.3593 6.15885 9.44868 6.49488 8.56785 6.7991C6.68099 7.44609 4.86436 8.28214 3.14564 9.29448Z" fill="#EAA542"/>
<path d="M13.2202 6.62809C13.0191 6.35283 12.7723 6.1141 12.4905 5.92224C12.8718 6.67833 12.9813 7.54258 12.8007 8.36988C12.5561 9.36405 11.8383 10.1594 11.0549 10.8156C9.22164 12.3466 6.95095 13.2572 4.65641 13.9194C3.63241 14.2136 2.57063 14.4661 1.51482 14.3369C1.01662 14.2778 0.535275 14.1196 0.0991211 13.8716C0.132879 14.0026 0.178122 14.1303 0.234327 14.2534C0.669774 15.2217 1.72956 15.8003 2.78537 15.9276C3.84119 16.0548 4.90296 15.8023 5.92497 15.508C8.22151 14.8479 10.4982 13.9373 12.3254 12.4062C13.1089 11.7521 13.8266 10.9488 14.0712 9.95856C14.3555 8.80731 13.942 7.56857 13.2202 6.62809Z" fill="#D1913D"/>
<path d="M9.55972 11.9031C9.52989 12.102 9.51001 12.3485 9.66907 12.4798C9.72075 12.5174 9.77863 12.5456 9.84007 12.5633C10.5539 12.8118 11.4566 12.8556 11.9537 12.2889C12.2997 11.8912 12.3414 11.3245 12.3056 10.8016C12.2796 10.2157 12.1248 9.64275 11.8523 9.12345C11.556 8.59852 9.86393 6.40935 9.28134 7.67593C9.0666 8.13523 9.53188 9.15525 9.58954 9.66427C9.67095 10.409 9.66093 11.1609 9.55972 11.9031Z" fill="#D1913D"/>
<path d="M14.5967 5.77115C15.1355 6.23308 15.7804 6.55416 16.4737 6.70566C17.4787 6.9297 18.5026 7.0582 19.5318 7.08942L27.3042 7.56859C28.4813 7.64216 29.7022 7.7058 30.7938 7.18485C31.8854 6.66391 32.798 5.37546 32.6211 4.02139C32.4342 2.58183 31.1775 1.69703 30.0024 1.19398C27.6403 0.179921 25.0813 -0.12629 22.568 0.044708C20.1382 0.211729 17.8357 0.931508 15.4676 1.51012C13.6642 1.95153 13.0498 4.35147 14.5967 5.77115Z" fill="#EAA542"/>
<path d="M32.5591 3.70119C32.4359 4.16652 32.2144 4.60003 31.9094 4.97252C31.6045 5.345 31.2233 5.64781 30.7915 5.86052C29.7019 6.38346 28.479 6.31786 27.3019 6.24628L19.5315 5.76708C18.5022 5.73617 17.4782 5.60699 16.4734 5.38133C15.7801 5.22983 15.1352 4.90875 14.5964 4.44682C14.2138 4.10363 13.9378 3.65782 13.8011 3.16235C13.6773 3.6281 13.6862 4.11918 13.8267 4.58014C13.9673 5.04111 14.2339 5.4536 14.5964 5.77106C15.1352 6.23299 15.7801 6.55408 16.4734 6.70557C17.4784 6.92961 18.5023 7.05811 19.5315 7.08933L27.3019 7.5685C28.479 7.64207 29.7019 7.70571 30.7915 7.18477C31.8811 6.66382 32.7977 5.37537 32.6208 4.02131C32.6065 3.91348 32.586 3.80659 32.5591 3.70119Z" fill="#D1913D"/>
<path d="M8.4507 4.90619C8.40099 5.88048 8.83246 6.80705 9.26195 7.68987C10.7055 10.6406 12.2643 13.6032 14.5907 15.9216C15.386 16.7169 16.3007 17.4467 17.3744 17.8165C18.4481 18.1863 19.6968 18.1525 20.6313 17.5143C21.5201 16.9058 22.0072 15.8321 22.1225 14.7604C22.2379 13.6887 22.0271 12.611 21.7646 11.5651C21.0966 8.90077 19.8976 6.36365 18.0445 4.33554C14.2805 0.21768 8.68333 0.265399 8.4507 4.90619Z" fill="#F9B443"/>
<path d="M21.347 15.6353C20.4145 16.2716 19.1598 16.3054 18.0921 15.9376C17.0243 15.5697 16.1157 14.84 15.3084 14.0427C12.982 11.7243 11.4232 8.76163 9.97964 5.81093C9.55016 4.93407 9.11869 4.00949 9.1684 3.02725C9.17574 2.86282 9.19167 2.6989 9.21612 2.53613C8.72897 3.11673 8.42078 3.91008 8.37306 4.92214C8.32335 5.89444 8.75482 6.82101 9.1843 7.70583C10.6278 10.6545 12.1867 13.6172 14.5131 15.9376C15.3084 16.7329 16.223 17.4626 17.2967 17.8324C18.3705 18.2023 19.6191 18.1665 20.5517 17.5282C21.3788 16.9655 21.856 15.9992 22.0131 15.007C21.8242 15.249 21.5996 15.4608 21.347 15.6353Z" fill="#EAA542"/>
<path d="M8.45068 4.68549C8.9418 4.66362 9.44486 4.61591 9.93399 4.59802C10.7015 4.57018 10.9421 4.20034 11.5724 3.86431C12.0416 3.61377 12.6401 3.66548 13.0835 3.37916C13.5647 3.065 13.7238 2.44663 13.8451 1.88591C13.8729 1.76065 13.9007 1.63339 13.9226 1.50613C11.1688 0.657111 8.65946 1.67713 8.45068 4.68549Z" fill="#F7CC77"/>
<path d="M13.4947 7.60437C14.4888 9.04194 15.483 10.4815 16.3499 12.0066C17.2168 13.5316 17.9207 15.1203 19.062 16.4207C19.3384 16.7348 19.6764 17.047 20.094 17.0768C20.1965 17.0904 20.3005 17.0679 20.3883 17.0132C20.6189 16.8502 20.5175 16.4903 20.3883 16.2398C18.2011 11.9748 14.7692 8.48522 12.1366 4.48268C11.9378 4.16653 11.3015 2.97949 10.878 2.93773C10.1284 2.86218 10.8442 3.78477 11.0172 4.03132L13.4947 7.60437Z" fill="#EAA542"/>
<path d="M22.8043 11.5015C23.1781 10.6306 23.8104 9.89489 24.4904 9.23278C27.0891 6.70161 30.4693 5.08312 33.9688 4.13269C35.1379 3.81456 36.4503 3.58192 37.5021 4.17842C38.6673 4.83656 39.1266 6.3656 38.8621 7.67989C38.5977 8.99419 37.7486 10.1116 36.8121 11.0601C34.277 13.6449 30.865 15.3986 27.2681 15.7665C24.5301 16.0528 21.3945 14.7822 22.8043 11.5015Z" fill="#F9B443"/>
<path d="M25.6656 10.1037C28.0963 8.33492 30.6732 6.77641 33.3684 5.44502C34.2175 5.02548 35.1122 4.62185 36.0587 4.59998L34.2572 5.58221C32.2371 6.68375 30.211 7.78927 28.2922 9.06579C27.3168 9.70864 26.3781 10.4057 25.4807 11.1535C25.1069 11.4677 23.206 14.5616 22.9078 14.0466C22.4763 13.297 25.1805 10.4576 25.6656 10.1037Z" fill="#EAA542"/>
<path d="M37.5023 4.17842C36.4485 3.58192 35.1362 3.81456 33.969 4.13269H33.9491C33.8338 4.61785 34.4522 4.62978 34.8757 4.64966C35.0119 4.66551 35.1417 4.71631 35.2525 4.79713C35.3633 4.87796 35.4513 4.98606 35.508 5.11094C35.6186 5.36423 35.6922 5.63207 35.7267 5.90628C35.7377 6.01243 35.7776 6.11356 35.842 6.19859C35.9094 6.26326 35.9934 6.30798 36.0846 6.32781C36.7189 6.51471 37.4546 6.38548 37.9974 6.76128C38.1962 6.8945 38.3434 7.08338 38.5442 7.20069C38.658 7.26729 38.7848 7.30865 38.916 7.32198C39.0373 6.09915 38.5621 4.77691 37.5023 4.17842Z" fill="#F7CC77"/>
<path d="M38.0845 4.65564C38.2383 5.21915 38.2587 5.81072 38.1441 6.3835C37.8797 7.6958 37.0307 8.81524 36.0942 9.76368C33.561 12.3485 30.147 14.1023 26.5501 14.4701C25.037 14.6252 23.3986 14.3031 22.48 13.4262C22.7902 15.2714 25.1404 15.9812 27.252 15.7645C30.8549 15.3967 34.2669 13.6449 36.7961 11.0581C37.7326 10.1037 38.5856 8.98425 38.846 7.67791C39.0568 6.62409 38.8003 5.41718 38.0845 4.65564Z" fill="#EAA542"/>
<path d="M20.8419 1.87591C23.7826 1.33906 26.791 2.16026 29.6264 3.10671C29.8847 3.21633 30.1659 3.26138 30.4456 3.23795C30.5845 3.22071 30.7125 3.15387 30.806 3.04974C30.8995 2.94562 30.9523 2.8112 30.9546 2.67125C30.9267 2.52142 30.8489 2.38546 30.7339 2.28552C30.3203 1.88786 29.7258 1.72082 29.1631 1.57965C26.8924 1.01496 24.5461 0.442333 22.188 0.623272C21.4046 0.682922 20.1857 0.744559 19.4779 1.11837C18.0025 1.89979 20.2672 1.98328 20.8419 1.87591Z" fill="#F9B443"/>
<path d="M6.34689 13.47C5.645 13.6688 4.90136 14.0168 4.58124 14.7286C4.3622 15.2911 4.37507 15.9174 4.61703 16.4704C4.85654 17.001 5.18618 17.486 5.59131 17.904C7.06273 19.5334 8.84736 20.8495 10.8387 21.774C12.83 22.6984 14.9871 23.2121 17.1814 23.2845C18.0324 23.3103 18.9947 23.2169 19.5435 22.503C20.0923 21.7892 20.0108 20.7135 19.637 19.8943C19.2393 19.0115 18.5533 18.3255 17.8475 17.7072C16.2169 16.2764 14.3692 15.1139 12.3736 14.2633C11.5544 13.9174 10.6676 13.4541 9.82847 13.2075C8.77465 12.8994 7.38282 13.1717 6.34689 13.47Z" fill="#F9B443"/>
<path d="M19.8617 21.2941C19.3129 22.0079 18.3505 22.1014 17.4975 22.0756C15.3035 22.0034 13.1466 21.4897 11.1556 20.5653C9.16459 19.6408 7.38034 18.3246 5.90945 16.6951C5.50343 16.2778 5.17368 15.7926 4.93516 15.2615C4.8291 14.9996 4.76599 14.7223 4.74826 14.4403C4.68301 14.5305 4.62706 14.6271 4.58124 14.7286C4.3622 15.2911 4.37507 15.9174 4.61703 16.4704C4.85654 17.001 5.18618 17.486 5.59131 17.904C7.06273 19.5334 8.84736 20.8495 10.8387 21.774C12.83 22.6984 14.9871 23.2121 17.1814 23.2845C18.0324 23.3103 18.9947 23.2169 19.5435 22.503C19.8196 22.1234 19.9597 21.6618 19.9412 21.1927C19.9147 21.2272 19.8882 21.261 19.8617 21.2941Z" fill="#EAA542"/>
<path d="M16.9187 19.6875C16.0955 18.6933 15.0318 17.9397 13.9819 17.1941C12.0592 15.8321 10.1225 14.4621 7.97115 13.5038C7.75039 13.4021 7.52401 13.3132 7.29312 13.2373C6.95908 13.3049 6.63896 13.3884 6.34667 13.4699C6.15957 13.5261 5.9757 13.5924 5.7959 13.6688H5.81976C6.46562 13.7806 7.10084 13.9469 7.71863 14.1659C8.98719 14.6311 10.1623 15.3131 11.3175 16.0051C12.6497 16.8004 13.9779 17.6196 15.155 18.6317C15.8688 19.2461 16.5349 19.936 17.37 20.3755C17.2516 20.1267 17.0997 19.8953 16.9187 19.6875Z" fill="#EAA542"/>
<path d="M24.9656 23.7259C28.0277 25.9648 31.2269 28.2653 34.9074 28.9672C35.9214 29.166 37.1582 29.1362 37.7268 28.2713C38.0589 27.7662 38.0609 27.1021 37.9555 26.4977C37.5717 24.2846 35.9532 22.4653 34.1399 21.1669C31.6763 19.4013 28.6679 18.3971 25.6775 18.6298C22.2337 18.8982 22.4603 21.8946 24.9656 23.7259Z" fill="#F9B443"/>
<path d="M37.9536 26.4936C37.79 25.6009 37.4456 24.751 36.9416 23.9963C37.0057 24.2124 37.0568 24.4322 37.0947 24.6544C37.2 25.2509 37.198 25.923 36.866 26.428C36.2973 27.293 35.0626 27.3188 34.0465 27.124C30.3621 26.4241 27.1629 24.1236 24.1048 21.8827C23.7313 21.6127 23.3921 21.2982 23.0947 20.9462C23.1922 21.8747 23.8543 22.9107 24.9618 23.7298C28.0258 25.9687 31.2251 28.2692 34.9035 28.9711C35.9195 29.17 37.1563 29.1401 37.725 28.2752C38.057 27.7662 38.059 27.1021 37.9536 26.4936Z" fill="#EAA542"/>
<path d="M25.3875 20.3695C28.3004 21.1828 30.9131 22.8052 33.4244 24.4933C34.3509 25.1157 35.2874 25.7659 35.9655 26.6567C36.3631 27.1776 36.7011 27.8039 37.3076 28.0485C37.353 27.1979 37.0745 26.3617 36.5282 25.7082C35.982 25.0646 35.3297 24.5192 34.5995 24.0957C33.3694 23.3592 32.0951 22.6991 30.7838 22.1193C29.4994 21.5228 28.2109 20.9342 26.9185 20.3536C26.491 20.1548 25.5446 19.5026 25.0793 19.5583C24.3496 19.6478 25.0037 20.2622 25.3875 20.3695Z" fill="#EAA542"/>
<path d="M32.4638 12.4997C31.0362 13.1161 29.5589 14.0904 29.2169 15.5975C29.149 15.8671 29.1436 16.1487 29.201 16.4207C29.3501 17.0172 29.8969 17.4328 30.4457 17.7171C31.5651 18.2957 32.8317 18.5442 34.0724 18.7113C37.0379 19.1159 40.0446 19.1159 43.01 18.7113C44.4317 18.5124 45.909 18.1963 46.9986 17.2637C47.6448 16.711 48.134 15.8938 48.0564 15.0468C47.9948 14.3707 47.5852 13.7742 47.104 13.295C44.3681 10.573 39.5125 10.6466 36.0071 11.3802C34.7916 11.6341 33.6046 12.0091 32.4638 12.4997Z" fill="#F9B443"/>
<path d="M32.9947 13.7046C32.8343 13.4935 32.6315 13.3183 32.3993 13.1902C32.1672 13.0621 31.9108 12.984 31.6466 12.9609C30.5133 13.5733 29.4933 14.4383 29.2169 15.6651C29.149 15.9347 29.1436 16.2163 29.201 16.4883C29.3501 17.0848 29.8969 17.5023 30.4457 17.7847C30.8287 17.9814 31.2278 18.1451 31.6387 18.2738C31.8928 18.2062 32.1368 18.1052 32.3644 17.9736C32.4972 17.9048 32.6127 17.8069 32.7024 17.6872C32.8456 17.4665 32.8237 17.1743 32.9371 16.9357C33.0663 16.6593 33.3646 16.4883 33.4859 16.2079C33.5542 16.0086 33.5733 15.7958 33.5415 15.5876C33.4958 14.9274 33.3904 14.2355 32.9947 13.7046Z" fill="#F7CC77"/>
<path d="M48.0567 15.0448C47.9951 14.3687 47.5855 13.7722 47.1043 13.293C46.8107 12.9982 46.4898 12.7319 46.1459 12.4977C46.6072 12.9689 46.9949 13.5495 47.0546 14.2037C47.1321 15.0527 46.643 15.8679 45.9968 16.4227C44.9072 17.3552 43.4298 17.6753 42.0102 17.8702C39.0413 18.2745 36.0314 18.2745 33.0626 17.8702C31.8139 17.6992 30.5553 17.4526 29.4359 16.876L29.3901 16.8502C29.6625 17.2187 30.0227 17.5133 30.438 17.7072C31.5574 18.2858 32.824 18.5343 34.0647 18.7013C37.0302 19.106 40.0369 19.106 43.0023 18.7013C44.424 18.5025 45.9013 18.1863 46.991 17.2538C47.6451 16.709 48.1342 15.8918 48.0567 15.0448Z" fill="#EAA542"/>
<path d="M41.6456 12.7243C43.3257 12.6666 45.0894 12.7243 46.5608 13.5335C47.1911 13.8835 47.7916 14.4462 47.8353 15.166C47.8492 15.3648 47.7419 15.6412 47.5371 15.6173C47.4349 15.5894 47.3461 15.5259 47.2865 15.4384C46.5975 14.7104 45.7085 14.2026 44.7315 13.9789C43.7593 13.7602 42.7672 13.6423 41.7709 13.627C39.4107 13.5176 37.0167 13.45 34.7142 13.9829C33.9547 14.1579 33.1892 14.5118 32.4276 14.6232C32.3203 13.8139 35.9371 13.3387 36.5694 13.2313C38.2439 12.9177 39.9421 12.748 41.6456 12.7243Z" fill="#EAA542"/>
<path d="M57.1597 12.8146L57.7112 12.4995C57.7586 12.4878 57.8082 12.4878 57.8556 12.4995C57.9199 12.5117 57.982 12.5338 58.0395 12.5651L57.4748 12.8934C57.42 12.8564 57.3568 12.8339 57.291 12.8278H57.1597V12.8146Z" fill="#5C8D01"/>
<path d="M57.4751 12.854L58.0397 12.5258C59.0969 13.6874 59.8344 15.1036 60.1801 16.6357C60.8366 18.7104 60.9811 20.3912 60.5477 20.6407L59.9962 20.9558C60.4164 20.7195 60.272 19.0387 59.6286 17.0166C59.2796 15.4829 58.5375 14.0664 57.4751 12.9066V12.854Z" fill="#5C8D01"/>
<path d="M57.4752 12.8541C58.5376 14.014 59.2797 15.4304 59.6286 16.9641C60.3377 19.2226 60.4428 21.0347 59.8519 20.9953C59.7911 20.9851 59.7331 20.9628 59.6812 20.9297C58.6137 19.7734 57.8708 18.3555 57.5277 16.8197C56.8186 14.548 56.7136 12.7491 57.2913 12.7885C57.3571 12.7946 57.4204 12.8172 57.4752 12.8541Z" fill="#89D301"/>
<path d="M62.3203 14.9288L62.885 14.6005C62.9779 14.5437 63.0846 14.5135 63.1935 14.5135C63.3024 14.5135 63.4093 14.5437 63.5021 14.6005L62.9506 14.9288C62.8552 14.8722 62.7464 14.8423 62.6355 14.8423C62.5246 14.8423 62.4157 14.8722 62.3203 14.9288Z" fill="#5C8D01"/>
<path d="M62.9506 14.8762L63.5021 14.548L63.6072 14.6268C64.1849 15.1783 64.1193 17.0954 63.4496 18.9206C63.1839 19.8469 62.6437 20.671 61.9001 21.2842L61.3486 21.6124C62.0849 20.9953 62.6199 20.1722 62.885 19.2488C63.5546 17.4236 63.6334 15.4934 63.0557 14.955L62.9506 14.8762Z" fill="#5C8D01"/>
<path d="M62.9508 14.8763L63.0558 14.955C63.6336 15.4934 63.5548 17.4236 62.8851 19.2488C62.2154 21.074 61.3094 21.9932 60.7185 21.6518L60.6266 21.5862C60.0357 21.0347 60.1145 19.1175 60.7842 17.2792C61.4538 15.4409 62.3599 14.5086 62.9508 14.8763Z" fill="#89D301"/>
<path d="M60.9157 11.5936V24.567C60.9107 24.618 60.8923 24.6668 60.8623 24.7083C60.8323 24.7498 60.7918 24.7826 60.745 24.8033C60.6144 24.8681 60.4705 24.9018 60.3248 24.9018C60.179 24.9018 60.0352 24.8681 59.9046 24.8033C59.8577 24.7826 59.8172 24.7498 59.7872 24.7083C59.7572 24.6668 59.7388 24.618 59.7339 24.567V11.5936C59.7365 11.6469 59.7538 11.6985 59.784 11.7425C59.8141 11.7865 59.8558 11.8214 59.9046 11.8431C60.0352 11.9079 60.179 11.9416 60.3248 11.9416C60.4705 11.9416 60.6144 11.9079 60.745 11.8431C60.7937 11.8214 60.8354 11.7865 60.8655 11.7425C60.8957 11.6985 60.913 11.6469 60.9157 11.5936Z" fill="#5C8D01"/>
<mask id="mask0_268_1180" style="mask-type:luminance" maskUnits="userSpaceOnUse" x="59" y="11" width="2" height="14">
<path d="M60.9157 11.5936V24.567C60.9107 24.618 60.8923 24.6668 60.8623 24.7083C60.8323 24.7498 60.7918 24.7826 60.745 24.8033C60.6144 24.8681 60.4705 24.9018 60.3248 24.9018C60.179 24.9018 60.0352 24.8681 59.9046 24.8033C59.8577 24.7826 59.8172 24.7498 59.7872 24.7083C59.7572 24.6668 59.7388 24.618 59.7339 24.567V11.5936C59.7365 11.6469 59.7538 11.6985 59.784 11.7425C59.8141 11.7865 59.8558 11.8214 59.9046 11.8431C60.0352 11.9079 60.179 11.9416 60.3248 11.9416C60.4705 11.9416 60.6144 11.9079 60.745 11.8431C60.7937 11.8214 60.8354 11.7865 60.8655 11.7425C60.8957 11.6985 60.913 11.6469 60.9157 11.5936Z" fill="white"/>
</mask>
<g mask="url(#mask0_268_1180)">
<path d="M60.9155 11.5936V24.567C60.9105 24.618 60.8921 24.6668 60.8621 24.7083C60.8321 24.7498 60.7916 24.7826 60.7448 24.8033H60.6528V11.8431H60.7448C60.7935 11.8214 60.8352 11.7865 60.8653 11.7425C60.8955 11.6985 60.9128 11.6469 60.9155 11.5936Z" fill="#5C8D01"/>
<path d="M60.6525 11.8824V24.8427H60.4556V11.8824H60.6525Z" fill="#5C8D01"/>
<path d="M60.4558 11.8825V24.8427C60.2669 24.8749 60.0726 24.8425 59.9043 24.7508V11.7775C60.0752 11.8615 60.2669 11.8934 60.4558 11.8694V11.8825Z" fill="#89D301"/>
<path d="M59.8779 11.8825V24.8559C59.8322 24.8234 59.7922 24.7835 59.7598 24.7377V11.7775C59.7896 11.822 59.8303 11.8581 59.8779 11.8825Z" fill="#5C8D01"/>
<path d="M59.76 11.7118V24.672C59.7554 24.6372 59.7554 24.6019 59.76 24.567V11.5936C59.7538 11.6328 59.7538 11.6726 59.76 11.7118Z" fill="#5C8D01"/>
</g>
<path d="M60.7449 11.3572C60.7997 11.37 60.8486 11.401 60.8835 11.4451C60.9185 11.4892 60.9375 11.5438 60.9375 11.6001C60.9375 11.6564 60.9185 11.711 60.8835 11.7551C60.8486 11.7992 60.7997 11.8302 60.7449 11.843C60.6143 11.9078 60.4705 11.9415 60.3247 11.9415C60.1789 11.9415 60.0351 11.9078 59.9045 11.843C59.8563 11.8232 59.8152 11.7896 59.7862 11.7463C59.7572 11.7031 59.7417 11.6522 59.7417 11.6001C59.7417 11.548 59.7572 11.4971 59.7862 11.4539C59.8152 11.4106 59.8563 11.377 59.9045 11.3572C60.0351 11.2924 60.1789 11.2587 60.3247 11.2587C60.4705 11.2587 60.6143 11.2924 60.7449 11.3572Z" fill="#21221F"/>
<path d="M62.8589 8.63904C62.8589 11.4359 61.7165 13.0379 60.3115 13.0379C58.9065 13.0379 57.7642 11.4359 57.7642 8.63904C57.7642 5.84215 59.4055 3.55737 60.3115 3.55737C61.2176 3.55737 62.8589 5.82902 62.8589 8.63904Z" fill="url(#paint0_radial_268_1180)"/>
<defs>
<radialGradient id="paint0_radial_268_1180" cx="0" cy="0" r="1" gradientUnits="userSpaceOnUse" gradientTransform="translate(60.0621 6.52497) scale(5.51496 5.515)">
<stop stop-color="#FF6666"/>
<stop offset="0.99" stop-color="#D61413"/>
</radialGradient>
</defs>
</svg>
