<svg width="19" height="32" viewBox="0 0 19 32" fill="none" xmlns="http://www.w3.org/2000/svg">
<path d="M7.85965 32L0 28.6315V10.1052L7.85965 12.9122V32Z" fill="#C6C6C6"/>
<path d="M18.5265 29.1929L7.85986 32V12.9122L18.5265 10.1052V29.1929Z" fill="#E6E6E6"/>
<path d="M14.5964 2.24561L3.92969 4.49123V2.24561L14.5964 0V2.24561Z" fill="#E2E2E2"/>
<path d="M7.85965 12.9123L0 10.1052L3.92982 4.49121L7.85965 12.9123Z" fill="#D1D1D1"/>
<path d="M18.5262 10.1053L7.85951 12.9123L3.92969 4.49122L14.5964 2.24561L18.5262 10.1053Z" fill="#EAEAEA"/>
<path d="M18.5265 20.7719L7.85986 29.1929V20.7719L18.5265 11.7894V20.7719Z" fill="#3DABEF"/>
<path d="M0 25.8246L7.85965 29.193V20.772L0 17.4036V25.8246Z" fill="#2B9DD6"/>
<path d="M12.4714 9.47371C11.2268 9.79932 10.8119 8.67483 10.616 7.92816C10.4206 7.18149 10.232 5.99749 11.4766 5.67188C12.7213 5.34627 13.1361 6.47076 13.3315 7.21742C13.5269 7.96409 13.7161 9.14809 12.4714 9.47371Z" fill="white"/>
<path d="M12.3511 2.71829L13.4739 2.48194V0.236328L12.3511 0.472679V2.71829Z" fill="#EDEDED"/>
<path d="M10.1055 3.19107L11.2283 2.95472V0.709106L10.1055 0.945457V3.19107Z" fill="#EDEDED"/>
<path d="M7.85986 3.66373L8.98267 3.42738V1.18176L7.85986 1.41811V3.66373Z" fill="#EDEDED"/>
<path d="M5.61426 4.13638L6.73706 3.90003V1.65442L5.61426 1.89077V4.13638Z" fill="#EDEDED"/>
</svg>
