<svg width="32" height="32" viewBox="0 0 32 32" fill="none" xmlns="http://www.w3.org/2000/svg">
<path d="M15.9998 9.77783C7.99978 9.77783 0.888672 12.8543 0.888672 17.7778C0.888672 21.4703 4.44423 24.5467 9.77756 24.5467C12.8478 24.5467 16.0984 22.6934 18.4238 22.6934C18.5064 22.6934 18.5873 22.6961 18.6664 22.7005C22.1411 22.9094 22.222 25.7778 26.6664 25.7778C28.7473 25.7778 31.1109 23.9316 31.1109 19.6241C31.1109 14.0854 24.8887 9.77783 15.9998 9.77783Z" fill="#FFD983"/>
<path d="M29.3331 15.9999H31.1109V19.5555H29.3331V15.9999ZM0.888672 14.2222H2.66645V17.7777H0.888672V14.2222Z" fill="#FFD983"/>
<path d="M26.6668 21.6071C24.6481 21.6071 23.7495 20.9359 22.7068 20.1599C21.7566 19.4515 20.6793 18.6497 18.7441 18.5324C18.6376 18.526 18.5309 18.5227 18.4241 18.5226C17.1504 18.5226 15.777 18.9519 14.3237 19.4079C12.8019 19.8835 11.2286 20.3759 9.77881 20.3759C5.14325 20.3759 1.77881 17.7875 1.77881 14.2222C1.77881 9.42573 9.10681 6.83728 16.001 6.83728C24.2419 6.83728 30.2233 10.7191 30.2233 16.0684C30.2224 20.1315 28.0953 21.6071 26.6668 21.6071Z" fill="#A0041E"/>
<path d="M15.9998 7.45328C23.7251 7.45328 29.3331 11.0764 29.3331 16.0684C29.3331 19.7519 27.502 20.9911 26.6664 20.9911C25.0362 20.9911 24.3687 20.4942 23.3571 19.7404C22.35 18.9902 21.0967 18.0559 18.8202 17.9191C18.6882 17.9108 18.556 17.9067 18.4238 17.9066C16.9589 17.9066 15.5002 18.3635 13.9571 18.8462C12.5207 19.2959 11.0362 19.7599 9.77756 19.7599C6.24334 19.7599 2.66645 17.8568 2.66645 14.2222C2.66645 9.82572 9.53667 7.45328 15.9998 7.45328ZM15.9998 6.22217C7.99978 6.22217 0.888672 9.29861 0.888672 14.2222C0.888672 17.9146 4.44423 20.9911 9.77756 20.9911C12.8478 20.9911 16.0984 19.1377 18.4238 19.1377C18.5064 19.1377 18.5873 19.1404 18.6664 19.1448C22.1411 19.3537 22.222 22.2222 26.6664 22.2222C28.7473 22.2222 31.1109 20.3759 31.1109 16.0684C31.1109 10.5297 24.8887 6.22217 15.9998 6.22217Z" fill="#FFE8B6"/>
<path d="M14.3652 7.50484C14.3652 7.50484 16.8888 7.45328 18.6666 8.68351C19.5555 9.29862 18.9643 10.6835 18.9643 10.6835L20.4443 11.1457C20.4443 11.1457 20.3892 10.4035 23.111 9.91462C25.1119 9.55551 27.1483 11.1457 27.1483 11.1457C27.1483 11.1457 24.8888 8.06839 20.4443 7.45328C15.9999 6.83728 14.3652 7.50484 14.3652 7.50484Z" fill="#FFE8B6"/>
<path d="M22.2224 12.376C22.2224 13.7351 20.6304 14.8373 18.6669 14.8373C16.7033 14.8373 15.1113 13.7351 15.1113 12.376C15.1113 11.0169 16.7033 9.91467 18.6669 9.91467C20.6304 9.91467 22.2224 11.0169 22.2224 12.376Z" fill="#E6E7E8"/>
<path d="M20.4442 12.376C20.4442 13.056 19.6478 13.6071 18.6664 13.6071C17.6851 13.6071 16.8887 13.056 16.8887 12.376C16.8887 11.696 17.6851 11.1458 18.6664 11.1458C19.6478 11.1458 20.4442 11.696 20.4442 12.376Z" fill="#A7A9AC"/>
</svg>
