<svg width="64" height="27" viewBox="0 0 64 27" fill="none" xmlns="http://www.w3.org/2000/svg">
<path d="M2.85524 8.43641C2.01421 8.93092 1.1822 9.48859 0.615502 10.2827C0.0487997 11.0768 -0.205672 12.1543 0.19499 13.044C0.595651 13.9338 1.55218 14.4481 2.51052 14.5636C3.46886 14.6791 4.43443 14.4517 5.36208 14.1846C7.4448 13.5836 9.51308 12.7571 11.1717 11.3674C11.881 10.7754 12.5343 10.0445 12.7563 9.1457C13.0144 8.10253 12.639 6.97994 11.982 6.12447C11.5092 5.50723 10.9479 5.09936 10.2007 5.33759C9.40299 5.59026 8.5764 5.89526 7.77688 6.1714C6.06421 6.75866 4.41529 7.51753 2.85524 8.43641Z" fill="#EAA542"/>
<path d="M12.0001 6.01617C11.8176 5.76632 11.5935 5.54963 11.3377 5.37549C11.6838 6.06178 11.7833 6.84624 11.6193 7.59716C11.3973 8.49956 10.7458 9.22148 10.0347 9.81706C8.37068 11.2067 6.30962 12.0333 4.2269 12.6343C3.29743 12.9014 2.33368 13.1306 1.37534 13.0133C0.923126 12.9596 0.486221 12.8161 0.090332 12.591C0.120974 12.7099 0.16204 12.8258 0.213056 12.9375C0.608303 13.8164 1.57026 14.3416 2.5286 14.4571C3.48694 14.5727 4.45069 14.3434 5.37835 14.0763C7.46287 13.4772 9.52935 12.6506 11.1879 11.2609C11.899 10.6671 12.5506 9.93797 12.7725 9.03918C13.0306 7.99422 12.6552 6.86984 12.0001 6.01617Z" fill="#D1913D"/>
<path d="M8.67726 10.8043C8.65019 10.9848 8.63214 11.2086 8.77652 11.3277C8.82343 11.3618 8.87597 11.3875 8.93174 11.4035C9.57966 11.6291 10.399 11.6688 10.8502 11.1544C11.1643 10.7935 11.2022 10.2791 11.1697 9.80443C11.146 9.27262 11.0056 8.75256 10.7582 8.2812C10.4893 7.80474 8.95339 5.81767 8.42459 6.96731C8.22967 7.38422 8.652 8.31007 8.70433 8.7721C8.77823 9.44806 8.76914 10.1305 8.67726 10.8043Z" fill="#D1913D"/>
<path d="M13.2488 5.23836C13.7378 5.65765 14.3232 5.9491 14.9525 6.0866C15.8647 6.28996 16.7941 6.4066 17.7282 6.43494L24.7831 6.86987C25.8516 6.93665 26.9597 6.99442 27.9505 6.52156C28.9414 6.04871 29.7697 4.8792 29.6091 3.65015C29.4395 2.34348 28.2989 1.54036 27.2322 1.08375C25.0881 0.163311 22.7654 -0.114631 20.4841 0.0405806C18.2787 0.192182 16.1888 0.845513 14.0393 1.3707C12.4023 1.77137 11.8446 3.94975 13.2488 5.23836Z" fill="#EAA542"/>
<path d="M29.5533 3.35957C29.4414 3.78195 29.2404 4.17544 28.9636 4.51354C28.6868 4.85164 28.3408 5.12649 27.9488 5.31956C26.9598 5.79422 25.8499 5.73468 24.7814 5.6697L17.7284 5.23474C16.7941 5.20669 15.8646 5.08944 14.9526 4.88461C14.3233 4.7471 13.7379 4.45566 13.2489 4.03637C12.9016 3.72487 12.651 3.32021 12.527 2.87048C12.4146 3.29323 12.4227 3.73897 12.5502 4.15738C12.6778 4.57579 12.9198 4.9502 13.2489 5.23836C13.7379 5.65765 14.3233 5.94909 14.9526 6.0866C15.8648 6.28995 16.7942 6.40659 17.7284 6.43493L24.7814 6.86987C25.8499 6.93664 26.9598 6.99441 27.9488 6.52156C28.9379 6.0487 29.7699 4.8792 29.6092 3.65014C29.5963 3.55227 29.5776 3.45524 29.5533 3.35957Z" fill="#D1913D"/>
<path d="M7.67055 4.45333C7.62543 5.33767 8.01707 6.1787 8.40691 6.98003C9.71718 9.65832 11.1321 12.3474 13.2437 14.4518C13.9656 15.1737 14.7958 15.8361 15.7704 16.1718C16.745 16.5075 17.8784 16.4768 18.7267 15.8974C19.5334 15.3452 19.9756 14.3706 20.0802 13.3978C20.1849 12.425 19.9936 11.4469 19.7554 10.4975C19.149 8.07914 18.0607 5.77624 16.3786 3.93536C12.9622 0.197652 7.88171 0.240966 7.67055 4.45333Z" fill="#F9B443"/>
<path d="M19.376 14.1919C18.5295 14.7694 17.3907 14.8001 16.4215 14.4662C15.4524 14.1324 14.6276 13.47 13.8948 12.7463C11.7832 10.6419 10.3683 7.95277 9.05801 5.27447C8.66818 4.47856 8.27654 3.63934 8.32166 2.74778C8.32833 2.59853 8.34279 2.44974 8.36498 2.302C7.9228 2.829 7.64306 3.54911 7.59975 4.46774C7.55463 5.35028 7.94627 6.19131 8.3361 6.99444C9.64637 9.67093 11.0613 12.3601 13.1729 14.4662C13.8948 15.1882 14.725 15.8505 15.6996 16.1862C16.6742 16.5219 17.8076 16.4894 18.654 15.9101C19.4048 15.3993 19.838 14.5222 19.9806 13.6216C19.8091 13.8412 19.6052 14.0335 19.376 14.1919Z" fill="#EAA542"/>
<path d="M7.67041 4.25298C8.11619 4.23313 8.57281 4.18982 9.01678 4.17358C9.71343 4.14831 9.93181 3.81261 10.5039 3.5076C10.9299 3.2802 11.4731 3.32713 11.8756 3.06724C12.3123 2.78209 12.4567 2.2208 12.5668 1.71185C12.5921 1.59815 12.6173 1.48264 12.6372 1.36713C10.1376 0.596489 7.85991 1.52234 7.67041 4.25298Z" fill="#F7CC77"/>
<path d="M12.249 6.9024C13.1514 8.20726 14.0538 9.51392 14.8407 10.8982C15.6275 12.2825 16.2664 13.7245 17.3024 14.9048C17.5532 15.19 17.8601 15.4733 18.2391 15.5004C18.3321 15.5127 18.4265 15.4923 18.5062 15.4426C18.7155 15.2946 18.6235 14.968 18.5062 14.7406C16.5209 10.8693 13.4058 7.70193 11.0163 4.0689C10.8358 3.78194 10.2583 2.70448 9.87389 2.66658C9.19349 2.598 9.84321 3.43542 10.0002 3.65921L12.249 6.9024Z" fill="#EAA542"/>
<path d="M20.6988 10.4396C21.0381 9.64915 21.612 8.98138 22.2292 8.38039C24.5881 6.0829 27.6562 4.61382 30.8326 3.75113C31.8938 3.46237 33.085 3.25121 34.0397 3.79264C35.0973 4.39002 35.5142 5.7779 35.2742 6.97086C35.0342 8.16382 34.2635 9.17811 33.4135 10.039C31.1124 12.3852 28.0154 13.977 24.7505 14.3109C22.2653 14.5708 19.4192 13.4175 20.6988 10.4396Z" fill="#F9B443"/>
<path d="M23.2959 9.17092C25.5022 7.56544 27.8412 6.1508 30.2876 4.94233C31.0583 4.56152 31.8704 4.19515 32.7295 4.17529L31.0943 5.06685C29.2607 6.06669 27.4216 7.07016 25.68 8.22883C24.7946 8.81233 23.9426 9.445 23.128 10.1239C22.7887 10.409 21.0634 13.2173 20.7926 12.7498C20.401 12.0694 22.8555 9.49217 23.2959 9.17092Z" fill="#EAA542"/>
<path d="M34.0402 3.79264C33.0836 3.25121 31.8925 3.46237 30.8331 3.75113H30.815C30.7104 4.1915 31.2716 4.20233 31.6561 4.22037C31.7797 4.23476 31.8975 4.28087 31.9981 4.35423C32.0986 4.4276 32.1785 4.52572 32.23 4.63907C32.3303 4.86898 32.3972 5.11209 32.4285 5.36099C32.4384 5.45734 32.4746 5.54913 32.5332 5.62631C32.5943 5.68501 32.6705 5.7256 32.7534 5.7436C33.3291 5.91325 33.9969 5.79595 34.4896 6.13705C34.67 6.25797 34.8036 6.42942 34.9859 6.5359C35.0892 6.59635 35.2043 6.63389 35.3234 6.64599C35.4335 5.53605 35.0021 4.33588 34.0402 3.79264Z" fill="#F7CC77"/>
<path d="M34.5687 4.22583C34.7083 4.73732 34.7268 5.27428 34.6229 5.79418C34.3828 6.98533 33.6122 8.00143 32.7621 8.86231C30.4628 11.2085 27.364 12.8004 24.0992 13.1342C22.7257 13.275 21.2386 12.9826 20.4048 12.1867C20.6863 13.8616 22.8196 14.5059 24.7363 14.3092C28.0065 13.9753 31.1035 12.3852 33.3992 10.0372C34.2493 9.17093 35.0235 8.15483 35.26 6.96909C35.4513 6.01256 35.2184 4.91706 34.5687 4.22583Z" fill="#EAA542"/>
<path d="M18.9177 1.70281C21.587 1.21552 24.3176 1.9609 26.8912 2.81998C27.1257 2.91948 27.3809 2.96037 27.6348 2.9391C27.7609 2.92346 27.877 2.86279 27.9619 2.76827C28.0468 2.67376 28.0947 2.55175 28.0968 2.42472C28.0715 2.28872 28.0009 2.16531 27.8965 2.0746C27.5211 1.71365 26.9815 1.56204 26.4707 1.4339C24.4096 0.921339 22.28 0.401573 20.1395 0.565808C19.4284 0.619952 18.3221 0.675898 17.6796 1.0152C16.3405 1.72448 18.3961 1.80027 18.9177 1.70281Z" fill="#F9B443"/>
<path d="M5.76084 12.2264C5.12376 12.4069 4.44877 12.7228 4.1582 13.3689C3.95938 13.8794 3.97106 14.4479 4.19068 14.9499C4.40808 15.4314 4.70729 15.8717 5.07502 16.2511C6.4106 17.7301 8.03048 18.9247 9.83795 19.7638C11.6454 20.6029 13.6034 21.0692 15.5951 21.1349C16.3676 21.1583 17.2411 21.0735 17.7392 20.4256C18.2373 19.7777 18.1633 18.8013 17.824 18.0577C17.4631 17.2564 16.8404 16.6337 16.1997 16.0724C14.7197 14.7737 13.0425 13.7186 11.2311 12.9466C10.4876 12.6325 9.68263 12.212 8.92102 11.9882C7.96448 11.7085 6.70114 11.9557 5.76084 12.2264Z" fill="#F9B443"/>
<path d="M18.028 19.3283C17.5298 19.9762 16.6563 20.061 15.8821 20.0375C13.8906 19.9721 11.9328 19.5058 10.1256 18.6667C8.31842 17.8276 6.69889 16.6328 5.36379 15.1538C4.99525 14.775 4.69594 14.3346 4.47945 13.8526C4.38317 13.6148 4.32589 13.3631 4.3098 13.1072C4.25057 13.1891 4.19978 13.2767 4.1582 13.3689C3.95938 13.8794 3.97106 14.4479 4.19068 14.9499C4.40808 15.4314 4.70729 15.8717 5.07502 16.2511C6.4106 17.7301 8.03048 18.9247 9.83795 19.7638C11.6454 20.6029 13.6034 21.0692 15.5951 21.1348C16.3676 21.1583 17.2411 21.0735 17.7392 20.4256C17.9898 20.081 18.117 19.662 18.1001 19.2362C18.0761 19.2675 18.052 19.2982 18.028 19.3283Z" fill="#EAA542"/>
<path d="M15.3567 17.87C14.6095 16.9676 13.644 16.2836 12.691 15.6068C10.9458 14.3705 9.18795 13.127 7.23518 12.2571C7.0348 12.1649 6.82932 12.0841 6.61974 12.0153C6.31654 12.0766 6.02597 12.1524 5.76067 12.2264C5.59084 12.2774 5.42394 12.3376 5.26074 12.4069H5.2824C5.86863 12.5084 6.44521 12.6593 7.00597 12.8581C8.15742 13.2804 9.22405 13.8995 10.2726 14.5275C11.4818 15.2494 12.6874 15.993 13.7559 16.9116C14.4038 17.4693 15.0084 18.0956 15.7664 18.4944C15.6588 18.2686 15.521 18.0586 15.3567 17.87Z" fill="#EAA542"/>
<path d="M22.6609 21.5356C25.4402 23.5678 28.3441 25.6559 31.6848 26.293C32.6052 26.4735 33.7278 26.4464 34.244 25.6613C34.5454 25.2029 34.5472 24.6001 34.4515 24.0515C34.1032 22.0427 32.6341 20.3913 30.9881 19.2128C28.752 17.6102 26.0214 16.6988 23.307 16.9099C20.1811 17.1536 20.3868 19.8734 22.6609 21.5356Z" fill="#F9B443"/>
<path d="M34.4495 24.0478C34.3011 23.2375 33.9885 22.4661 33.5309 21.781C33.5891 21.9772 33.6355 22.1767 33.6699 22.3784C33.7655 22.9198 33.7637 23.5298 33.4623 23.9883C32.9462 24.7733 31.8254 24.7968 30.9032 24.6199C27.5589 23.9846 24.655 21.8965 21.8792 19.8625C21.5402 19.6174 21.2324 19.332 20.9624 19.0125C21.0508 19.8553 21.6518 20.7956 22.6571 21.5391C25.4383 23.5713 28.3422 25.6595 31.681 26.2966C32.6033 26.477 33.7258 26.45 34.242 25.6649C34.5434 25.2029 34.5452 24.6001 34.4495 24.0478Z" fill="#EAA542"/>
<path d="M23.0434 18.489C25.6874 19.2272 28.0589 20.6999 30.3384 22.2321C31.1794 22.797 32.0294 23.3872 32.6449 24.1957C33.0058 24.6686 33.3126 25.2371 33.8631 25.4591C33.9044 24.687 33.6516 23.928 33.1556 23.3349C32.6599 22.7507 32.0678 22.2556 31.405 21.8712C30.2884 21.2027 29.1318 20.6036 27.9416 20.0772C26.7757 19.5358 25.6062 19.0016 24.4331 18.4746C24.0451 18.2941 23.186 17.7021 22.7637 17.7527C22.1013 17.8339 22.6951 18.3916 23.0434 18.489Z" fill="#EAA542"/>
<path d="M29.4671 11.3457C28.1713 11.9052 26.8303 12.7895 26.5199 14.1575C26.4583 14.4023 26.4534 14.6578 26.5054 14.9047C26.6408 15.4462 27.1371 15.8234 27.6352 16.0814C28.6513 16.6066 29.801 16.8322 30.9272 16.9838C33.6189 17.3511 36.348 17.3511 39.0397 16.9838C40.3301 16.8034 41.671 16.5164 42.6601 15.6699C43.2466 15.1682 43.6906 14.4265 43.6202 13.6576C43.5643 13.044 43.1925 12.5026 42.7557 12.0676C40.2723 9.59686 35.8651 9.66363 32.6832 10.3296C31.5799 10.56 30.5025 10.9004 29.4671 11.3457Z" fill="#F9B443"/>
<path d="M29.949 12.4394C29.8034 12.2478 29.6193 12.0887 29.4086 11.9725C29.1978 11.8562 28.9651 11.7853 28.7253 11.7644C27.6966 12.3203 26.7707 13.1054 26.5199 14.2189C26.4583 14.4636 26.4534 14.7192 26.5054 14.9661C26.6408 15.5075 27.1371 15.8865 27.6352 16.1428C27.9829 16.3214 28.3452 16.4699 28.7181 16.5868C28.9487 16.5254 29.1702 16.4338 29.3769 16.3143C29.4974 16.2518 29.6022 16.163 29.6837 16.0544C29.8136 15.854 29.7938 15.5888 29.8966 15.3722C30.0139 15.1213 30.2847 14.9661 30.3948 14.7116C30.4568 14.5308 30.4741 14.3376 30.4453 14.1485C30.4038 13.5493 30.3081 12.9213 29.949 12.4394Z" fill="#F7CC77"/>
<path d="M43.6201 13.6559C43.5641 13.0423 43.1923 12.5009 42.7556 12.0659C42.4891 11.7983 42.1978 11.5566 41.8857 11.344C42.3044 11.7717 42.6563 12.2987 42.7104 12.8925C42.7808 13.6631 42.3369 14.4031 41.7503 14.9066C40.7613 15.7531 39.4203 16.0437 38.1317 16.2205C35.437 16.5876 32.7049 16.5876 30.0102 16.2205C28.8768 16.0653 27.7344 15.8415 26.7183 15.3181L26.6768 15.2947C26.924 15.6292 27.2509 15.8966 27.6279 16.0725C28.644 16.5977 29.7936 16.8233 30.9198 16.9749C33.6115 17.3422 36.3406 17.3422 39.0323 16.9749C40.3227 16.7945 41.6637 16.5075 42.6527 15.661C43.2465 15.1665 43.6904 14.4248 43.6201 13.6559Z" fill="#EAA542"/>
<path d="M37.8012 11.5497C39.3263 11.4974 40.9271 11.5497 42.2627 12.2842C42.8348 12.6019 43.3798 13.1126 43.4195 13.766C43.4322 13.9464 43.3347 14.1973 43.1488 14.1757C43.0561 14.1503 42.9755 14.0927 42.9214 14.0132C42.296 13.3525 41.4891 12.8915 40.6023 12.6885C39.7198 12.49 38.8193 12.3829 37.9149 12.3691C35.7727 12.2698 33.5997 12.2084 31.5098 12.6921C30.8203 12.8509 30.1255 13.1722 29.4343 13.2733C29.3368 12.5387 32.6197 12.1074 33.1936 12.0099C34.7135 11.7252 36.255 11.5712 37.8012 11.5497Z" fill="#EAA542"/>
<path d="M54.823 26.1546H54.8115L54.823 26.1431V26.1546Z" fill="#71B500"/>
<path d="M54.8121 26.1546L53.7158 25.52L53.7274 25.5084L54.8236 26.1431L54.8121 26.1546Z" fill="#3E6300"/>
<path d="M54.5347 26.0854L53.4385 25.4507L53.7154 25.5199L54.8117 26.1546L54.5347 26.0854Z" fill="#395B00"/>
<path d="M54.3157 26.3969L53.231 25.7622L53.4387 25.4507L54.5349 26.0854L54.3157 26.3969Z" fill="#3D6200"/>
<path d="M54.3159 26.3969L54.5352 26.0853L54.8121 26.1546L54.3159 26.4431V26.3969Z" fill="#71B500"/>
<path d="M54.3157 26.4432L53.231 25.8085V25.7623L54.3157 26.397V26.4432Z" fill="#3D6200"/>
<path d="M54.4078 26.0507L53.3115 25.416L53.4385 25.4506L54.5347 26.0853L54.4078 26.0507Z" fill="#395B00"/>
<path d="M54.4078 26.0507L53.3115 25.416L53.4385 25.1506L54.5347 25.7853L54.4078 26.0507Z" fill="#3E6300"/>
<path d="M54.5347 25.7855L53.4385 25.1508L53.727 24.5392L54.8232 25.1739L54.5347 25.7855Z" fill="#3E6300"/>
<path d="M54.5348 25.7854L53.4385 25.1507L53.2192 24.943L54.3155 25.5777L54.5348 25.7854Z" fill="#3A5C00"/>
<path d="M58.4815 18.3308L57.3853 17.6961L57.6737 17.073L58.77 17.7077L58.4815 18.3308Z" fill="#3E6300"/>
<path d="M54.8233 25.1737L53.7271 24.539L56.9351 17.673L58.0313 18.3076L54.8233 25.1737Z" fill="#3E6300"/>
<path d="M58.0313 18.3077L56.9351 17.673L57.2697 16.9691L58.366 17.6038L58.0313 18.3077Z" fill="#3E6300"/>
<path d="M58.3658 17.6038L57.2695 16.9691L57.6734 17.073L58.7697 17.7076L58.3658 17.6038Z" fill="#395B00"/>
<path d="M58.3663 17.6038L58.7702 17.7076L58.4817 18.3308L54.8236 26.1431L54.5351 26.0854L54.4082 26.0507L54.5351 25.7853L54.8236 25.1737L58.0316 18.3077L58.3663 17.6038Z" fill="#71B500"/>
<path d="M61.482 8.04896L60.3857 7.4143C60.6133 7.27049 60.8675 7.1739 61.1331 7.13028C61.3987 7.08667 61.6704 7.09693 61.932 7.16043C62.0542 7.18752 62.1711 7.23428 62.2782 7.2989L63.3745 7.94511C63.2681 7.87645 63.1511 7.82576 63.0283 7.79509C62.7667 7.73159 62.495 7.72137 62.2294 7.76498C61.9637 7.80859 61.7095 7.90515 61.482 8.04896Z" fill="#4C7900"/>
<path d="M54.8004 19.1386L53.7041 18.5039V17.8577L54.8004 18.4923V19.1386Z" fill="#3D6200"/>
<path d="M54.3158 25.5776L53.2195 24.9429L53.208 18.7115L54.3043 19.3462L54.3158 25.5776Z" fill="#3D6200"/>
<path d="M54.2927 18.7808L53.208 18.1462L53.7042 17.8577L54.8005 18.4923L54.2927 18.7808Z" fill="#3B5E00"/>
<path d="M54.3043 19.3462L53.208 18.7116V18.1461L54.2927 18.7808L54.3043 19.3462Z" fill="#3D6200"/>
<path d="M54.2925 18.7808L54.8002 18.4923V19.1385L54.8233 25.1737L54.5348 25.7853L54.3156 25.5776L54.304 19.3462L54.2925 18.7808Z" fill="#71B500"/>
<path d="M57.9619 18.2846L56.8772 17.6384C56.5541 17.4653 56.381 16.946 56.4387 15.9651C56.6233 12.7456 58.3658 8.5798 60.3853 7.41431L61.4815 8.04897C59.4621 9.20293 57.7196 13.3803 57.535 16.5998C57.4773 17.5807 57.6504 18.1 57.9619 18.2846Z" fill="#4C7900"/>
<path d="M61.4817 8.04892C61.7093 7.90511 61.9635 7.80855 62.2291 7.76494C62.4948 7.72133 62.7664 7.73155 63.028 7.79505C66.0745 8.6259 61.0548 16.2074 60.2932 17.0267C59.9229 17.4536 59.4912 17.8231 59.0123 18.123C58.8445 18.2165 58.6663 18.2901 58.4815 18.3422L58.77 17.7191L58.3661 17.6037L58.0314 18.3076C57.6737 18.1692 57.466 17.6499 57.5352 16.5998C57.7429 13.3802 59.4623 9.21442 61.4817 8.04892Z" fill="#71B500"/>
<path d="M54.2582 26.4777L53.1619 25.843L49.4692 22.2657L50.5655 22.9004L54.2582 26.4777Z" fill="#3A5C00"/>
<path d="M51.0037 22.3696L49.9074 21.7349L49.5728 21.4003L50.669 22.0465L51.0037 22.3696Z" fill="#3A5C00"/>
<path d="M50.5652 22.9003L49.469 22.2657L49.1689 21.9772L50.2652 22.6234L50.5652 22.9003Z" fill="#3A5C00"/>
<path d="M50.669 22.0465L51.0037 22.3696L54.3155 25.5776L54.5348 25.7853L54.4078 26.0507L54.5348 26.0854L54.3155 26.3969L54.2578 26.4777L50.5652 22.9004L50.2651 22.6235L50.669 22.0465Z" fill="#71B500"/>
<path d="M50.2652 22.6235L49.1689 21.9772L49.5728 21.4003L50.6691 22.0465L50.2652 22.6235Z" fill="#3D6200"/>
<path d="M54.6963 9.6299L53.6001 8.9952C53.8559 8.79394 54.1607 8.66434 54.4831 8.61973C54.8055 8.57512 55.134 8.61709 55.4349 8.74133L56.5312 9.37603C56.2303 9.25179 55.9018 9.20982 55.5794 9.25443C55.2569 9.29904 54.9522 9.42864 54.6963 9.6299Z" fill="#4C7900"/>
<path d="M53.5307 19.2078L52.446 18.5731C52.2175 18.4393 52.0238 18.2535 51.8806 18.0308C51.4536 17.4422 49.815 11.1878 53.6 8.99524L54.6962 9.62994C50.9112 11.8225 52.5498 18.0769 52.9653 18.6654C53.1146 18.883 53.3071 19.0676 53.5307 19.2078Z" fill="#4C7900"/>
<path d="M54.6967 9.62983C57.9278 7.77196 58.0432 12.6994 56.2315 17.0498C55.963 17.868 55.4666 18.5926 54.8006 19.1384V18.5037L54.3043 18.7922V19.3461C54.039 19.3764 53.7707 19.328 53.5327 19.2069C53.2947 19.0859 53.0975 18.8975 52.9657 18.6653C52.5503 18.0768 50.9117 11.8224 54.6967 9.62983Z" fill="#71B500"/>
<path d="M47.5074 16.115L46.4111 15.4803C46.7258 15.2887 47.0871 15.1874 47.4555 15.1874C47.8239 15.1874 48.1852 15.2887 48.4998 15.4803L49.5961 16.1266C49.2814 15.9349 48.9201 15.8336 48.5517 15.8336C48.1833 15.8336 47.8221 15.9349 47.5074 16.1266V16.115Z" fill="#4C7900"/>
<path d="M46.9071 23.062L45.8109 22.4273C44.3454 21.5734 42.9029 19.8425 44.8762 17.0153C45.2739 16.4013 45.7969 15.8782 46.4109 15.4805L47.5072 16.1152C46.8932 16.5129 46.3702 17.0359 45.9724 17.6499C43.9876 20.4771 45.4416 22.2658 46.9071 23.062Z" fill="#4C7900"/>
<path d="M47.5077 16.1152C49.5387 14.9612 51.2927 17.0845 51.5004 20.0848C51.5955 20.8879 51.421 21.6997 51.0042 22.3927L50.6696 22.0696L50.2657 22.6466L50.5657 22.9351C50.3994 23.0796 50.2219 23.2108 50.0349 23.3274C49.6389 23.5533 49.1972 23.6874 48.7425 23.7198C47.9809 23.789 42.9727 22.0119 45.973 17.673C46.3682 17.0507 46.8914 16.5196 47.5077 16.1152Z" fill="#71B500"/>
</svg>
