<svg width="64" height="34" viewBox="0 0 64 34" fill="none" xmlns="http://www.w3.org/2000/svg">
<path d="M3.46345 10.2335C2.44327 10.8333 1.43403 11.5098 0.746613 12.4731C0.0591948 13.4363 -0.249483 14.7433 0.236525 15.8226C0.722534 16.9019 1.88282 17.5258 3.0453 17.6659C4.20778 17.806 5.37902 17.5302 6.50429 17.2062C9.03066 16.4772 11.5395 15.4745 13.5514 13.7888C14.4118 13.0707 15.2043 12.1841 15.4735 11.0939C15.7866 9.8285 15.3313 8.46677 14.5344 7.42908C13.9608 6.68036 13.2799 6.1856 12.3736 6.47458C11.406 6.78107 10.4033 7.15105 9.43347 7.486C7.35598 8.19837 5.35581 9.11888 3.46345 10.2335Z" fill="#EAA542"/>
<path d="M14.5561 7.29779C14.3347 6.99472 14.0629 6.73187 13.7526 6.52063C14.1725 7.35311 14.2931 8.30467 14.0942 9.21556C13.8249 10.3102 13.0346 11.1859 12.172 11.9083C10.1536 13.594 7.65346 14.5967 5.12709 15.3257C3.99964 15.6497 2.83058 15.9277 1.6681 15.7854C1.11957 15.7203 0.589595 15.5462 0.109375 15.2732C0.146544 15.4174 0.196358 15.558 0.258241 15.6935C0.737682 16.7596 1.90454 17.3967 3.06702 17.5368C4.22951 17.6769 5.39856 17.3989 6.52382 17.0749C9.05238 16.3481 11.559 15.3454 13.5709 13.6597C14.4335 12.9394 15.2238 12.055 15.4931 10.9647C15.8061 9.69718 15.3508 8.3333 14.5561 7.29779Z" fill="#D1913D"/>
<path d="M10.5257 13.1058C10.4928 13.3248 10.4709 13.5962 10.6461 13.7407C10.703 13.7821 10.7667 13.8132 10.8343 13.8326C11.6203 14.1063 12.6142 14.1545 13.1615 13.5306C13.5424 13.0927 13.5884 12.4688 13.549 11.893C13.5203 11.2479 13.3499 10.6171 13.0498 10.0453C12.7236 9.46733 10.8606 7.05699 10.2192 8.45152C9.98272 8.95724 10.495 10.0803 10.5585 10.6408C10.6481 11.4607 10.6371 12.2886 10.5257 13.1058Z" fill="#D1913D"/>
<path d="M16.071 6.35421C16.6642 6.86282 17.3743 7.21634 18.1377 7.38314C19.2442 7.62981 20.3716 7.7713 21.5047 7.80567L30.0624 8.33326C31.3584 8.41426 32.7026 8.48433 33.9045 7.91075C35.1064 7.33717 36.1112 5.91855 35.9164 4.42768C35.7106 2.84268 34.327 1.86848 33.0332 1.31461C30.4324 0.198099 27.6148 -0.139049 24.8477 0.0492249C22.1724 0.23312 19.6373 1.02562 17.0299 1.66268C15.0443 2.14869 14.3678 4.7911 16.071 6.35421Z" fill="#EAA542"/>
<path d="M35.8488 4.07521C35.7131 4.58755 35.4692 5.06486 35.1335 5.47498C34.7977 5.8851 34.378 6.2185 33.9026 6.4527C32.7029 7.02847 31.3565 6.95624 30.0605 6.87743L21.505 6.34982C20.3716 6.31579 19.2442 6.17356 18.1379 5.92509C17.3745 5.7583 16.6645 5.40477 16.0713 4.89617C15.65 4.51831 15.3461 4.02746 15.1956 3.48193C15.0593 3.99473 15.0691 4.53542 15.2238 5.04296C15.3785 5.5505 15.6721 6.00466 16.0713 6.3542C16.6645 6.86281 17.3745 7.21633 18.1379 7.38313C19.2444 7.6298 20.3718 7.77128 21.505 7.80566L30.0605 8.33324C31.3565 8.41425 32.7029 8.48432 33.9026 7.91074C35.1023 7.33716 36.1115 5.91853 35.9166 4.42767C35.901 4.30895 35.8783 4.19125 35.8488 4.07521Z" fill="#D1913D"/>
<path d="M9.30461 5.40191C9.24988 6.47464 9.72495 7.49482 10.1978 8.46683C11.7872 11.7156 13.5036 14.9776 16.0649 17.5302C16.9406 18.4059 17.9477 19.2094 19.1299 19.6166C20.3121 20.0238 21.6869 19.9865 22.7158 19.2838C23.6944 18.6139 24.2308 17.4317 24.3577 16.2517C24.4847 15.0717 24.2527 13.8852 23.9637 12.7336C23.2281 9.80007 21.908 7.00662 19.8676 4.77361C15.7234 0.239714 9.56075 0.292254 9.30461 5.40191Z" fill="#F9B443"/>
<path d="M23.5034 17.215C22.4766 17.9155 21.0952 17.9528 19.9196 17.5478C18.744 17.1428 17.7435 16.3393 16.8547 15.4614C14.2933 12.9088 12.5769 9.64683 10.9876 6.39801C10.5147 5.43256 10.0396 4.41457 10.0944 3.33309C10.1025 3.15205 10.12 2.97157 10.1469 2.79236C9.61054 3.43161 9.27121 4.30512 9.21867 5.41943C9.16394 6.48996 9.639 7.51015 10.1119 8.48435C11.7013 11.731 13.4176 14.9929 15.979 17.5478C16.8547 18.4235 17.8617 19.2269 19.0439 19.6341C20.2261 20.0413 21.6009 20.0019 22.6277 19.2991C23.5384 18.6796 24.0638 17.6156 24.2368 16.5232C24.0287 16.7896 23.7815 17.0229 23.5034 17.215Z" fill="#EAA542"/>
<path d="M9.3042 5.15884C9.84494 5.13476 10.3988 5.08223 10.9374 5.06253C11.7824 5.03188 12.0473 4.62467 12.7413 4.25469C13.2579 3.97884 13.9169 4.03578 14.4051 3.72053C14.9349 3.37463 15.11 2.69378 15.2436 2.07642C15.2742 1.93849 15.3049 1.79838 15.329 1.65826C12.2969 0.723464 9.53407 1.84654 9.3042 5.15884Z" fill="#F7CC77"/>
<path d="M14.8584 8.37268C15.953 9.95549 17.0476 11.5405 18.0021 13.2196C18.9566 14.8988 19.7316 16.648 20.9882 18.0797C21.2925 18.4256 21.6647 18.7693 22.1244 18.8022C22.2373 18.8171 22.3518 18.7923 22.4484 18.7321C22.7024 18.5526 22.5907 18.1564 22.4484 17.8805C20.0403 13.1846 16.2617 9.34252 13.3631 4.9356C13.1442 4.58751 12.4436 3.28054 11.9773 3.23456C11.152 3.15137 11.9401 4.16718 12.1306 4.43864L14.8584 8.37268Z" fill="#EAA542"/>
<path d="M25.1081 12.6635C25.5197 11.7047 26.2158 10.8946 26.9646 10.1656C29.8259 7.37874 33.5476 5.59673 37.4006 4.55028C38.6879 4.2 40.1328 3.94386 41.2909 4.60063C42.5738 5.32526 43.0795 7.00877 42.7883 8.45585C42.4971 9.90293 41.5623 11.1333 40.5312 12.1775C37.7399 15.0235 33.9832 16.9544 30.0229 17.3595C27.0083 17.6747 23.5559 16.2758 25.1081 12.6635Z" fill="#F9B443"/>
<path d="M28.2585 11.1245C30.9348 9.17699 33.772 7.46102 36.7396 5.99512C37.6744 5.53319 38.6595 5.08878 39.7016 5.0647L37.7182 6.14616C35.4939 7.359 33.2631 8.57621 31.1505 9.9817C30.0765 10.6895 29.043 11.4569 28.0549 12.2804C27.6433 12.6263 25.5504 16.0327 25.222 15.4657C24.747 14.6404 27.7243 11.5141 28.2585 11.1245Z" fill="#EAA542"/>
<path d="M41.2909 4.60063C40.1306 3.94386 38.6858 4.2 37.4007 4.55028H37.3788C37.2518 5.08445 37.9327 5.09758 38.399 5.11947C38.5489 5.13693 38.6919 5.19285 38.8139 5.28185C38.9358 5.37084 39.0327 5.48986 39.0951 5.62736C39.2169 5.90624 39.298 6.20114 39.336 6.50305C39.348 6.61993 39.3919 6.73127 39.4629 6.82489C39.5371 6.8961 39.6295 6.94534 39.73 6.96717C40.4284 7.17295 41.2384 7.03067 41.8361 7.44443C42.055 7.59111 42.217 7.79908 42.4381 7.92824C42.5634 8.00156 42.703 8.0471 42.8475 8.06178C42.981 6.71541 42.4578 5.25958 41.2909 4.60063Z" fill="#F7CC77"/>
<path d="M41.9325 5.12598C42.1018 5.74642 42.1243 6.39776 41.9982 7.0284C41.707 8.47329 40.7722 9.70583 39.7411 10.7501C36.952 13.5961 33.1931 15.527 29.2328 15.932C27.5668 16.1028 25.7629 15.7481 24.7515 14.7827C25.093 16.8143 27.6807 17.5958 30.0056 17.3572C33.9725 16.9522 37.7292 15.0235 40.5139 12.1753C41.545 11.1245 42.4842 9.89192 42.771 8.45359C43.0031 7.2933 42.7207 5.96445 41.9325 5.12598Z" fill="#EAA542"/>
<path d="M22.9477 2.06548C26.1856 1.47439 29.4979 2.37855 32.6198 3.42063C32.9042 3.54132 33.2138 3.59092 33.5217 3.56512C33.6746 3.54614 33.8156 3.47255 33.9186 3.3579C34.0215 3.24326 34.0796 3.09526 34.0822 2.94117C34.0515 2.7762 33.9658 2.6265 33.8392 2.51647C33.3838 2.07863 32.7292 1.89472 32.1097 1.73929C29.6096 1.11755 27.0263 0.487061 24.4298 0.686281C23.5673 0.751958 22.2253 0.819822 21.4459 1.2314C19.8215 2.09176 22.3151 2.1837 22.9477 2.06548Z" fill="#F9B443"/>
<path d="M6.98825 14.8309C6.21545 15.0498 5.39668 15.4329 5.04421 16.2167C4.80305 16.836 4.81722 17.5256 5.08362 18.1344C5.34732 18.7186 5.71026 19.2527 6.15634 19.7129C7.77641 21.5069 9.74135 22.956 11.9338 23.9738C14.1263 24.9917 16.5014 25.5573 18.9174 25.6369C19.8543 25.6654 20.9139 25.5625 21.5182 24.7766C22.1224 23.9907 22.0326 22.8063 21.621 21.9043C21.1832 20.9323 20.4279 20.177 19.6507 19.4962C17.8554 17.9208 15.821 16.6409 13.6238 15.7044C12.7218 15.3235 11.7454 14.8134 10.8216 14.5419C9.66129 14.2026 8.12883 14.5025 6.98825 14.8309Z" fill="#F9B443"/>
<path d="M21.8684 23.4454C21.2642 24.2314 20.2046 24.3343 19.2654 24.3058C16.8498 24.2264 14.475 23.6608 12.2828 22.643C10.0906 21.6251 8.12611 20.1759 6.50661 18.3817C6.05957 17.9223 5.6965 17.3881 5.43389 16.8033C5.31711 16.515 5.24762 16.2097 5.22811 15.8992C5.15627 15.9985 5.09466 16.1049 5.04421 16.2166C4.80305 16.8359 4.81722 17.5255 5.08362 18.1344C5.34732 18.7185 5.71026 19.2526 6.15634 19.7128C7.77641 21.5068 9.74135 22.9559 11.9338 23.9738C14.1263 24.9916 16.5014 25.5572 18.9173 25.6369C19.8543 25.6653 20.9139 25.5624 21.5182 24.7765C21.8221 24.3585 21.9764 23.8502 21.956 23.3338C21.9268 23.3717 21.8976 23.4089 21.8684 23.4454Z" fill="#EAA542"/>
<path d="M18.6284 21.6766C17.722 20.582 16.5508 19.7522 15.3949 18.9313C13.2779 17.4317 11.1456 15.9233 8.77685 14.8681C8.53379 14.7562 8.28454 14.6582 8.03032 14.5747C7.66253 14.6491 7.31007 14.7411 6.98826 14.8309C6.78225 14.8926 6.5798 14.9657 6.38184 15.0498H6.40811C7.11922 15.1729 7.81862 15.356 8.49882 15.5971C9.89555 16.1094 11.1894 16.8603 12.4613 17.6221C13.9281 18.4978 15.3905 19.3998 16.6865 20.5141C17.4725 21.1906 18.2059 21.9502 19.1253 22.434C18.9949 22.1601 18.8277 21.9053 18.6284 21.6766Z" fill="#EAA542"/>
<path d="M27.488 26.1229C30.8594 28.588 34.3819 31.1209 38.4341 31.8937C39.5506 32.1126 40.9123 32.0798 41.5384 31.1275C41.904 30.5714 41.9062 29.8402 41.7902 29.1747C41.3677 26.7381 39.5856 24.7349 37.5891 23.3054C34.8766 21.3613 31.5643 20.2558 28.2717 20.5119C24.48 20.8075 24.7295 24.1066 27.488 26.1229Z" fill="#F9B443"/>
<path d="M41.7878 29.1703C41.6077 28.1874 41.2285 27.2517 40.6735 26.4206C40.7441 26.6586 40.8004 26.9006 40.8421 27.1453C40.9581 27.8021 40.9559 28.542 40.5903 29.0981C39.9642 30.0504 38.6047 30.0789 37.486 29.8643C33.4294 29.0937 29.9069 26.5608 26.5399 24.0935C26.1287 23.7962 25.7552 23.45 25.4277 23.0624C25.535 24.0847 26.264 25.2253 27.4834 26.1273C30.857 28.5924 34.3795 31.1253 38.4296 31.8981C39.5483 32.117 40.91 32.0842 41.5361 31.1319C41.9017 30.5714 41.9039 29.8402 41.7878 29.1703Z" fill="#EAA542"/>
<path d="M27.9519 22.4275C31.1591 23.3229 34.0358 25.1093 36.8008 26.968C37.821 27.6532 38.8521 28.3691 39.5986 29.3499C40.0365 29.9235 40.4086 30.6131 41.0764 30.8823C41.1264 29.9458 40.8198 29.0251 40.2182 28.3056C39.6168 27.597 38.8986 26.9965 38.0946 26.5301C36.7402 25.7192 35.3372 24.9925 33.8935 24.3541C32.4793 23.6973 31.0606 23.0493 29.6376 22.41C29.167 22.1911 28.1249 21.473 27.6126 21.5343C26.8092 21.6329 27.5294 22.3093 27.9519 22.4275Z" fill="#EAA542"/>
<path d="M35.7438 13.7626C34.1719 14.4412 32.5453 15.514 32.1688 17.1734C32.094 17.4702 32.0881 17.7802 32.1512 18.0797C32.3154 18.7365 32.9175 19.1941 33.5217 19.5071C34.7542 20.1442 36.1488 20.4178 37.5149 20.6017C40.7799 21.0472 44.0904 21.0472 47.3554 20.6017C48.9207 20.3828 50.5473 20.0347 51.747 19.008C52.4585 18.3994 52.9971 17.4996 52.9117 16.567C52.8438 15.8227 52.3928 15.1659 51.8631 14.6383C48.8507 11.6412 43.5046 11.7222 39.645 12.53C38.3067 12.8095 36.9997 13.2224 35.7438 13.7626Z" fill="#F9B443"/>
<path d="M36.3283 15.0892C36.1517 14.8567 35.9284 14.6638 35.6727 14.5228C35.4171 14.3818 35.1348 14.2958 34.844 14.2704C33.5961 14.9447 32.4731 15.897 32.1688 17.2478C32.094 17.5446 32.0881 17.8546 32.1512 18.1541C32.3154 18.8109 32.9175 19.2706 33.5217 19.5815C33.9434 19.7981 34.3828 19.9783 34.8352 20.12C35.115 20.0455 35.3837 19.9344 35.6343 19.7894C35.7805 19.7137 35.9077 19.6059 36.0065 19.4742C36.1641 19.2312 36.14 18.9094 36.2648 18.6467C36.4071 18.3424 36.7355 18.1541 36.869 17.8454C36.9442 17.626 36.9653 17.3917 36.9303 17.1624C36.88 16.4356 36.7639 15.6737 36.3283 15.0892Z" fill="#F7CC77"/>
<path d="M52.9119 16.5648C52.844 15.8205 52.393 15.1637 51.8632 14.6361C51.54 14.3114 51.1867 14.0182 50.808 13.7604C51.3159 14.2792 51.7428 14.9185 51.8085 15.6387C51.8939 16.5735 51.3553 17.4711 50.6438 18.0819C49.4441 19.1087 47.8175 19.4611 46.2544 19.6757C42.9857 20.1209 39.6716 20.1209 36.4029 19.6757C35.028 19.4874 33.6423 19.2159 32.4097 18.5811L32.3594 18.5526C32.6593 18.9584 33.0559 19.2828 33.5131 19.4962C34.7456 20.1332 36.1402 20.4069 37.5063 20.5908C40.7713 21.0363 44.0818 21.0363 47.3468 20.5908C48.9121 20.3719 50.5387 20.0238 51.7384 18.997C52.4587 18.3972 52.9972 17.4974 52.9119 16.5648Z" fill="#EAA542"/>
<path d="M45.8535 14.0099C47.7034 13.9464 49.6453 14.0099 51.2653 14.9009C51.9593 15.2862 52.6204 15.9058 52.6686 16.6983C52.6839 16.9172 52.5657 17.2215 52.3402 17.1952C52.2277 17.1644 52.13 17.0946 52.0643 16.9982C51.3058 16.1967 50.3269 15.6376 49.2512 15.3913C48.1808 15.1505 47.0884 15.0206 45.9914 15.0038C43.3928 14.8834 40.757 14.8089 38.2219 15.3956C37.3856 15.5883 36.5427 15.978 35.7042 16.1006C35.586 15.2096 39.5682 14.6864 40.2644 14.5681C42.1081 14.2228 43.9779 14.036 45.8535 14.0099Z" fill="#EAA542"/>
<path d="M57.1832 22.8938L57.978 22.4357C57.7297 22.281 57.4626 22.1588 57.1832 22.072L56.4019 22.53C56.6774 22.6157 56.9402 22.7381 57.1832 22.8938Z" fill="#A9810B"/>
<path d="M60.0259 33.6845L60.8072 33.2265L60.8207 26.8545L60.0394 27.3125L60.0259 33.6845Z" fill="#896809"/>
<path d="M59.541 27.0296L60.3224 26.5715V25.5612L59.541 26.0192V27.0296Z" fill="#896809"/>
<path d="M59.5411 25.9923L60.3225 25.5343C60.1296 24.8785 59.8292 24.2594 59.4334 23.7021C59.0472 23.1569 58.5517 22.6981 57.9784 22.355L57.1836 22.813C57.7644 23.151 58.2654 23.6105 58.652 24.1602C59.0502 24.716 59.3509 25.3355 59.5411 25.9923Z" fill="#A9810B"/>
<path d="M57.1832 22.8938C56.9402 22.7381 56.6774 22.6157 56.4019 22.53C56.5347 23.5823 56.9232 24.586 57.5335 25.4534C57.9168 26.0059 58.4184 26.4661 59.0018 26.8005C59.1729 26.9064 59.3533 26.9966 59.5407 27.0699V25.9922C59.3505 25.3355 59.0498 24.7159 58.6516 24.1601C58.2563 23.6397 57.756 23.2083 57.1832 22.8938Z" fill="#FDC011"/>
<path d="M60.0391 27.3125L60.8204 26.8544L60.8339 25.8575L60.0525 26.3021L60.0391 27.3125Z" fill="#896809"/>
<path d="M57.1967 20.1996L57.978 19.7415C57.7311 19.5843 57.4636 19.4619 57.1832 19.3778L56.4019 19.8358C56.6823 19.9199 56.9497 20.0423 57.1967 20.1996Z" fill="#A9810B"/>
<path d="M60.0527 26.3021L60.8341 25.8576V24.1602L60.0527 24.6182V26.3021Z" fill="#896809"/>
<path d="M59.5547 24.3217L60.336 23.8772V22.8668L59.5547 23.3249V24.3217Z" fill="#896809"/>
<path d="M59.5408 23.2979L60.3356 22.8534C60.1454 22.1966 59.8447 21.577 59.4465 21.0212C59.0599 20.4716 58.559 20.012 57.9781 19.6741L57.1968 20.1321C57.7749 20.4737 58.2751 20.9326 58.6652 21.4792C59.0569 22.0321 59.3528 22.6469 59.5408 23.2979Z" fill="#A9810B"/>
<path d="M57.1967 20.1995C56.9497 20.0422 56.6823 19.9198 56.4019 19.8357C56.5488 20.8843 56.936 21.8848 57.5335 22.759C57.9275 23.3021 58.4269 23.7602 59.0018 24.1062C59.1758 24.2069 59.3558 24.2968 59.5407 24.3756V23.2979C59.3527 22.6469 59.0567 22.0321 58.6651 21.4792C58.268 20.9569 57.7683 20.5214 57.1967 20.1995Z" fill="#FDC011"/>
<path d="M60.0527 24.6182L60.8341 24.1601V23.1498L60.0527 23.6078V24.6182Z" fill="#896809"/>
<path d="M57.2103 17.4918L57.9917 17.0472C57.7434 16.8925 57.4763 16.7702 57.1969 16.6835L56.4155 17.1281C56.6892 17.2292 56.9549 17.3508 57.2103 17.4918Z" fill="#A9810B"/>
<path d="M60.0527 23.6078L60.8341 23.1498L60.8476 21.4658L60.0527 21.9239V23.6078Z" fill="#896809"/>
<path d="M62.3964 25.8979L63.1778 25.4399C62.747 25.1464 62.2291 25.0085 61.7094 25.0492C61.6001 25.0647 61.4948 25.1013 61.3995 25.157L60.6182 25.615C60.7155 25.5609 60.8198 25.5201 60.928 25.4938C61.4485 25.4644 61.9643 25.6063 62.3964 25.8979Z" fill="#A9810B"/>
<path d="M59.5547 21.6274L60.336 21.1828L60.3495 20.1725L59.5547 20.6305V21.6274Z" fill="#896809"/>
<path d="M62.3696 27.9456L63.151 27.4875C63.6073 27.1135 63.9017 26.5779 63.9727 25.9922L63.1914 26.4502C63.1176 27.035 62.8238 27.5698 62.3696 27.9456Z" fill="#A9810B"/>
<path d="M62.3966 25.8979C61.9645 25.6063 61.4487 25.4644 60.9282 25.4938C60.7275 25.5505 60.5428 25.653 60.3885 25.7933C60.2342 25.9336 60.1146 26.1077 60.0391 26.3021V27.3394C60.2127 27.4651 60.3925 27.5821 60.5779 27.6897C61.01 27.9813 61.5259 28.1232 62.0463 28.0938C62.9894 27.9052 63.1779 26.5445 63.1914 26.4772C62.9467 26.2577 62.6804 26.0637 62.3966 25.8979Z" fill="#FDC011"/>
<path d="M63.1918 26.4502L63.9732 25.9922C63.7234 25.7872 63.4576 25.6025 63.1783 25.4398L62.397 25.8978C62.6796 26.0551 62.9459 26.2401 63.1918 26.4502Z" fill="#A9810B"/>
<path d="M59.5545 20.6036L60.3358 20.1455C60.1479 19.4946 59.8519 18.8798 59.4602 18.3269C59.0702 17.7802 58.57 17.3213 57.9918 16.9797L57.2104 17.4243C57.7857 17.7648 58.2817 18.2241 58.6654 18.7715C59.0607 19.3241 59.3612 19.9387 59.5545 20.5901V20.6036Z" fill="#A9810B"/>
<path d="M57.2103 17.4918C56.9549 17.3508 56.6892 17.2292 56.4155 17.1281C56.5525 18.1834 56.9405 19.1905 57.5471 20.0648C57.9378 20.6109 58.4379 21.0697 59.0156 21.412C59.1882 21.5151 59.3683 21.6051 59.5544 21.6814V20.6037C59.3611 19.9523 59.0606 19.3376 58.6653 18.785C58.2758 18.2572 57.7802 17.8166 57.2103 17.4918Z" fill="#FDC011"/>
<path d="M60.0527 21.9238L60.8476 21.4658V20.4554L60.0662 20.9135L60.0527 21.9238Z" fill="#896809"/>
<path d="M57.2103 14.7976L57.9917 14.3395C57.7467 14.191 57.4842 14.0734 57.2103 13.9893L56.4155 14.4338C56.6904 14.5321 56.9563 14.6538 57.2103 14.7976Z" fill="#A9810B"/>
<path d="M60.0664 20.9135L60.8478 20.4554V18.7715L60.0664 19.2295V20.9135Z" fill="#896809"/>
<path d="M62.4106 23.2036L63.1919 22.7456C62.7589 22.4558 62.2438 22.314 61.7235 22.3415C61.6145 22.3654 61.51 22.4063 61.4137 22.4627L60.6323 22.9208C60.7286 22.8643 60.8332 22.8234 60.9422 22.7995C61.4625 22.7721 61.9776 22.9138 62.4106 23.2036Z" fill="#A9810B"/>
<path d="M59.5679 18.9332L60.3492 18.4752V17.4783L59.5679 17.9363V18.9332Z" fill="#896809"/>
<path d="M62.3696 25.2379L63.1644 24.7933C63.6208 24.4193 63.9151 23.8837 63.9862 23.298L63.1914 23.756C63.1624 24.0459 63.0746 24.3269 62.9333 24.5816C62.792 24.8364 62.6002 25.0597 62.3696 25.2379Z" fill="#A9810B"/>
<path d="M63.1915 23.7561L63.9863 23.2981C63.7375 23.0917 63.4716 22.907 63.1915 22.7457L62.4102 23.2038C62.6873 23.3631 62.9489 23.548 63.1915 23.7561Z" fill="#A9810B"/>
<path d="M62.4102 23.2036C61.9773 22.9138 61.4621 22.772 60.9419 22.7995C60.7412 22.8562 60.5565 22.9587 60.4022 23.099C60.2479 23.2393 60.1283 23.4134 60.0527 23.6078V24.6451C60.2009 24.7394 60.3895 24.8741 60.6051 24.9954C61.0358 25.2889 61.5538 25.4267 62.0735 25.386C63.003 25.2109 63.2051 23.8502 63.2051 23.7829C62.9593 23.5647 62.6932 23.3708 62.4102 23.2036Z" fill="#FDC011"/>
<path d="M57.2103 14.7974C56.9563 14.6536 56.6904 14.532 56.4155 14.4337C56.5595 15.4873 56.9469 16.4928 57.5471 17.3705C57.9412 17.9136 58.4406 18.3717 59.0156 18.7176L59.5544 18.987V17.9093C59.3611 17.2579 59.0606 16.6433 58.6653 16.0907C58.2753 15.5634 57.7798 15.1229 57.2103 14.7974Z" fill="#FDC011"/>
<path d="M59.568 17.9092L60.3493 17.4512C60.156 16.7998 59.8555 16.1852 59.4602 15.6326C59.0681 15.0877 58.5683 14.6292 57.9918 14.2854L57.2104 14.7434C57.7901 15.0831 58.2907 15.5423 58.6789 16.0906C59.0742 16.6432 59.3747 17.2578 59.568 17.9092Z" fill="#A9810B"/>
<path d="M60.0664 19.2296L60.8478 18.7716V17.7612L60.0664 18.2193V19.2296Z" fill="#896809"/>
<path d="M57.2235 12.1032L58.0049 11.6451C57.7494 11.5042 57.4837 11.3826 57.21 11.2814L56.4287 11.7394C56.7024 11.8406 56.9681 11.9622 57.2235 12.1032Z" fill="#A9810B"/>
<path d="M60.0664 18.2191L60.8478 17.7611L60.8612 16.0771L60.0799 16.5352L60.0664 18.2191Z" fill="#896809"/>
<path d="M62.4106 20.5092L63.2054 20.0512C62.7675 19.7612 62.248 19.6196 61.7235 19.647C61.6153 19.6733 61.5111 19.7141 61.4137 19.7683L60.6323 20.2263C60.7297 20.1721 60.8339 20.1314 60.9422 20.1051C61.4633 20.0694 61.9811 20.2119 62.4106 20.5092Z" fill="#A9810B"/>
<path d="M59.5679 16.2389L60.3627 15.7808V14.7839L59.5813 15.2285L59.5679 16.2389Z" fill="#896809"/>
<path d="M62.3833 22.5437L63.1646 22.0991C63.6243 21.7279 63.9194 21.1908 63.9864 20.6038L63.205 21.0618C63.1333 21.6435 62.8388 22.1748 62.3833 22.5437Z" fill="#A9810B"/>
<path d="M63.205 21.0616L63.9863 20.6036C63.7437 20.3955 63.4821 20.2106 63.205 20.0513L62.4102 20.5093C62.6963 20.6609 62.9631 20.8463 63.205 21.0616Z" fill="#A9810B"/>
<path d="M62.4102 20.5092C61.9808 20.2119 61.463 20.0694 60.9419 20.1051C60.7412 20.1618 60.5565 20.2643 60.4022 20.4046C60.2479 20.5449 60.1283 20.7191 60.0527 20.9134V21.9507C60.2225 22.086 60.4026 22.2076 60.5916 22.3144C61.0232 22.606 61.5405 22.7436 62.06 22.7051C63.003 22.53 63.1916 21.1693 63.2051 21.102C62.9655 20.8725 62.6985 20.6734 62.4102 20.5092Z" fill="#FDC011"/>
<path d="M57.2235 12.1031C56.9681 11.9621 56.7024 11.8406 56.4287 11.7394C56.5687 12.7939 56.9565 13.8003 57.5603 14.6762C57.951 15.2223 58.451 15.6811 59.0287 16.0233L59.5676 16.2927V15.215C59.3798 14.5598 59.0838 13.9406 58.6919 13.3829C58.2911 12.8641 57.7922 12.4293 57.2235 12.1031Z" fill="#FDC011"/>
<path d="M59.5682 15.215L60.3495 14.757C60.1616 14.106 59.8656 13.4912 59.4739 12.9383C59.0824 12.393 58.5825 11.9344 58.0055 11.5912L57.2241 12.0492C57.7991 12.3951 58.2984 12.8533 58.6925 13.3964C59.0844 13.954 59.3804 14.5733 59.5682 15.2285V15.215Z" fill="#A9810B"/>
<path d="M59.5815 14.9051L60.3629 14.447V14.218L59.5815 14.6626V14.9051Z" fill="#896809"/>
<path d="M60.0796 16.5352L60.8609 16.0771V15.0668L60.0796 15.5248V16.5352Z" fill="#896809"/>
<path d="M60.0796 15.525L60.8609 15.0669V14.7167L60.0796 15.1747V15.525Z" fill="#896809"/>
<path d="M60.0796 15.1746L60.8609 14.7165V14.501L60.0796 14.959V15.1746Z" fill="#896809"/>
<path d="M59.5812 14.6627V14.9052V15.2285L59.5678 16.2389V17.9363V18.9332L59.5543 20.6306V21.6275V23.3249V24.3218L59.5408 26.0192V27.0296L59.5273 33.3881L60.0258 33.6845L60.0393 27.3125L60.0527 26.3021V24.6182V23.6078V21.9239L60.0662 20.9135V19.2296V18.2192L60.0797 16.5353V15.5249V15.1746V14.9591L59.5812 14.6627Z" fill="#FDC011"/>
<path d="M60.08 14.9589L60.8613 14.5009L60.3629 14.218L59.5815 14.6626L60.08 14.9589Z" fill="#836409"/>
<path d="M62.4238 17.815L63.2051 17.357C62.7756 17.0597 62.2578 16.9172 61.7367 16.9529C61.6284 16.9792 61.5242 17.02 61.4268 17.0741L60.6455 17.5322C60.7418 17.4757 60.8463 17.4348 60.9553 17.4109C61.4769 17.3708 61.9962 17.5137 62.4238 17.815Z" fill="#A9810B"/>
<path d="M62.397 19.8492L63.1783 19.3912C63.6338 19.0223 63.9284 18.491 64.0001 17.9093L63.2188 18.3538C63.1504 18.9404 62.8555 19.4771 62.397 19.8492Z" fill="#A9810B"/>
<path d="M63.2186 18.3539L64 17.9094C63.7541 17.6993 63.4878 17.5143 63.2052 17.3571L62.4238 17.8151C62.702 17.9744 62.9677 18.1545 63.2186 18.3539Z" fill="#A9810B"/>
<path d="M62.4239 17.815C61.9963 17.5137 61.4771 17.3708 60.9555 17.4109C60.7548 17.4676 60.5701 17.5702 60.4159 17.7104C60.2616 17.8507 60.1419 18.0249 60.0664 18.2192V19.2565C60.2361 19.3918 60.4163 19.5134 60.6053 19.6202C61.036 19.9138 61.554 20.0516 62.0736 20.0109C63.0032 19.8358 63.2053 18.4751 63.2187 18.3943C62.9691 18.181 62.7034 17.9873 62.4239 17.815Z" fill="#FDC011"/>
<path d="M62.4238 15.1072L63.2186 14.6626C62.7882 14.3673 62.2711 14.2249 61.7502 14.2585C61.6404 14.2799 61.5355 14.321 61.4403 14.3797L60.6455 14.8377C60.7429 14.7836 60.8471 14.7428 60.9553 14.7165C61.475 14.6758 61.993 14.8137 62.4238 15.1072Z" fill="#A9810B"/>
<path d="M59.8505 10.6482L60.6318 10.1902C60.601 10.1816 60.5683 10.1816 60.5375 10.1902L59.7427 10.6482H59.8505Z" fill="#A9810B"/>
<path d="M60.0661 15.215L60.8609 14.7705C61.0984 14.5795 61.2896 14.3374 61.4202 14.0621C61.5509 13.7868 61.6176 13.4855 61.6154 13.1808C61.5201 12.1388 61.1834 11.1333 60.6319 10.244L59.8506 10.702C60.4001 11.5873 60.7367 12.588 60.834 13.6254C60.8398 13.932 60.7733 14.2357 60.6399 14.5119C60.5065 14.788 60.3099 15.0289 60.0661 15.215Z" fill="#A9810B"/>
<path d="M59.8506 10.6482C59.5276 10.8082 59.2585 11.0593 59.0765 11.3706C58.8946 11.6818 58.8078 12.0395 58.8268 12.3995C58.8856 13.2792 59.1387 14.1349 59.5677 14.9052V14.6627L60.0662 14.9591V15.2151C60.31 15.029 60.5065 14.7881 60.6399 14.5119C60.7734 14.2358 60.8398 13.9321 60.834 13.6254C60.745 12.5695 60.4081 11.5494 59.8506 10.6482Z" fill="#FDC011"/>
<path d="M63.2186 15.6596L64 15.2151C63.7612 15.0021 63.4991 14.8168 63.2186 14.6627L62.4238 15.1073C62.7031 15.2699 62.9688 15.4546 63.2186 15.6596Z" fill="#A9810B"/>
<path d="M62.397 17.155L63.1783 16.697C63.4089 16.5188 63.6007 16.2955 63.742 16.0407C63.8833 15.7859 63.9711 15.505 64.0001 15.2151L63.2188 15.6596C63.187 15.9507 63.0981 16.2327 62.957 16.4893C62.816 16.7459 62.6257 16.9722 62.397 17.155Z" fill="#A9810B"/>
<path d="M62.4239 15.1073C61.9932 14.8137 61.4752 14.6759 60.9555 14.7166C60.7562 14.7719 60.5724 14.8724 60.4182 15.0102C60.264 15.1481 60.1437 15.3196 60.0664 15.5114V16.5622C60.2394 16.6929 60.4193 16.8143 60.6053 16.9259C61.0369 17.2175 61.5542 17.3551 62.0736 17.3166C63.0167 17.128 63.2053 15.7808 63.2187 15.7C62.9704 15.481 62.7046 15.2828 62.4239 15.1073Z" fill="#FDC011"/>
</svg>
