<svg width="35" height="32" viewBox="0 0 35 32" fill="none" xmlns="http://www.w3.org/2000/svg">
<path d="M0.609375 3.01311L4.69153 0.630289C5.23539 0.489371 5.80424 0.474376 6.35478 0.586405C6.90533 0.698433 7.42306 0.934546 7.8686 1.2768L3.78645 3.64113C2.41957 2.84686 1.21893 2.64368 0.609375 3.01311Z" fill="#969696"/>
<path d="M3.78711 3.64119L7.86926 1.27686C9.86417 2.42208 11.5635 4.3985 11.5635 5.65456C11.5748 5.82536 11.5374 5.99585 11.4556 6.14624C11.3739 6.29664 11.2512 6.42078 11.1017 6.50425L7.0196 8.88704C7.16713 8.80278 7.28734 8.6779 7.36593 8.52726C7.44453 8.37662 7.47818 8.20659 7.46289 8.03738C7.46289 6.76285 5.85592 4.80488 3.86101 3.64119H3.78711Z" fill="#969696"/>
<path d="M3.78666 3.64113C5.78157 4.80483 7.4809 6.7628 7.38854 8.03732C7.29618 9.31185 5.76306 9.40421 3.69427 8.24051C1.62548 7.07682 0 5.11883 0 3.86278C0 2.60673 1.75481 2.49591 3.78666 3.64113Z" fill="white"/>
<path d="M3.04785 8.81329L8.29371 5.7655C8.77703 5.51377 9.31992 5.39882 9.86379 5.43303L4.61787 8.48079C4.07338 8.43756 3.52808 8.55306 3.04785 8.81329Z" fill="#C7C7C7"/>
<path d="M5.61523 5.10044L14.426 0.316341C15.1686 0.0283036 15.9724 -0.0651933 16.7612 0.0447213C17.55 0.154636 18.2976 0.464336 18.9331 0.944388C19.2272 1.11175 19.511 1.29678 19.7828 1.49851L10.9904 6.35648L10.1407 5.82082C9.50257 5.3393 8.75272 5.02742 7.9613 4.91436C7.16988 4.8013 6.3627 4.89074 5.61523 5.17431V5.10044Z" fill="#C7C7C7"/>
<path d="M25.1391 29.3719L30.3849 26.3241C30.4215 26.7695 30.3359 27.2164 30.1374 27.6167C29.9388 28.0171 29.6349 28.3557 29.2582 28.5961L24.0308 31.6439C24.4055 31.4026 24.707 31.0633 24.9024 30.6627C25.0977 30.2621 25.1796 29.8157 25.1391 29.3719Z" fill="#C7C7C7"/>
<path d="M11.1196 6.20864L19.912 1.40611C20.66 1.12596 21.4665 1.03832 22.2573 1.15129C23.0481 1.26425 23.7978 1.57419 24.4375 2.05259L15.6266 6.85515C14.9945 6.36881 14.2475 6.05377 13.458 5.94052C12.6684 5.82727 11.863 5.91962 11.1196 6.20864Z" fill="#C7C7C7"/>
<path d="M15.627 6.8553L24.4378 2.05273C26.7979 3.45564 28.6289 5.59834 29.6467 8.14829L20.8358 12.9324C19.8182 10.3871 17.9866 8.25026 15.627 6.8553Z" fill="#C7C7C7"/>
<path d="M26.0449 21.3368L31.2723 18.3075C32.3394 19.4842 33.1285 20.8856 33.5813 22.4081C33.7127 22.8642 33.7749 23.3374 33.7659 23.812C33.8051 24.253 33.7225 24.6964 33.527 25.0938C33.3316 25.4911 33.0309 25.8272 32.6577 26.0655L27.4118 29.1132C27.79 28.8743 28.0951 28.536 28.2938 28.1353C28.4925 27.7345 28.5772 27.2869 28.5386 26.8413C28.5297 26.3727 28.4614 25.9072 28.3354 25.4559C27.8832 23.9315 27.1012 22.5253 26.0449 21.3368Z" fill="#C7C7C7"/>
<path d="M15.6267 6.85519C17.9864 8.25015 19.8179 10.387 20.8356 12.9323C21.8579 13.5819 22.7791 14.3786 23.5694 15.2966C25.0086 16.807 25.894 18.7601 26.0815 20.838C26.0913 21.0102 26.0913 21.1829 26.0815 21.3552C27.1378 22.5437 27.9197 23.9499 28.3719 25.4743C28.4979 25.9257 28.5662 26.3912 28.5751 26.8597C28.5751 28.873 27.1713 29.7781 25.1764 29.3902C25.1764 32.0871 22.6458 32.8074 19.5426 31.0157C18.8124 30.5775 18.1258 30.0703 17.4923 29.5011C16.3217 29.481 15.1787 29.1426 14.1859 28.5221C12.8711 27.7303 11.7077 26.7108 10.7502 25.5112C10.3702 25.3556 10 25.1767 9.64194 24.9756C6.53875 23.1284 4.10053 19.545 4.10053 16.8482C4.07135 16.6213 4.07135 16.3916 4.10053 16.1647C2.86159 14.7514 2.11033 12.9769 1.95785 11.1036C1.92085 10.7444 1.96601 10.3814 2.08987 10.0422C2.21373 9.70296 2.41308 9.39632 2.67285 9.14545C2.93262 8.89458 3.24604 8.70604 3.58937 8.59407C3.9327 8.4821 4.29698 8.44965 4.65471 8.49914C4.58307 8.13401 4.54597 7.76293 4.54388 7.39085C4.54388 4.69403 7.07444 3.97364 10.1776 5.76536L11.0273 6.30104C11.7723 5.96847 12.5936 5.84435 13.4036 5.94194C14.2136 6.03953 14.982 6.35518 15.6267 6.85519Z" fill="white"/>
<path d="M20.8359 12.9324L29.6468 8.20374C30.6639 8.85311 31.579 9.64991 32.3621 10.5681C33.8113 12.0717 34.6984 14.0286 34.8742 16.1095C34.8932 16.2813 34.8932 16.4548 34.8742 16.6267L26.0819 21.4107C26.0917 21.2385 26.0917 21.0658 26.0819 20.8935C25.8944 18.8157 25.0089 16.8625 23.5697 15.3521C22.7795 14.4341 21.8583 13.6375 20.8359 12.9878V12.9324Z" fill="#C7C7C7"/>
<path d="M24.4192 12.1196L29.6467 9.07183C29.8759 8.98003 30.1245 8.94716 30.3697 8.9762C30.615 9.00524 30.849 9.09526 31.0505 9.23806L25.7677 12.2859C25.5713 12.1398 25.3401 12.0476 25.0971 12.0184C24.8541 11.9892 24.6077 12.0241 24.3823 12.1196H24.4192Z" fill="#C7C7C7"/>
</svg>
