<svg width="1095" height="1095" viewBox="0 0 1095 1095" fill="none" xmlns="http://www.w3.org/2000/svg">
<path fill-rule="evenodd" clip-rule="evenodd" d="M694.726 20.1957C733.086 30.91 770.4 45.8433 805.962 64.8892C827.818 76.5945 848.748 89.7115 868.639 104.117C764.484 137.805 672.473 260.248 615.408 446.07C582.887 551.598 529.824 547.604 411.145 529.066C359.755 519.123 307.395 515.105 255.091 517.087C198.146 522.594 144.459 546.181 101.892 584.396C66.5416 616.409 39.048 655.621 20.9903 698.983C8.52869 655.656 1.46494 610.904 -2.47293e-05 565.74C162.037 484.932 192.966 426.223 215.328 383.773L215.414 383.609L215.433 383.576C234.822 347.088 247.703 322.85 404.274 286.923C549.063 253.703 657.526 154.429 694.726 20.1957ZM3.67725 481.743C16.1625 378.561 57.8469 280.572 124.471 199.625C204.954 101.84 316.853 34.9697 441.112 10.4027C501.596 -1.55504 563.186 -3.13058 623.352 5.29786C592.287 111.761 508.083 187.317 388.298 215.052C208.567 256.407 181.18 292.628 151.795 348.53C134.332 382.163 113.401 421.575 3.67725 481.743ZM56.8778 791.275C74.9176 709.601 146.99 598.568 260.226 590.386C307.124 588.33 354.102 591.486 400.302 599.797C508.998 617.194 632.813 636.59 685.591 466.604C727.789 327.085 815.176 168.413 932.243 158.02C958.805 184.255 982.648 213.169 1003.37 244.323C942.941 270.185 830.908 328.872 789.42 421.833C778.363 446.722 772.844 473.714 773.238 500.944C773.633 528.174 779.931 554.996 791.7 579.554C798.012 598.111 809.359 614.553 824.47 627.041C839.583 639.53 857.867 647.578 877.286 650.285C953.782 658.421 1041.3 575.33 1094.01 514.675C1095.42 538.023 1095.32 561.456 1093.73 584.832C1052.7 652.388 993.108 703.519 934.094 733.858C772.543 822.159 664.206 785.86 559.63 750.82L559.227 750.686C513.627 732.462 465.538 721.211 416.584 717.316C232.271 712.495 139.196 810.287 101.562 865.628C84.7355 842.088 69.7898 817.229 56.8778 791.275ZM150.263 924.553C165.034 896.537 235.57 784.735 414.87 788.047C456.912 791.672 498.22 801.275 537.544 816.569L538.784 816.983C646.982 853.137 781.333 898.029 970.327 794.609C1004.44 776.821 1035.92 754.718 1064.04 728.964C1025.51 838.65 952.966 933.384 856.78 999.235L856.761 999.109C774.599 1011.09 709.836 981.14 641.083 948.911C586.366 918.114 525.436 899.986 462.779 895.861C361.227 895.861 302.673 967.178 276.966 1023.61C234.486 999.5 195.131 969.65 160.101 934.627C156.776 931.309 153.497 927.953 150.263 924.553ZM329.714 1049.91C344.726 1015.96 383.198 956.327 461.637 956.327C515.428 960.704 567.612 976.765 614.551 1003.39C656.42 1023.39 701.361 1044.48 751.708 1055.45C670.395 1088.15 581.877 1101.07 493.561 1092.35C436.658 1086.74 381.424 1072.3 329.714 1049.91ZM1079.29 417.28L1079.27 417.269C1029.63 485.72 933.489 583.832 885.274 578.7C880.711 578.7 869.014 576.986 856.747 550.178C849.556 534.771 845.83 517.979 845.83 500.979C845.83 483.979 849.556 467.185 856.747 451.781C886.577 383.65 983.209 332.212 1039.9 308.161C1044.72 318.065 1049.24 328.136 1053.47 338.361C1064.11 364.11 1072.72 390.496 1079.29 417.28Z" fill="url(#paint0_linear_293_3989)" fill-opacity="0.25"/>
<defs>
<linearGradient id="paint0_linear_293_3989" x1="318.335" y1="1368.17" x2="812.066" y2="-257.276" gradientUnits="userSpaceOnUse">
<stop stop-color="white"/>
<stop offset="0.748182" stop-color="white" stop-opacity="0.1"/>
</linearGradient>
</defs>
</svg>
